<svg xmlns="http://www.w3.org/2000/svg" width="24" height="15" viewBox="0 0 24 15">
    <g fill="none" fill-rule="evenodd">
        <g fill="#3FA9F5" fill-rule="nonzero">
            <g>
                <g>
                    <path d="M15.36.347c.479-.463 1.256-.463 1.735 0l6.546 6.316c.479.462.479 1.212 0 1.674l-6.546 6.316c-.48.463-1.256.463-1.736 0-.479-.462-.479-1.212 0-1.675L19.482 9H1.15C.557 9 .07 8.61.007 8.109L0 8c0-.552.515-1 1.15-1h19.369l-5.16-4.978c-.447-.432-.477-1.114-.089-1.579z" transform="translate(-39 -1032) translate(-16 589) translate(55 443) rotate(-180 12 7.5)"/>
                </g>
            </g>
        </g>
    </g>
</svg>
