<?xml version="1.0" encoding="UTF-8"?>
<svg width="70px" height="58px" viewBox="0 0 70 58" version="1.1" xmlns="http://www.w3.org/2000/svg" xmlns:xlink="http://www.w3.org/1999/xlink">
    <title>Shape</title>
    <g id="Page-1" stroke="none" stroke-width="1" fill="none" fill-rule="evenodd">
        <g id="club-de-beneficios" transform="translate(-272.000000, -915.000000)" fill="#33508D" fill-rule="nonzero">
            <g id="Group-10" transform="translate(92.000000, 897.000000)">
                <g id="linea">
                    <g id="Group" transform="translate(78.312500, 0.000000)">
                        <g id="book" transform="translate(101.687500, 17.289062)">
                            <path d="M68.8333333,7.67460046 L64.1666667,7.67460046 L64.1666667,1.8750167 C64.169,1.23445268 63.6485208,0.713215086 63.0040833,0.7109375 C62.9699583,0.7109375 62.9359792,0.712345148 62.902,0.71509995 L59.8581667,0.970281636 C52.4768125,1.57720808 45.2370625,3.33230711 38.4031667,6.17134835 L35,7.57832737 L31.6003333,6.17598801 C24.7657083,3.33651181 17.5250833,1.58112279 10.143,0.973761386 L7.098,0.71509995 C6.45589583,0.661308811 5.89152083,1.1351348 5.83741667,1.77352399 C5.8345,1.80730656 5.8331875,1.84123413 5.83333333,1.8750167 L5.83333333,7.67460046 L1.16666667,7.67460046 C0.522375,7.67460046 0,8.19395318 0,8.83451721 L0,57.5510207 C0,58.1915848 0.522375,58.7109375 1.16666667,58.7109375 L68.8333333,58.7109375 C69.477625,58.7109375 70,58.1915848 70,57.5510207 L70,8.83451721 C70,8.19395318 69.477625,7.67460046 68.8333333,7.67460046 Z M2.33333333,56.3934238 L2.33333333,9.99443396 L5.83333333,9.99443396 L5.83333333,50.5915202 C5.83114583,51.1955469 6.29547917,51.7001107 6.90083333,51.751437 L10.0403333,52.0182178 C10.8959375,52.0894077 11.7513958,52.1771264 12.607,52.2815189 C12.8928333,52.3151565 13.1763333,52.3603933 13.4621667,52.3975106 C14.028,52.4729052 14.5938333,52.5482998 15.1573333,52.6376134 C15.4933333,52.6909696 15.8281667,52.7536051 16.163,52.8127608 C16.674,52.9020744 17.185,52.991388 17.6936667,53.0911408 C18.0436667,53.1607358 18.3936667,53.2372904 18.7436667,53.3126849 C19.2348333,53.4170774 19.726,53.5237898 20.2148333,53.6397815 C20.5648333,53.7232955 20.9206667,53.8126091 21.273,53.9019227 C21.7548333,54.0248738 22.2355,54.1501448 22.715,54.2823753 C23.065,54.3798084 23.415,54.481881 23.765,54.5839537 C24.241,54.7238687 24.7158333,54.8692932 25.1895,55.0200824 C25.5364375,55.1298395 25.8825,55.2427864 26.2278333,55.3587781 C26.705,55.5176867 27.1786667,55.6847147 27.6523333,55.8552225 C27.9883333,55.9712141 28.3255,56.0976451 28.6591667,56.224076 C28.8038333,56.2785921 28.9473333,56.3400677 29.0908333,56.3934238 L2.33333333,56.3934238 Z M33.8333333,55.8111456 L31.682,54.9180097 C24.852625,52.0733139 17.616375,50.3119803 10.2375,49.6983843 L8.16666667,49.5267167 L8.16666667,3.13700613 L9.947,3.28547547 C17.087875,3.87210337 24.0918125,5.56964153 30.7031667,8.31603442 L33.8333333,9.60818168 L33.8333333,55.8111456 Z M36.1666667,55.8111456 L36.1666667,9.60818168 L39.3003333,8.3148745 C45.9105208,5.56906157 52.9132917,3.87195838 60.053,3.28547547 L61.8333333,3.13700613 L61.8333333,49.5232369 L59.9165,49.6786658 C52.5331042,50.288057 45.2904375,52.0389514 38.4498333,54.8681333 L36.1666667,55.8111456 Z M67.6666667,56.391104 L40.9266667,56.391104 C41.0865,56.3296284 41.2451667,56.2646731 41.405,56.2043574 C41.755,56.070967 42.105,55.944536 42.4631667,55.8181051 C42.9205,55.6533969 43.3797292,55.4937634 43.841,55.3390595 C44.2003333,55.2230678 44.562,55.1070762 44.9225,54.9910845 C45.3833333,54.844935 45.8465,54.705745 46.3096667,54.5688748 C46.6736667,54.4621624 47.0388333,54.35661 47.404,54.2568572 C47.8706667,54.1269465 48.3373333,54.0051552 48.8156667,53.8856838 C49.1773333,53.7940504 49.5401667,53.702417 49.9041667,53.6165831 C50.3895,53.5005915 50.8783333,53.3961989 51.3671667,53.2929664 C51.7171667,53.2175718 52.0671667,53.1398573 52.4241667,53.0702623 C52.9375,52.9693496 53.4531667,52.880036 53.9676667,52.7907224 C54.3013333,52.7327266 54.6338333,52.6747307 54.9686667,52.6167349 C55.5438333,52.5262614 56.1201667,52.448547 56.6976667,52.3719925 C56.9741667,52.336035 57.2506667,52.2919582 57.5283333,52.2560008 C58.3839375,52.1532032 59.2437708,52.0653395 60.1078333,51.9926997 L63.0956667,51.751437 C63.7023333,51.7018506 64.1687083,51.1967068 64.1666667,50.5915202 L64.1666667,9.99443396 L67.6666667,9.99443396 L67.6666667,56.391104 L67.6666667,56.391104 Z" id="Shape"></path>
                        </g>
                    </g>
                </g>
            </g>
        </g>
    </g>
</svg>