<svg xmlns="http://www.w3.org/2000/svg" width="59" height="31" viewBox="0 0 59 31">
    <g fill="none" fill-rule="evenodd">
        <g fill="#33508D" fill-rule="nonzero">
            <g>
                <path d="M58.447 12.268v12.127c0 .54-.433.977-.967.977h-2.296c-.533 0-.966-.437-.966-.977s.433-.977.966-.977h1.33v-11.15c0-1.559-.744-3.035-1.99-3.95-3.701-2.714-10.81-6.794-19.636-6.33l.63 4.898c.068.535-.306 1.025-.835 1.094-.53.07-1.014-.308-1.083-.843l-.64-4.976c-5.7.722-11.035 3.248-15.483 7.35H41.9c1.468 0 2.839-.662 3.76-1.816.336-.42.945-.485 1.36-.146.416.339.48.954.145 1.373-1.29 1.616-3.21 2.543-5.265 2.543H15.258L4.504 14.483c-1.25.351-2.124 1.512-2.124 2.824v5.855h1.45c.534 0 .967.437.967.977s-.433.977-.967.977H1.414c-.534 0-.967-.438-.967-.977v-6.832c0-2.186 1.455-4.121 3.54-4.706l10.61-2.978C25.126-1.489 41.473-3.668 55.658 6.738c1.746 1.28 2.788 3.348 2.788 5.53zM20.384 24.163c0 3.77-3.035 6.837-6.766 6.837S6.85 27.933 6.85 24.163c0-3.77 3.036-6.838 6.767-6.838 3.73 0 6.766 3.068 6.766 6.838zm-1.933 0c0-2.693-2.168-4.884-4.833-4.884s-4.834 2.19-4.834 4.884c0 2.693 2.169 4.883 4.834 4.883 2.665 0 4.833-2.19 4.833-4.883zm33.592 0c0 3.77-3.036 6.837-6.767 6.837-3.731 0-6.767-3.067-6.767-6.837 0-3.77 3.036-6.838 6.767-6.838 3.731 0 6.767 3.068 6.767 6.838zm-1.934 0c0-2.693-2.168-4.884-4.833-4.884s-4.833 2.19-4.833 4.884c0 2.693 2.168 4.883 4.833 4.883s4.833-2.19 4.833-4.883zm-14.258-.733H23.405c-.534 0-.966.437-.966.977s.432.977.966.977h12.446c.534 0 .967-.438.967-.977 0-.54-.433-.977-.967-.977z" transform="translate(-1280 -926) translate(1280 926)"/>
            </g>
        </g>
    </g>
</svg>
