<?xml version="1.0" encoding="UTF-8"?>
<svg width="27px" height="30px" viewBox="0 0 27 30" version="1.1" xmlns="http://www.w3.org/2000/svg" xmlns:xlink="http://www.w3.org/1999/xlink">
    <title>7CF7DC9F-80BD-4A2D-B246-9165FC460CE6</title>
    <defs>
        <polygon id="path-1" points="0 0.566303558 27 0.566303558 27 29.5663036 0 29.5663036"></polygon>
    </defs>
    <g id="Page-1" stroke="none" stroke-width="1" fill="none" fill-rule="evenodd">
        <g id="home" transform="translate(-1295.000000, -1048.000000)">
            <g id="Group-3" transform="translate(1295.000000, 1048.000000)">
                <mask id="mask-2" fill="white">
                    <use xlink:href="#path-1"></use>
                </mask>
                <g id="Clip-2"></g>
                <path d="M26.391656,23.2786523 C26.391656,23.6869923 26.128435,24.034073 25.7634619,24.1609376 L25.7634619,19.7673958 C25.7634619,19.5989952 25.6272642,19.4626033 25.4592065,19.4626033 C25.2912321,19.4626033 25.1550345,19.5989952 25.1550345,19.7673958 L25.1550345,28.893537 C24.6184173,28.78322 24.1839693,28.361341 24.0715415,27.8051595 L23.3686181,24.3320961 C23.3404278,24.1928626 23.2199933,24.0917387 23.0781242,24.0880615 C22.9403419,24.0816263 22.8108999,24.1791566 22.7757871,24.3170528 L21.6015513,28.9044851 C21.2196474,28.8475716 20.8721056,28.6505889 20.6243976,28.344877 C20.3273149,27.9782402 20.2125519,27.5028742 20.3092998,27.0407128 L20.8293197,24.5591652 C20.8294031,24.5587474 20.8294865,24.5583295 20.8295699,24.5578281 L21.8138962,19.8604131 C21.8484252,19.6956897 21.7432536,19.533975 21.5786988,19.4994592 C21.414144,19.4648598 21.2530921,19.5703295 21.2186465,19.7351364 L20.3113849,24.0644938 C20.2891162,24.0264678 20.275438,23.9827589 20.275438,23.9355399 L20.275438,20.2624015 C20.275438,18.8509289 21.4214835,17.7024621 22.8302495,17.7024621 L23.1494341,17.7024621 C23.2305856,17.7148309 23.3130715,17.7226033 23.396725,17.7261969 C23.4276677,17.7368108 23.4603618,17.7438309 23.4950576,17.7438309 L24.307156,17.7438309 C25.4565376,17.7438309 26.391656,18.6808569 26.391656,19.8327502 L26.391656,23.2786523 Z M22.5712821,27.569733 L23.0358387,25.7551018 L23.4751242,27.926341 C23.539178,28.2424995 23.6767101,28.5272344 23.8658689,28.7671739 C23.3098187,28.5453698 22.8436774,28.1234909 22.5712821,27.569733 L22.5712821,27.569733 Z M19.0147964,27.9913612 C18.4333916,27.3780989 18.1372263,26.5751249 18.1802624,25.7379693 L19.2650898,11.4746494 C19.2778505,11.3066667 19.1524119,11.1603295 18.9848546,11.1475428 C18.817047,11.1345053 18.6713414,11.260367 18.6584973,11.4282661 L18.5653357,12.6527848 C18.557746,12.6591364 18.5495725,12.6644851 18.5424832,12.6716724 L18.0406452,13.1787128 C17.3699989,13.8563266 16.5238719,14.3382113 15.6109388,14.5815773 C15.6437163,14.5236609 15.6739917,14.4637387 15.7001804,14.4007243 C15.9130258,13.8875831 15.8479711,13.3316523 15.5381277,12.89356 C16.9951008,12.5382056 17.960578,11.3424361 18.5414824,10.31256 C18.894779,9.6863439 19.1574995,8.9727099 19.3223879,8.19146494 C19.5013715,7.34478194 20.1173887,5.92536984 22.2334985,5.92144189 C24.1747115,6.09510759 25.7018268,7.73323151 25.7018268,9.72286552 C25.7018268,11.0514332 25.373301,12.3616148 24.7500278,13.5313929 C24.3896419,13.2928742 23.9583632,13.15339 23.4950576,13.15339 C22.8898829,13.15339 22.3395042,13.3909059 21.9305775,13.7773497 C22.6844604,12.3642056 23.0919692,10.7783987 23.1015606,9.1561537 C23.102478,8.98775313 22.9671978,8.85044189 22.79914,8.84952258 L22.7973885,8.84952258 C22.6301648,8.84952258 22.4942174,8.98474448 22.4932165,9.15247647 C22.4800388,11.3680096 21.6763641,13.5113353 20.2304836,15.1875687 L19.3764333,16.1775802 C19.0153802,16.5960327 18.8984487,17.1589837 19.0635873,17.683658 C19.2197184,18.179416 19.5923646,18.558171 20.0712666,18.7147877 C19.8143009,19.172854 19.6670106,19.7006206 19.6670106,20.2624015 L19.6670106,23.9355399 C19.6670106,24.2851278 19.8751019,24.586243 20.1733523,24.7230528 L19.7139667,26.9155197 C19.5792703,27.5582834 19.7389877,28.2192661 20.1520011,28.7291479 C20.1601746,28.7390932 20.1688485,28.7484534 20.1771055,28.7583151 C19.7416566,28.5992747 19.3452404,28.3400298 19.0147964,27.9913612 L19.0147964,27.9913612 Z M12.6447285,16.2488684 L12.5775285,15.3719318 L12.6447285,15.3719318 L12.6447285,16.2488684 Z M13.3386145,18.1838453 L12.754374,18.1838453 L12.7331896,17.85256 L13.3386145,17.85256 L13.3386145,18.1838453 Z M15.0853309,18.9457848 L15.0853309,22.5280788 C15.0853309,22.6106494 15.0157725,22.6803497 14.9332032,22.6803497 L13.0415318,22.6803497 L12.7933234,18.7935139 L14.9332032,18.7935139 C15.0157725,18.7935139 15.0853309,18.8632978 15.0853309,18.9457848 L15.0853309,18.9457848 Z M11.7928168,27.9912776 C11.2820547,28.530243 10.6139104,28.8563468 9.88671663,28.9275514 L9.88671663,18.8010355 C9.88671663,18.60539 9.73392169,18.4455139 9.53884125,18.437073 C9.34526207,18.4254563 9.17753793,18.5748021 9.16077386,18.7699462 L8.48036932,26.69522 C8.37911765,27.873439 7.48236482,28.7853093 6.34082316,28.9239577 L6.34082316,28.2407445 L6.22864565,28.2407445 C6.47827188,27.8282257 6.62247628,27.3460067 6.62247628,26.8326148 L6.62247628,24.7851479 C7.19378923,24.6473353 7.62031397,24.1322719 7.62031397,23.5180067 L7.62031397,19.8327502 C7.62031397,18.8639664 7.10796718,18.0131883 6.34082316,17.5371537 L6.34082316,14.9469606 C6.83106806,15.2175716 7.39370706,15.3719318 7.99179249,15.3719318 L11.9651281,15.3719318 L12.6266835,25.7304477 C12.6700533,26.5751249 12.3740548,27.3780989 11.7928168,27.9912776 L11.7928168,27.9912776 Z M4.2337209,28.92939 L4.2337209,26.8676321 L4.2337209,24.3927704 C4.2337209,24.2243698 4.09760663,24.0879779 3.92954888,24.0879779 C3.76149113,24.0879779 3.62537686,24.2243698 3.62537686,24.3927704 L3.62537686,26.8676321 C3.62537686,27.4220586 3.40836134,27.941635 3.01428051,28.3308367 C2.69234357,28.6488338 2.28500161,28.8470701 1.84504893,28.9044851 L1.84504893,19.7673958 C1.84504893,19.5989952 1.70885126,19.4626033 1.54079351,19.4626033 C1.37273575,19.4626033 1.23662148,19.5989952 1.23662148,19.7673958 L1.23662148,24.1609376 C0.871648421,24.034073 0.608344042,23.6869923 0.608344042,23.2786523 L0.608344042,19.8327502 C0.608344042,18.6808569 1.54346241,17.7438309 2.6929274,17.7438309 L3.39952059,17.7438309 C3.52028864,17.7637214 3.64414261,17.7745024 3.77041529,17.7745024 C3.89677136,17.7745024 4.02054194,17.7637214 4.14139339,17.7438309 L4.92730317,17.7438309 C6.07676815,17.7438309 7.01188652,18.6808569 7.01188652,19.8327502 L7.01188652,23.5180067 C7.01188652,23.7917935 6.85266953,24.0284736 6.62247628,24.1416321 L6.62247628,19.7673958 C6.62247628,19.5989952 6.4862786,19.4626033 6.31822085,19.4626033 C6.1502465,19.4626033 6.01404883,19.5989952 6.01404883,19.7673958 L6.01404883,26.8326148 C6.01404883,27.8818799 5.23981552,28.7647502 4.2337209,28.92939 L4.2337209,28.92939 Z M2.09584281,15.4868453 C2.09584281,14.5615197 2.84705679,13.8088569 3.77041529,13.8088569 C4.69385719,13.8088569 5.44507117,14.5615197 5.44507117,15.4868453 C5.44507117,16.3043612 4.85816179,16.9862373 4.08476252,17.1342459 L3.45615146,17.1342459 C2.68258538,16.9862373 2.09584281,16.3043612 2.09584281,15.4868453 L2.09584281,15.4868453 Z M5.3214674,17.1634131 C5.48143503,17.0147358 5.6200514,16.8435773 5.73239571,16.6547848 L5.73239571,17.2575168 C5.59953418,17.2157301 5.46233566,17.1841393 5.3214674,17.1634131 L5.3214674,17.1634131 Z M8.82107201,8.26994045 L9.56928347,8.26994045 C11.2573673,8.26994045 12.6308537,9.64614506 12.6308537,11.3376724 L12.6308537,12.3889433 L8.38470568,12.3889433 C7.90446918,12.3889433 7.51372448,11.9974015 7.51372448,11.5161018 C7.51372448,11.3477848 7.37752681,11.2113093 7.20955246,11.2113093 C7.04149471,11.2113093 6.90529704,11.3477848 6.90529704,11.5161018 C6.90529704,12.3335341 7.5689375,12.9985283 8.38470568,12.9985283 L14.6548862,12.9985283 C14.7595574,12.9985283 14.8578066,13.0394794 14.9316185,13.1138598 C15.2662328,13.4509952 15.257809,13.8787243 15.1383754,14.1667185 C15.0189418,14.4546292 14.7221093,14.7623468 14.2475442,14.7623468 L7.99179249,14.7623468 C6.43415151,14.7623468 5.166921,13.4924477 5.166921,11.9317128 C5.166921,9.91257733 6.80621386,8.26994045 8.82107201,8.26994045 L8.82107201,8.26994045 Z M7.45158899,5.6005197 C7.45158899,4.46467243 8.37369644,3.54060039 9.50723138,3.54060039 C10.6406829,3.54060039 11.5628738,4.46467243 11.5628738,5.6005197 C11.5628738,6.73636696 10.6406829,7.66027186 9.50723138,7.66027186 C8.37369644,7.66027186 7.45158899,6.73636696 7.45158899,5.6005197 L7.45158899,5.6005197 Z M19.2659239,3.23580788 C19.2659239,2.10004419 20.1880313,1.17597215 21.3215663,1.17597215 C22.4551012,1.17597215 23.3772086,2.10004419 23.3772086,3.23580788 C23.3772086,4.37165514 22.4551012,5.29564362 21.3215663,5.29564362 C20.1880313,5.29564362 19.2659239,4.37165514 19.2659239,3.23580788 L19.2659239,3.23580788 Z M23.4950576,17.1190355 C22.5716157,17.1190355 21.8204017,16.3662056 21.8204017,15.4409635 C21.8204017,14.5157214 22.5716157,13.7630586 23.4950576,13.7630586 C24.4183327,13.7630586 25.1695467,14.5157214 25.1695467,15.4409635 C25.1695467,16.3662056 24.4183327,17.1190355 23.4950576,17.1190355 L23.4950576,17.1190355 Z M20.4283164,18.2034015 C20.3976239,18.1810038 20.3625945,18.1637041 20.3235618,18.1538425 C20.0011244,18.0724419 19.7470778,17.828073 19.643741,17.5001306 C19.5410715,17.1741105 19.6113805,16.8373929 19.836653,16.5763093 L20.6907033,15.5862142 C20.9105545,15.3313151 21.1148093,15.0653007 21.3063868,14.7912632 C21.2453356,14.9973554 21.2119742,15.2153151 21.2119742,15.4409635 C21.2119742,16.144903 21.5311589,16.7753814 22.0318292,17.1953381 C21.3983807,17.3609808 20.8421638,17.7193439 20.4283164,18.2034015 L20.4283164,18.2034015 Z M24.9404377,17.2102978 C25.4512832,16.790341 25.7779741,16.1532603 25.7779741,15.4409635 C25.7779741,14.8684015 25.5663798,14.3448136 25.2183376,13.9431595 C25.9325205,12.6538713 26.3101709,11.1991076 26.3101709,9.72286552 C26.3101709,7.61840154 24.8367673,5.85341307 22.8696159,5.40621134 C23.5445992,4.92156869 23.9856361,4.12954275 23.9856361,3.23580788 C23.9856361,1.76382805 22.7905495,0.566303558 21.3215663,0.566303558 C19.8527498,0.566303558 18.6576632,1.76382805 18.6576632,3.23580788 C18.6576632,4.37633526 19.3752657,5.35155428 20.3816105,5.73323439 C19.2340638,6.34775024 18.8509088,7.48017099 18.727305,8.0651854 C18.5750939,8.78550529 18.3345586,9.44072143 18.0118711,10.0125312 C17.4003577,11.0966465 16.3216188,12.3889433 14.6548862,12.3889433 L13.2391977,12.3889433 L13.2391977,11.3376724 C13.2391977,9.76624016 12.250034,8.42246206 10.8631197,7.89703555 C11.6454431,7.43144765 12.1712178,6.57649088 12.1712178,5.6005197 C12.1712178,4.12853987 10.9762146,2.93101537 9.50723138,2.93101537 C8.03833156,2.93101537 6.84324495,4.12853987 6.84324495,5.6005197 C6.84324495,6.48355716 7.27368964,7.26756004 7.93507821,7.75370702 C6.00854421,8.1635514 4.55857695,9.88081941 4.55857695,11.9317128 C4.55857695,12.5087877 4.7016971,13.0528511 4.95349182,13.530975 C4.60820195,13.320537 4.20319528,13.1992719 3.77041529,13.1992719 C2.51160851,13.1992719 1.48749876,14.2254707 1.48749876,15.4868453 C1.48749876,16.1544304 1.7744897,16.7560759 2.23120644,17.1746955 C0.965727401,17.3949116 0,18.5025946 0,19.8327502 L0,23.2786523 C0,24.0256321 0.532196782,24.6500932 1.23662148,24.7920845 L1.23662148,29.2264938 C1.23662148,29.3930557 1.37006685,29.5287791 1.53628972,29.5312863 C1.54963426,29.5314534 1.5629788,29.531537 1.57640674,29.531537 C2.27891316,29.5314534 2.93980131,29.2601739 3.44130566,28.765001 C3.50644368,28.7006494 3.56782855,28.6334563 3.62537686,28.5638396 L3.62537686,29.2615111 C3.62537686,29.3431623 3.65807097,29.4213871 3.7160363,29.478635 C3.77300079,29.5348799 3.84981528,29.5663036 3.92954888,29.5663036 L3.93396926,29.5663036 C4.62504942,29.5561076 5.25574556,29.2840759 5.73247912,28.846318 L5.73256252,29.2471364 C5.73256252,29.415537 5.8688436,29.5519289 6.03665114,29.5519289 C7.63807888,29.5519289 8.94917956,28.3462978 9.08654488,26.7474534 L9.27837258,24.5131998 L9.27837258,29.2471364 C9.27837258,29.415537 9.41448685,29.5519289 9.58254461,29.5519289 C10.5950613,29.5519289 11.5366851,29.1468482 12.2339371,28.4110672 C12.9311057,27.6754534 13.286404,26.712269 13.2340267,25.6953468 L13.0803977,23.2900183 L14.9332032,23.2900183 C15.3526386,23.2900183 15.6936749,22.9482027 15.6936749,22.5280788 L15.6936749,18.9457848 C15.6936749,18.5257445 15.3526386,18.1838453 14.9332032,18.1838453 L13.9469586,18.1838453 L13.9469586,17.5477675 C13.9469586,17.379367 13.8108443,17.242975 13.6428699,17.242975 L13.2391977,17.242975 L13.2391977,15.3719318 L14.2475442,15.3719318 C15.8230335,15.3719318 17.362993,14.729001 18.4725912,13.6080298 L18.4943595,13.5858828 L17.5731695,25.6991076 C17.5211258,26.7123525 17.8763406,27.675537 18.573676,28.4111508 C19.2708447,29.1468482 20.2124685,29.5519289 21.2249852,29.5519289 C21.29421,29.5519289 21.3573463,29.5277762 21.4084725,29.4888309 C21.5469221,29.5163266 21.6888746,29.5312863 21.8332458,29.5312863 C21.9721958,29.5312863 22.0933809,29.4370154 22.1279099,29.3022113 L22.3645252,28.3779721 C22.9370058,29.106733 23.8201638,29.5519289 24.7707118,29.5519289 C24.8476097,29.5519289 24.9170013,29.5224275 24.9706297,29.475292 C25.1201719,29.5110615 25.2751353,29.5314534 25.4342689,29.5314534 C25.4440271,29.5314534 25.4539521,29.5313698 25.4637103,29.5312863 C25.6299332,29.5287791 25.7634619,29.3930557 25.7634619,29.2264938 L25.7634619,24.7920845 C26.4678032,24.6500932 27,24.0256321 27,23.2786523 L27,19.8327502 C27,18.563269 26.1205117,17.4964534 24.9404377,17.2102978 L24.9404377,17.2102978 Z" id="Fill-1" fill="#FFFFFF" mask="url(#mask-2)"></path>
            </g>
        </g>
    </g>
</svg>