<?xml version="1.0" encoding="UTF-8"?>
<svg width="37px" height="37px" viewBox="0 0 37 37" version="1.1" xmlns="http://www.w3.org/2000/svg" xmlns:xlink="http://www.w3.org/1999/xlink">
    <title>678A7C81-EF39-4E4E-9557-533CB545F61E</title>
    <g id="Page-1" stroke="none" stroke-width="1" fill="none" fill-rule="evenodd">
        <g id="home" transform="translate(-966.000000, -1043.000000)" fill="#FFFFFF">
            <g id="section-1" transform="translate(-16.000000, 589.000000)">
                <g transform="translate(98.000000, 52.000000)" id="servicios">
                    <g transform="translate(0.000000, 158.000000)">
                        <g id="servicio-exequial" transform="translate(640.000000, 33.000000)">
                            <path d="M271.425002,228.993051 C270.598766,227.863372 268.727123,227.0331 266.667394,227.0331 C264.743418,227.0331 263.133441,227.833064 262.455935,228.996911 C261.652098,227.865495 259.818344,227.0331 257.800168,227.0331 C255.857456,227.0331 254.186459,227.845226 253.472634,229 C252.705744,227.856036 250.935523,227.0331 248.932837,227.0331 C247.311242,227.0331 245.874173,227.570335 245,228.392305 C245.998935,220.303481 253.458504,213.531494 262.455935,213.531494 C271.572686,213.531494 279.076215,220.388901 280,228.556487 C278.971339,227.626896 277.188767,227.0331 275.53483,227.0331 C273.627496,227.0331 272.073933,227.819648 271.425002,228.993051 Z M268.409508,239 L269.605951,239.005894 C272.037799,239.017886 274.009018,240.916488 274,243.238062 C273.99603,244.246713 273.580964,245.193371 272.830991,245.903949 C272.084851,246.611174 271.096101,247 270.045182,247 L270.029959,247 L263.382191,246.976219 C262.699072,246.97378 262.274638,246.549994 262.104949,246.154461 C261.955806,245.806692 261.93228,245.311869 262.257818,244.885542 C262.298058,244.870603 262.334252,244.849058 262.366721,244.82294 L268.146778,244.84357 L268.15423,244.84357 C269.217817,244.84357 270.085315,244.019373 270.089254,243.0031 C270.089999,242.795678 269.914562,242.626875 269.697501,242.626164 L269.695905,242.626164 C269.479376,242.626164 269.3033,242.793341 269.302661,243.000051 C269.300213,243.603412 268.785505,244.092544 268.15423,244.092544 L268.149652,244.092544 L262.528851,244.072524 C262.523529,243.987055 262.517461,243.90179 262.508519,243.817236 L262.508519,241.840483 C265.268779,241.648611 267.826775,239.517486 268.409508,239 M266,235.490588 C266.002523,234.822906 266.264762,234.195979 266.738774,233.725658 C267.210484,233.25744 267.835492,233 268.49975,233 L268.509363,233 C269.177126,233.002403 269.803936,233.26485 270.274344,233.738775 C270.744852,234.212701 271.002485,234.841531 271,235.509312 C270.994975,236.884728 269.874427,238.0002 268.500151,238 L268.491239,238 L268.490639,238 C267.822876,237.997397 267.196065,237.73515 266.725657,237.261225 C266.255149,236.787299 265.997416,236.158569 266,235.490588 M251,244.5892 C251,241.507322 253.506204,239 256.586834,239 C259.391524,239 261.7071,241.132717 262,243.862038 L262,244.322089 C261.500323,244.913105 261.372052,245.706613 261.670945,246.437534 C261.752396,246.63647 261.859644,246.816711 261.988219,246.974904 L259.920044,246.974904 C260.044456,246.818845 260.149063,246.642668 260.229092,246.448202 C260.559265,245.644738 260.381027,244.765986 259.763845,244.154955 C259.693565,244.085358 259.598707,244.046445 259.499889,244.046445 L255.010211,244.046445 C254.433044,244.046445 253.963531,243.576639 253.963531,242.99934 C253.963531,242.791971 253.79555,242.623922 253.588265,242.623922 C253.380981,242.623922 253.213,242.791971 253.213,242.99934 C253.213,243.990665 254.019186,244.797178 255.010211,244.797178 L259.33526,244.797178 C259.707885,245.247679 259.688791,245.788605 259.535029,246.162702 C259.391931,246.510586 259.064195,246.878383 258.551316,246.974904 L256.588967,246.974904 C256.542452,246.974904 256.498375,246.984455 256.457243,247 L253.409824,247 C252.081008,247 251,245.918554 251,244.5892 M254,235.490638 C254.005026,234.11525 255.125597,233 256.4998,233 L256.509313,233 C257.177089,233.002603 257.803912,233.264844 258.27433,233.73876 C258.744747,234.212777 259.002485,234.841494 259,235.509362 C258.994875,236.88465 257.874304,238.0001 256.500101,238 L256.490689,238 C255.822912,237.997497 255.195989,237.735156 254.725672,237.261139 C254.255154,236.787223 253.997416,236.158406 254,235.490638 M275.540726,217.944158 C272.131354,214.551113 267.656993,212.635683 262.897737,212.520839 L262.897737,211.388492 C262.897737,211.173948 262.723576,211 262.508534,211 C262.293493,211 262.119226,211.173948 262.119226,211.388492 L262.119226,212.519367 C252.098669,212.69321 244,220.915689 244,230.999332 C244,231.213981 244.174162,231.387929 244.389203,231.387929 C244.604245,231.387929 244.778512,231.213981 244.778512,230.999332 C244.778512,229.520035 246.644031,228.27032 248.85229,228.27032 C251.088574,228.27032 253.050183,229.54559 253.050183,230.999332 C253.050183,231.213981 253.224345,231.387929 253.439386,231.387929 C253.654428,231.387929 253.828695,231.213981 253.828695,230.999332 C253.828695,229.494479 255.600548,228.27032 257.778463,228.27032 C260.019173,228.27032 262.061172,229.531498 262.116592,230.931814 C262.113747,230.950955 262.110692,230.970095 262.110692,230.989972 L262.110692,241.464841 C261.285189,239.988383 259.89274,238.870234 258.228881,238.404128 C258.469947,238.261835 258.694997,238.088833 258.898871,237.886805 C259.545154,237.246435 259.902854,236.39331 259.906226,235.484235 C259.909703,234.57537 259.558219,233.71951 258.916677,233.074303 C258.275134,232.429306 257.420447,232.072259 256.509813,232.068789 L256.496959,232.068789 C254.623116,232.068789 253.094961,233.586998 253.088008,235.458994 C253.084636,236.367859 253.43612,237.223613 254.077557,237.868821 C254.283854,238.076318 254.512487,238.253527 254.757556,238.39929 C251.973079,239.161865 249.920544,241.709252 249.920544,244.727478 C249.920544,246.53185 251.391276,248 253.199058,248 L258.257539,248 C258.374173,248 258.48849,247.990956 258.600173,247.974129 L263.751266,247.974129 L270.330631,247.998633 L270.348648,247.998633 C271.595488,247.998633 272.768787,247.516121 273.654345,246.638912 C274.544012,245.757286 275.036469,244.582766 275.04121,243.331368 C275.050798,240.756427 273.149245,238.608996 270.670841,238.231231 C270.781154,238.145834 270.887463,238.054022 270.988083,237.954428 C271.634472,237.313953 271.992172,236.460933 271.995649,235.551753 C271.99902,234.642993 271.647537,233.787134 271.0061,233.142031 C270.364557,232.496824 269.509764,232.139777 268.59913,232.136307 L268.586066,232.136307 C267.680384,232.136307 266.828014,232.486833 266.184786,233.124047 C265.538397,233.764417 265.180697,234.617543 265.17722,235.526618 C265.173848,236.435482 265.525332,237.291342 266.166769,237.936549 C266.592954,238.365005 267.113331,238.665366 267.681437,238.820594 C266.735718,239.594738 264.837115,240.937632 262.889308,241.102431 L262.889308,231.070215 C262.894787,231.044344 262.897737,231.017526 262.897737,230.989972 C262.897737,229.464926 264.56992,228.27032 266.704531,228.27032 C268.996973,228.27032 271.164352,229.596492 271.164352,230.999332 C271.164352,231.213981 271.338618,231.387929 271.55366,231.387929 C271.768702,231.387929 271.942863,231.213981 271.942863,230.999332 C271.942863,229.443577 273.528334,228.27032 275.63081,228.27032 C277.94759,228.27032 280.221488,229.622048 280.221488,230.999332 C280.221488,231.213981 280.395755,231.387929 280.610797,231.387929 C280.825838,231.387929 281,231.213981 281,230.999332 C281,226.084186 279.06136,221.447841 275.540726,217.944158" id="Fill-1"></path>
                        </g>
                    </g>
                </g>
            </g>
        </g>
    </g>
</svg>