<?xml version="1.0" encoding="UTF-8"?>
<svg width="20px" height="34px" viewBox="0 0 20 34" version="1.1" xmlns="http://www.w3.org/2000/svg" xmlns:xlink="http://www.w3.org/1999/xlink">
    <title>5B79E3EF-8FC4-4068-A267-69F43C2C87E4</title>
    <defs>
        <filter id="filter-1">
            <feColorMatrix in="SourceGraphic" type="matrix" values="0 0 0 0 1.000000 0 0 0 0 1.000000 0 0 0 0 1.000000 0 0 0 1.000000 0"></feColorMatrix>
        </filter>
        <polygon id="path-2" points="0.0930232558 0 19.0930233 0 19.0930233 32 0.0930232558 32"></polygon>
    </defs>
    <g id="Page-1" stroke="none" stroke-width="1" fill="none" fill-rule="evenodd">
        <g id="home" transform="translate(-335.000000, -1045.000000)">
            <g id="section-1" transform="translate(-16.000000, 589.000000)">
                <g transform="translate(98.000000, 52.000000)" id="servicios">
                    <g transform="translate(0.000000, 158.000000)">
                        <g id="previfamilia" transform="translate(0.000000, 32.513934)">
                            <g filter="url(#filter-1)" id="Group-3">
                                <g transform="translate(253.000000, 214.486066)">
                                    <mask id="mask-3" fill="white">
                                        <use xlink:href="#path-2"></use>
                                    </mask>
                                    <g id="Clip-2"></g>
                                    <path d="M17.2019842,25.0742921 C17.2019842,25.5251857 16.9096679,25.9083762 16.5042537,26.0482961 L16.5042537,20.8614072 L15.8285325,20.8614072 L15.8285325,26.1057746 L15.8285325,26.7788451 L15.8285325,31.2732276 C15.2327105,31.1515462 14.7500789,30.6857302 14.625144,30.0717043 L13.552054,24.8000714 L11.8821247,31.2852944 C11.4579379,31.2223812 11.0718511,31.0049021 10.7967354,30.6673076 C10.466874,30.2625626 10.3393498,29.7378864 10.4468992,29.227764 L12.1872026,20.971206 L11.5260926,20.8328521 L10.4253523,26.0548361 C10.2959786,26.017346 10.1790891,25.9435635 10.0904047,25.8383703 C9.95927394,25.6828834 9.9042508,25.4792213 9.93939163,25.2793359 L10.624083,21.3821226 C10.8101444,20.3232825 11.5498589,19.4846848 12.5163243,19.1376947 C12.1036969,19.553309 11.9867149,20.1460568 12.2116163,20.6868529 C12.4375348,21.2303202 12.9448574,21.5679147 13.5354084,21.5679147 C13.6254799,21.5679147 13.7118523,21.5320827 13.7751983,21.4684326 L16.0499198,19.1849487 L16.5064731,19.6223017 C16.9549811,20.0596547 17.2019842,20.6448493 17.2019842,21.2699288 L17.2019842,25.0742921 Z M8.63141291,30.8040035 L8.62956339,30.727089 C9.39572598,29.9166779 9.78615911,28.8590353 9.72845417,27.7462169 L9.65521328,26.3584409 C9.83073248,26.5330873 10.0486056,26.6548608 10.2863611,26.7140896 L9.78569673,29.0895023 C9.63607077,29.7989574 9.81343949,30.5286774 10.2721198,31.0915806 C10.3360206,31.1699688 10.4046377,31.2431066 10.476584,31.3120072 L9.15390158,31.3120072 C8.86778124,31.3120072 8.6383486,31.0888172 8.63141291,30.8040035 L8.63141291,30.8040035 Z M5.62428253,19.729245 C5.40640938,19.7193889 5.22321468,19.8813238 5.20453455,20.0966842 L4.44872926,28.8462316 C4.33637108,30.1469607 3.34040595,31.1535727 2.07256175,31.3066647 L2.07256175,13.2656686 C2.61696721,13.5643914 3.24182667,13.7348006 3.90608085,13.7348006 L7.50588908,13.7348006 C7.79274924,13.7348006 8.06305621,13.6684792 8.30247624,13.547811 L9.05365774,27.7811278 C9.10193014,28.7136808 8.77308594,29.5999931 8.12751189,30.2770244 C7.5602649,30.8718908 6.81833098,31.2321452 6.01055425,31.3106255 L6.01055425,20.1311345 C6.01055425,19.9151293 5.8409535,19.7385485 5.62428253,19.729245 L5.62428253,19.729245 Z M0.768744446,9.93670103 C0.768744446,7.70765604 2.58931692,5.89422537 4.827233,5.89422537 L5.51969232,5.89422537 C7.01659925,7.34058532 8.91855049,8.22523957 10.9672609,8.44612679 C10.0023677,8.94031359 9.18830261,9.71148449 8.64565419,10.6805143 C8.45108496,10.5277908 8.20722609,10.4415729 7.95828104,10.4415729 L4.34238201,10.4415729 C3.80907366,10.4415729 3.37499192,10.0092862 3.37499192,9.47806989 L3.37499192,9.14148861 L2.69945568,9.14148861 L2.69945568,9.47806989 C2.69945568,10.3803177 3.43658085,11.1145513 4.34238201,11.1145513 L7.95828104,11.1145513 C8.07285865,11.1145513 8.18484693,11.1608842 8.26557836,11.2417595 C8.63733137,11.6140806 8.62789883,12.0862524 8.49528843,12.4041347 C8.36258555,12.722017 8.03300155,13.0617302 7.50588908,13.0617302 L3.90608085,13.0617302 C2.1762272,13.0617302 0.768744446,11.6598609 0.768744446,9.93670103 L0.768744446,9.93670103 Z M3.37499192,2.94706663 C3.37499192,1.69322307 4.39925467,0.673070446 5.6581287,0.673070446 C6.91700274,0.673070446 7.94108053,1.69322307 7.94108053,2.94706663 C7.94108053,4.20109442 6.91700274,5.22124704 5.6581287,5.22124704 C4.39925467,5.22124704 3.37499192,4.20109442 3.37499192,2.94706663 L3.37499192,2.94706663 Z M11.2304473,5.55773621 C11.2304473,4.30380053 12.2546175,3.28364791 13.5134916,3.28364791 C14.7723656,3.28364791 15.7965359,4.30380053 15.7965359,5.55773621 C15.7965359,6.80236846 14.7871617,7.81542837 13.5409569,7.83025858 C13.5318018,7.83025858 13.5227392,7.82961379 13.5134916,7.82961379 L13.4722473,7.82961379 C12.2326083,7.80741453 11.2304473,6.7977628 11.2304473,5.55773621 L11.2304473,5.55773621 Z M9.08001336,15.4596185 L10.0314051,14.1205703 L9.29169063,19.4709599 L9.08001336,15.4596185 Z M12.1251513,16.4214635 C12.1251513,15.4001134 12.9593762,14.569069 13.9849336,14.569069 C15.0103985,14.569069 15.8447158,15.4001134 15.8447158,16.4214635 C15.8447158,17.4429978 15.0103985,18.2741344 13.9849336,18.2741344 C12.9593762,18.2741344 12.1251513,17.4429978 12.1251513,16.4214635 L12.1251513,16.4214635 Z M18.4173945,13.3871658 C18.4173945,14.97713 17.7981761,16.4743364 16.6740394,17.6029983 L16.0387302,18.2406052 L16.0348462,18.2369207 L15.7999575,18.4803756 L13.4049249,20.8846197 C13.107615,20.8363524 12.9180394,20.6268872 12.8358284,20.4293046 C12.7421503,20.2041802 12.7362319,19.870086 12.9999731,19.6072873 L13.645917,18.9639694 L13.8513984,18.9639694 L13.8513984,18.9435203 C13.8956019,18.9459152 13.9401752,18.9471127 13.9849336,18.9471127 C15.3829838,18.9471127 16.520437,17.8141215 16.520437,16.4214635 C16.520437,16.3930006 16.5191423,16.3648139 16.5182176,16.3365352 L16.520437,16.3365352 L16.520437,12.5206578 L15.8447158,12.5206578 L15.8447158,14.7073308 C15.3813192,14.2088146 14.719192,13.8959985 13.9849336,13.8959985 C12.5868833,13.8959985 11.4494301,15.0288976 11.4494301,16.4214635 C11.4494301,17.2482707 11.850313,17.9835175 12.4685142,18.4444515 C11.1909601,18.8278262 10.1989714,19.8976278 9.95853414,21.265968 L9.51862642,23.7700627 L9.47488533,22.9425185 L9.4933805,22.9450977 L10.8030238,13.4731994 C10.8340032,13.2485355 10.7077736,13.0332672 10.4960039,12.9499049 C10.2842342,12.8662662 10.0443517,12.9375617 9.9126661,13.122709 L9.0227708,14.3751709 L8.94897505,12.9770782 C9.01454044,12.8798068 9.07215291,12.7751663 9.11913065,12.6626041 C9.31305256,12.1980777 9.29918118,11.7016802 9.09841606,11.2712357 C9.91164887,9.58584222 11.6282785,8.50471072 13.5134916,8.50471072 C13.527363,8.50471072 13.5408644,8.50378959 13.5547358,8.50360536 C16.2397727,8.52589674 18.4173945,10.7075035 18.4173945,13.3871658 L18.4173945,13.3871658 Z M16.5258931,18.7071581 L17.1536193,18.0770123 C18.404263,16.8214186 19.0930233,15.1558295 19.0930233,13.3871658 C19.0930233,10.8652011 17.3971083,8.7315853 15.0820673,8.0546461 C15.9161997,7.53291748 16.4721646,6.60902305 16.4721646,5.55773621 C16.4721646,3.93258472 15.1449509,2.61057746 13.5134916,2.61057746 C11.8821247,2.61057746 10.5548186,3.93258472 10.5548186,5.55773621 C10.5548186,6.46615563 10.9698503,7.27979067 11.6207879,7.82077093 C9.69377572,7.74173789 7.88041636,7.0332039 6.41818789,5.79520379 C7.682518,5.46009632 8.61680172,4.31043267 8.61680172,2.94706663 C8.61680172,1.32209937 7.28958802,0 5.6581287,0 C4.02666938,0 2.69945568,1.32209937 2.69945568,2.94706663 C2.69945568,3.91526746 3.17062025,4.77569596 3.89637088,5.31326803 C1.73021608,5.74518637 0.0930232558,7.65386199 0.0930232558,9.93670103 C0.0930232558,11.0745742 0.598588843,12.0962006 1.39693304,12.7929441 L1.39693304,32 L1.73465492,32 C3.51333582,32 4.96946089,30.6689657 5.12186113,28.9038944 L5.33501801,26.4373818 L5.33501801,32 L5.67283237,32 C6.53914633,32 7.35829759,31.7335168 8.04308142,31.240159 C8.21971033,31.6795385 8.64759619,31.9849856 9.15390158,31.9849856 L12.272188,31.9849856 L12.272188,31.977156 L12.4014692,31.977156 L13.4749291,27.8083932 L13.9629243,30.2053604 C14.172937,31.2369351 15.0847491,31.9774323 16.1384192,31.9774323 C16.1494238,31.9774323 16.1604284,31.9772481 16.1713406,31.977156 L16.5042537,31.972274 L16.5042537,26.7451317 C17.2865996,26.5883552 17.8777054,25.8989807 17.8777054,25.0742921 L17.8777054,21.2699288 C17.8777054,20.4624653 17.5585711,19.7064931 16.9769904,19.1390764 L16.5258931,18.7071581 Z" id="Fill-1" fill="#656565" mask="url(#mask-3)"></path>
                                </g>
                            </g>
                        </g>
                    </g>
                </g>
            </g>
        </g>
    </g>
</svg>