<svg xmlns="http://www.w3.org/2000/svg" width="16" height="18" viewBox="0 0 16 18">
    <g fill="none" fill-rule="evenodd">
        <g fill="#000">
            <g>
                <path d="M803.613 108.389c-.316-.312-.316-.816 0-1.127l5.72-5.63c2.211-2.176 5.796-2.176 8.008 0 2.212 2.177 2.212 5.706 0 7.883l-7.436 7.319c-1.58 1.555-4.141 1.555-5.72 0-1.58-1.555-1.58-4.075 0-5.63l6.292-6.194c.947-.933 2.484-.933 3.433 0 .947.934.947 2.446 0 3.379l-4.578 4.504c-.315.31-.827.31-1.143 0-.316-.311-.316-.815 0-1.126l4.576-4.505c.316-.31.316-.814 0-1.126-.316-.31-.828-.31-1.144 0l-6.292 6.194c-.948.933-.948 2.445 0 3.378.948.933 2.484.933 3.431 0l7.437-7.32c1.58-1.554 1.58-4.075 0-5.63-1.58-1.554-4.14-1.554-5.72 0l-5.72 5.63c-.316.311-.829.311-1.144 0" transform="translate(-804 -777) translate(1 677)"/>
            </g>
        </g>
    </g>
</svg>
