<svg xmlns="http://www.w3.org/2000/svg" width="43" height="43" viewBox="0 0 43 43">
    <g fill="none" fill-rule="evenodd">
        <g fill="#33508D" fill-rule="nonzero">
            <g>
                <g>
                    <path d="M41.374 34.952c-2.977-2.49-11.732-9.83-15.747-13.411 2.173-1.993 5.216-4.955 8.176-7.839 3.388-3.3 6.59-6.417 8.04-7.642C42.578 5.44 43 4.528 43 3.559c0-1.213-.63-2.288-1.688-2.876C40.261.1 39.023.128 38 .763 34.7 2.81 21.5 12.29 21.5 14.333c0 .603-.025 1.312-.24 2.117-.986-1.693-1.552-3.243-1.552-3.908 0-1.275-4.33-5.427-12.874-12.343-.354-.287-.872-.261-1.196.063L.263 5.637c-.325.324-.352.841-.063 1.197 6.915 8.543 11.067 12.874 12.342 12.874.76 0 2.672.736 4.638 2.004-3.972 3.53-12.068 10.325-15.552 13.238C.594 35.815 0 37.088 0 38.442 0 40.955 2.045 43 4.558 43c1.354 0 2.627-.594 3.493-1.63 2.993-3.579 9.994-11.92 13.45-15.788 3.565 3.993 10.953 12.804 13.451 15.792.865 1.034 2.138 1.626 3.49 1.626C40.956 43 43 40.955 43 38.442c0-1.352-.592-2.625-1.626-3.49zM23.292 14.49c.942-1.472 10.192-8.818 15.653-12.206.462-.284 1.022-.3 1.496-.037.48.268.767.758.767 1.31 0 .44-.19.853-.521 1.133-1.5 1.266-4.722 4.405-8.134 7.728-3.008 2.93-6.098 5.938-8.256 7.909-.134-.128-.273-.258-.372-.357-.531-.532-1.008-1.111-1.45-1.7.734-1.542.815-2.855.817-3.78zM6.676 40.22c-.524.628-1.296.987-2.118.987-1.525 0-2.766-1.24-2.766-2.766 0-.822.36-1.594.986-2.117 3.58-2.994 12.018-10.077 15.894-13.543.449.358.889.733 1.3 1.143.086.087.204.213.314.328-3.434 3.834-10.575 12.34-13.61 15.968zm31.766.987c-.821 0-1.592-.358-2.115-.984-3.801-4.546-12.88-15.357-15.09-17.566-2.699-2.7-6.785-4.72-8.517-4.72h-.027c-1.055-.41-6.114-6.112-10.592-11.605l.587-.587 8.325 8.325c.175.175.404.262.633.262.23 0 .458-.087.634-.262.35-.35.35-.917 0-1.267L3.955 4.479l.525-.525 8.324 8.325c.175.175.405.263.634.263.229 0 .458-.088.633-.263.35-.35.35-.917 0-1.267L5.746 2.687l.587-.587c5.493 4.479 11.195 9.532 11.584 10.442 0 1.866 2.028 5.982 4.742 8.696 2.208 2.208 13.02 11.288 17.565 15.088.626.524.984 1.295.984 2.116 0 1.526-1.24 2.766-2.766 2.766z" transform="translate(-628 -920) translate(92 897) translate(536 23)"/>
                </g>
            </g>
        </g>
    </g>
</svg>
