<?xml version="1.0" encoding="UTF-8"?>
<svg width="90px" height="91px" viewBox="0 0 90 91" version="1.1" xmlns="http://www.w3.org/2000/svg" xmlns:xlink="http://www.w3.org/1999/xlink">
    <title>CCB25589-D1C3-4D41-B9E9-B05BDC3A0F28</title>
    <defs>
        <filter id="filter-1">
            <feColorMatrix in="SourceGraphic" type="matrix" values="0 0 0 0 1.000000 0 0 0 0 1.000000 0 0 0 0 1.000000 0 0 0 1.000000 0"></feColorMatrix>
        </filter>
        <polygon id="path-2" points="0 0.239721512 88.8824347 0.239721512 88.8824347 90.7352535 0 90.7352535"></polygon>
    </defs>
    <g id="Page-1" stroke="none" stroke-width="1" fill="none" fill-rule="evenodd">
        <g id="home" transform="translate(-514.000000, -836.000000)">
            <g id="section-1" transform="translate(-16.000000, 589.000000)">
                <g transform="translate(98.000000, 52.000000)" id="servicios">
                    <g transform="translate(0.000000, 158.000000)">
                        <g id="previmascotas" transform="translate(321.000000, 0.000000)">
                            <g id="Rectangle-2">
                                <g id="2" transform="translate(-419.000000, -84.000000)">
                                    <g filter="url(#filter-1)" id="Group-18">
                                        <g transform="translate(530.000000, 121.000000)">
                                            <path d="M16.1253283,37.7796059 C16.650637,37.4383098 17.479051,37.4131219 18.0517373,37.7195147 L18.2542693,37.8280026 C18.4701002,37.9433272 18.7308151,38 18.9901447,38 C19.3240039,38 19.6550924,37.9066249 19.8842223,37.7263515 C20.2909487,37.4062852 20.2211292,36.9323928 19.7276825,36.6680998 L19.5251506,36.5596119 C18.0273558,35.7573773 15.8615657,35.824665 14.4881717,36.7164966 C14.0357302,37.0102954 14.0357302,37.4859869 14.4881717,37.7796059 C14.9403361,38.0734047 15.673718,38.072865 16.1253283,37.7796059" id="Fill-1" fill="#666666"></path>
                                            <path d="M26.125189,37.7796059 C26.6505159,37.4383098 27.4789586,37.4131219 28.0519417,37.7195147 L28.2542036,37.8280026 C28.4700421,37.9433272 28.7310431,38 28.9903817,38 C29.3242524,38 29.6550753,37.9066249 29.8842132,37.7263515 C30.2909536,37.4062852 30.2211317,36.9323928 29.727668,36.6680998 L29.525129,36.5596119 C28.0272824,35.7573773 25.8614173,35.824665 24.4879756,36.7164966 C24.0357955,37.0102954 24.0357955,37.4859869 24.4879756,37.7796059 C24.9404328,38.0734047 25.6738401,38.072865 26.125189,37.7796059" id="Fill-3" fill="#666666"></path>
                                            <g id="Group-7" transform="translate(0.148841, 0.000000)">
                                                <mask id="mask-3" fill="white">
                                                    <use xlink:href="#path-2"></use>
                                                </mask>
                                                <g id="Clip-6"></g>
                                                <path d="M86.6555695,11.918143 C86.6555695,12.9575006 85.8042072,13.8026895 84.7572581,13.8026895 C84.2147311,13.8026895 83.6969856,13.5717506 83.3372551,13.1691285 L78.6663539,7.94191919 C78.3119527,7.5453814 77.7238599,7.45411686 77.2652701,7.72420698 L74.8580066,9.14158488 C74.6251144,8.70139884 74.3655754,8.27893663 74.082321,7.87472733 L79.5331713,2.46340174 C83.5000665,2.6943407 86.6555695,5.9711343 86.6555695,9.96587558 L86.6555695,11.918143 Z M76.3427611,26.4598901 C76.7533868,29.189361 75.9481234,31.9537506 74.1332162,34.0446343 C72.3185754,36.1352535 69.6832162,37.3343901 66.9031653,37.3343901 L61.5679617,37.3343901 C58.8100275,37.3343901 56.1885246,36.150861 54.3754826,34.0877535 C52.5627072,32.0246459 51.7377251,29.2856517 52.107315,26.6056488 L54.3834766,13.1133116 C55.1844766,8.36543953 59.2848719,4.91987267 64.1337731,4.91987267 C68.9104617,4.91987267 73.0001982,8.30539012 73.8590216,12.9699337 L76.3427611,26.4598901 Z M78.1222281,77.1021837 L78.1222281,79.944082 L61.371309,79.944082 L61.371309,77.1021837 C61.371309,74.1592331 58.9595156,71.7643988 56.0014647,71.7643988 L49.9465335,71.7289512 C49.8503389,71.6268407 49.7541443,71.5249948 49.6555515,71.4257942 C49.6832641,71.3289744 49.7029826,71.2287157 49.7029826,71.1231663 L49.7029826,70.0589424 C49.7029826,63.2656866 44.1356862,57.7387593 37.292812,57.7387593 L36.9277521,57.7387593 C36.8499437,56.7721488 36.8070425,55.8026285 36.8070425,54.8328436 L36.8070425,51.7851372 C36.8070425,51.711861 36.7990485,51.6407012 36.7854587,51.571393 C37.3804796,51.4362157 37.992288,51.366643 38.6126234,51.366643 L40.7803329,51.366643 C41.3953389,51.366643 41.8938988,50.8719628 41.8938988,50.2611517 L41.8938988,47.5890849 L44.3675126,47.5890849 C44.982785,47.5890849 45.4810784,47.0944047 45.4810784,46.4835936 L45.4810784,43.540643 C45.4810784,43.2803407 45.4621593,43.0245355 45.4328479,42.7719047 L45.4339138,42.7719047 C49.3656353,42.7719047 52.6935425,40.1627971 53.7586114,36.5981895 C55.8994078,38.4837942 58.6714647,39.5453727 61.5679617,39.5453727 L66.9031653,39.5453727 C69.4306054,39.5453727 71.8597192,38.7393349 73.859288,37.283864 L73.859288,72.8698901 C73.859288,73.4807012 74.3578479,73.9753814 74.9728539,73.9753814 C76.7094198,73.9753814 78.1222281,75.3779453 78.1222281,77.1021837 L78.1222281,77.1021837 Z M53.9067671,79.944082 C53.599797,77.7632564 52.8225126,75.731364 51.6801683,73.949986 L55.9950695,73.9753814 C57.7313689,73.9753814 59.1441772,75.3779453 59.1441772,77.1021837 L59.1441772,79.944082 L53.9067671,79.944082 Z M51.8301892,88.5248 L10.9266952,88.5248 C11.4604287,84.9334744 14.5703659,82.1648523 18.3302162,82.151361 C18.3427401,82.1516256 18.3541982,82.1550645 18.3667222,82.1550645 C18.3840425,82.1550645 18.4000305,82.1505674 18.4173509,82.1497738 L26.9797371,82.1497738 C26.996791,82.1505674 27.0130455,82.1550645 27.0300994,82.1550645 C27.0474198,82.1550645 27.0636743,82.1505674 27.0807281,82.1497738 L44.2825096,82.1497738 C44.2995635,82.1505674 44.3155515,82.1550645 44.3328719,82.1550645 C44.3501922,82.1550645 44.3661802,82.1505674 44.3832341,82.1497738 L48.5886174,82.1497738 C49.2036234,82.1497738 49.7019168,81.6550936 49.7019168,81.0445471 C49.7019168,80.4340006 49.2036234,79.9393203 48.5886174,79.9393203 L45.4464377,79.9393203 L45.4464377,77.2209599 C45.4464377,74.4306459 43.4676533,72.0937448 40.8312281,71.5104453 L40.8136413,71.4768494 C40.4280635,70.7213378 40.0725964,69.9512767 39.7408449,69.1708988 C46.4856593,69.6393901 51.8301892,75.2332448 51.8301892,82.0463407 L51.8301892,88.5248 Z M2.22681198,77.2209599 C2.22681198,75.212611 3.87304551,73.57805 5.89632994,73.57805 L9.75264132,73.57805 C10.3679138,73.57805 10.8662072,73.0833698 10.8662072,72.4725587 C10.8662072,71.8622767 10.3679138,71.3670674 9.75264132,71.3670674 L7.1612491,71.3670674 C9.58743174,66.2120762 10.8662072,60.5227244 10.8662072,54.8328436 L10.8662072,52.2898698 C11.0953689,52.4089105 11.3213329,52.5348291 11.5398359,52.6758262 L12.0437251,53.0014686 C15.3441862,55.131768 19.1021713,56.1944047 22.858824,56.1944047 C26.7537731,56.1941401 30.6468569,55.0513494 34.0208629,52.7710587 C34.2031263,52.6477855 34.3901862,52.5337709 34.5801772,52.4263698 L34.5801772,54.8328436 C34.5801772,60.5224599 35.8586862,66.2118116 38.2848689,71.3670674 L35.6937431,71.3670674 C35.0784707,71.3670674 34.5801772,71.8622767 34.5801772,72.4725587 C34.5801772,73.0833698 35.0784707,73.57805 35.6937431,73.57805 L39.549788,73.57805 C41.5730725,73.57805 43.219306,75.212611 43.219306,77.2209599 L43.219306,79.9393203 L28.1436653,79.9393203 L28.1436653,72.07655 C28.1436653,71.4660035 27.6453719,70.9710587 27.0300994,70.9710587 C26.4150934,70.9710587 25.9168,71.4660035 25.9168,72.07655 L25.9168,79.9393203 L19.480288,79.9393203 L19.480288,72.07655 C19.480288,71.4660035 18.9819946,70.9710587 18.3667222,70.9710587 C17.7517162,70.9710587 17.2534228,71.4660035 17.2534228,72.07655 L17.2534228,80.0030733 C12.7578569,80.508864 9.18133593,84.0613029 8.67398263,88.5248 L2.22681198,88.5248 L2.22681198,77.2209599 Z M37.1734347,59.9494773 L37.292812,59.9494773 C42.7535216,59.9494773 47.2224407,64.2386459 47.4643928,69.6015616 C45.019824,67.9238814 42.0607072,66.9355791 38.8726952,66.9255267 C38.081288,64.6619017 37.510782,62.3220907 37.1734347,59.9494773 L37.1734347,59.9494773 Z M5.81452455,49.155925 L5.81452455,46.7462767 C5.81452455,44.5546052 7.61051257,42.7719047 9.84164132,42.7719047 C10.4569138,42.7719047 10.9432162,42.2769599 10.9432162,41.6664134 C10.9432162,41.0556023 10.4329317,40.5609221 9.81792575,40.5609221 C6.85641078,40.5609221 4.37586886,42.6245587 3.74620719,45.3783669 L2.22681198,45.3783669 L2.22681198,43.540643 C2.22681198,41.0794105 4.24396766,39.0768814 6.72317725,39.0768814 L6.83962335,39.0768814 C9.10885689,39.0766169 10.9552072,37.2436547 10.9552072,34.9908756 L10.9552072,23.0995035 C10.9552072,23.0741081 10.9552072,22.9976576 11.0455395,22.9492477 C11.1353389,22.9011023 11.2000904,22.9431634 11.2208749,22.9569192 L17.8681623,27.2963494 C18.1554138,27.4841692 18.5146114,27.5294047 18.8397012,27.4190936 C21.3183778,26.5781372 24.2785605,26.5741692 26.7607012,27.4085122 C27.0844587,27.5175006 27.442324,27.4725297 27.728776,27.285768 L34.3749976,22.9542738 C34.3960485,22.9407826 34.4602671,22.898457 34.5503329,22.9468669 C34.6406653,22.9952767 34.6406653,23.0717273 34.6406653,23.0971227 L34.6422641,34.9908756 C34.6422641,37.2436547 36.4886144,39.0766169 38.7578479,39.0768814 C41.2370575,39.0768814 43.2542132,41.0794105 43.2542132,43.540643 L43.2542132,45.3783669 L41.7350844,45.3783669 C41.1056892,42.6245587 38.6248808,40.5609221 35.6633659,40.5609221 C35.0480934,40.5609221 34.5498,41.0556023 34.5498,41.6664134 C34.5498,42.2769599 35.0480934,42.7719047 35.6633659,42.7719047 C37.8710455,42.7719047 39.6670335,44.5546052 39.6670335,46.7462767 L39.6670335,49.155925 L38.6126234,49.155925 C36.5195246,49.155925 34.4983719,49.774143 32.7676683,50.9433872 C26.8830096,54.9206692 19.2250126,55.0000297 13.2580156,51.1481372 L12.7541263,50.8227593 C11.0647251,49.732082 9.10672515,49.155925 7.09196766,49.155925 L5.81452455,49.155925 Z M50.375279,7.72420698 C49.9166892,7.45411686 49.3285964,7.5453814 48.9744617,7.94191919 L44.3038269,13.168864 C43.9438299,13.5717506 43.4263509,13.8026895 42.883824,13.8026895 C41.8368749,13.8026895 40.9852461,12.9575006 40.9852461,11.918143 L40.9852461,9.96587558 C40.9852461,5.9711343 44.1407491,2.6943407 48.1079108,2.46340174 L53.8404168,8.1543407 C53.8699946,8.1839686 53.9035695,8.20618953 53.9355455,8.23132035 C53.6890635,8.61357326 53.4649647,9.01222733 53.2621832,9.42357907 L50.375279,7.72420698 Z M79.0852401,0.239721512 C78.7897281,0.239721512 78.5067401,0.35611686 78.2980964,0.563247674 L72.6441982,6.1758843 C70.4405156,4.01727965 67.4198449,2.70889012 64.1337731,2.70889012 C60.6750305,2.70889012 57.5288539,4.14187558 55.3083838,6.48565465 L49.3432521,0.563512209 C49.1343419,0.35611686 48.8510874,0.239721512 48.5558419,0.239721512 C43.1534886,0.239721512 38.7581144,4.60295988 38.7581144,9.96587558 L38.7581144,11.918143 C38.7581144,14.1764773 40.6089946,16.0134076 42.883824,16.0134076 C44.0624078,16.0134076 45.1871653,15.5115849 45.969779,14.6359744 L50.0302042,10.0915297 L52.2245605,11.383518 C52.3039677,11.4300762 52.3873719,11.4623494 52.4718419,11.4877448 C52.3564617,11.898832 52.2594677,12.3186488 52.1869886,12.747989 L49.9054976,26.2731285 C49.5055305,29.174018 50.2191293,32.0987157 51.8730904,34.4842913 C51.6969557,37.8631953 48.8809317,40.5609221 45.4339138,40.5609221 L44.7650814,40.5609221 C43.6600425,38.3742767 41.3857461,36.8661634 38.7578479,36.8661634 C37.7164946,36.8658988 36.8691293,36.0246779 36.8691293,34.990611 L36.867797,23.0971227 C36.867797,22.2204541 36.3849587,21.4175907 35.6082072,21.0014773 C34.8317222,20.585364 33.8908269,20.6250442 33.1527132,21.1062331 L26.9480275,25.1499134 C24.3100036,24.3854076 21.2842701,24.389111 18.6483778,25.1602302 L12.4444916,21.1099366 C11.7069108,20.6282186 10.7654826,20.5872157 9.98873114,21.0033291 C9.21118024,21.4191779 8.72834192,22.2223058 8.72834192,23.0995035 L8.72834192,34.9908756 C8.72834192,36.0246779 7.88097665,36.8658988 6.83962335,36.8661634 L6.72317725,36.8661634 C3.01608743,36.8664279 -5.32934132e-05,39.8604337 -5.32934132e-05,43.540643 L-5.32934132e-05,46.4835936 C-5.32934132e-05,47.0944047 0.49824012,47.5890849 1.11351257,47.5890849 L3.58765928,47.5890849 L3.58765928,50.2611517 C3.58765928,50.8719628 4.08595269,51.366643 4.70095868,51.366643 L7.09196766,51.366643 C7.62676707,51.366643 8.15543772,51.4224599 8.67371617,51.5240413 C8.6531982,51.6081634 8.63907545,51.6946663 8.63907545,51.7851372 L8.63907545,54.8328436 C8.63907545,60.5878 7.25397964,66.3432855 4.63274311,71.4765849 L4.61515629,71.5104453 C1.97846467,72.0937448 -5.32934132e-05,74.4306459 -5.32934132e-05,77.2209599 L-5.32934132e-05,89.6302913 C-5.32934132e-05,90.2405733 0.49824012,90.7352535 1.11351257,90.7352535 L52.9437551,90.7352535 C53.5587611,90.7352535 54.057321,90.2405733 54.057321,89.6302913 L54.057321,82.1550645 L60.2577431,82.1550645 L79.2355275,82.1550645 C79.8508,82.1550645 80.3490934,81.6603843 80.3490934,81.0495733 L80.3490934,77.1021837 C80.3490934,74.5377826 78.5181982,72.3902884 76.0861533,71.879736 L76.0861533,35.194832 C76.0861533,35.1855733 76.0837551,35.1768436 76.0834886,35.1673203 C78.1334198,32.6301663 79.0306144,29.3615733 78.5395156,26.0980064 L76.0496473,12.5723378 C75.9638449,12.1064919 75.8492641,11.6522855 75.7125665,11.2086605 L77.6103449,10.0915297 L81.671303,14.6359744 C82.4539168,15.5115849 83.5786743,16.0134076 84.7572581,16.0134076 C87.0320874,16.0134076 88.8824347,14.1764773 88.8824347,11.918143 L88.8824347,9.96587558 C88.8824347,4.60295988 84.4873269,0.239721512 79.0852401,0.239721512 L79.0852401,0.239721512 Z" id="Fill-5" fill="#666666" mask="url(#mask-3)"></path>
                                            </g>
                                            <path d="M58.125189,17.7796078 C58.6505159,17.4383146 59.4789586,17.412947 60.0519417,17.7196971 L60.2542036,17.828184 C60.4700421,17.9436875 60.730766,18 60.9901046,18 C61.3239753,18 61.6550753,17.9066257 61.8842132,17.7265337 C62.2909536,17.4062903 62.2211317,16.932402 61.727668,16.6682911 L61.525129,16.5598042 C60.0272824,15.7573965 57.8614173,15.8245037 56.4879756,16.7166875 C56.0357955,17.0103039 56.0357955,17.4861712 56.4879756,17.7796078 C56.9401557,18.0734041 57.6730089,18.0734041 58.125189,17.7796078" id="Fill-8" fill="#666666"></path>
                                            <path d="M66.1251814,17.7796078 C66.6505062,17.4383146 67.4789457,17.412947 68.0519266,17.7196971 L68.2541878,17.828184 C68.4700254,17.9436875 68.7310254,18 68.9903629,18 C69.3242324,18 69.655054,17.9066257 69.884191,17.7265337 C70.2909299,17.4062903 70.2211082,16.932402 69.7279235,16.6682911 L69.5251082,16.5598042 C68.0272674,15.7573965 65.8614106,15.8245037 64.4879743,16.7166875 C64.035796,17.0103039 64.035796,17.4861712 64.4879743,17.7796078 C64.9404297,18.0734041 65.673003,18.0734041 66.1251814,17.7796078" id="Fill-10" fill="#666666"></path>
                                            <path d="M65.5616389,22.204273 L64.9604089,23.1830999 C64.6775856,23.6433675 64.2281787,23.6773931 64.048943,23.670799 C63.8691803,23.6636773 63.4242542,23.5958901 63.1770145,23.1150489 L62.7091568,22.204273 L65.5616389,22.204273 Z M72.0475959,24.3869173 C71.4389855,24.3869173 70.9460876,24.8804191 70.9460876,25.4889219 C70.9460876,27.3120564 69.4639672,28.7954633 67.6418263,28.7954633 L66.0294966,28.7954633 C65.6035484,28.7954633 65.2572019,28.4488778 65.2572019,28.0226357 L65.2572019,25.6593133 C65.901923,25.4108479 66.4564991,24.9574381 66.8368476,24.3375935 L67.516625,23.2313687 C67.9183236,22.5777623 67.9354564,21.755611 67.5611703,21.085915 C67.1871478,20.4162191 66.4783763,20 65.7116169,20 L62.5718307,20 C61.8269486,20 61.1505978,20.3798197 60.7626054,21.0160176 C60.3748766,21.6522156 60.3469369,22.4279446 60.6874846,23.0899914 L61.2180747,24.1231537 C61.610548,24.8867495 62.2618586,25.4372242 63.0404791,25.7004604 L63.0404791,28.0226357 C63.0404791,28.4488778 62.6938691,28.7954633 62.2679209,28.7954633 L60.6558547,28.7954633 C58.8339775,28.7954633 57.3515935,27.3120564 57.3515935,25.4889219 C57.3515935,24.8804191 56.8586956,24.3869173 56.2500852,24.3869173 C55.6417385,24.3869173 55.1488405,24.8804191 55.1488405,25.4889219 C55.1488405,28.5277431 57.619129,31 60.6558547,31 L62.2679209,31 C62.9809097,31 63.6356468,30.7473144 64.1488405,30.3271389 C64.6617707,30.7473144 65.3165078,31 66.0294966,31 L67.6418263,31 C70.6788156,31 73.1488405,28.5277431 73.1488405,25.4889219 C73.1488405,24.8804191 72.6559426,24.3869173 72.0475959,24.3869173 L72.0475959,24.3869173 Z" id="Fill-12" fill="#666666"></path>
                                            <path d="M23.5616389,43.2043258 L22.9606724,44.1826487 C22.6781128,44.6429274 22.2329231,44.6764262 22.048943,44.6703594 C21.8694439,44.6635014 21.4239906,44.5954488 21.1770145,44.1148598 L20.7091568,43.2043258 L23.5616389,43.2043258 Z M18.6558547,52 L20.2681845,52 C20.9809097,52 21.6359104,51.7473083 22.1488405,51.3273865 C22.6617707,51.7473083 23.3165078,52 24.0294966,52 L25.6418263,52 C28.6785521,52 31.1488405,49.5279476 31.1488405,46.4887898 C31.1488405,45.8802724 30.6559426,45.3867587 30.0473323,45.3867587 C29.4389855,45.3867587 28.9460876,45.8802724 28.9460876,46.4887898 C28.9460876,48.3122317 27.4639672,49.7954104 25.6418263,49.7954104 L24.0294966,49.7954104 C23.6035484,49.7954104 23.2572019,49.4490804 23.2572019,49.0228281 L23.2572019,46.6591852 C23.901923,46.4107139 24.4564991,45.9572932 24.8371112,45.33717 L25.516625,44.2311824 C25.91806,43.5772966 25.9354564,42.7551255 25.5611703,42.0856773 C25.1868842,41.4157015 24.4783763,41 23.7113534,41 L20.5718307,41 C19.826685,41 19.1505978,41.3798288 18.7626054,42.0157782 C18.374613,42.6519915 18.3466733,43.427739 18.687221,44.0895379 L19.2180747,45.1229888 C19.610548,45.8866029 20.2618586,46.4370909 21.0404791,46.7003333 L21.0404791,49.0228281 C21.0404791,49.4490804 20.6941327,49.7954104 20.2681845,49.7954104 L18.6558547,49.7954104 C16.8337139,49.7954104 15.3515935,48.3122317 15.3515935,46.4887898 C15.3515935,45.8802724 14.858432,45.3867587 14.2500852,45.3867587 C13.6417385,45.3867587 13.1488405,45.8802724 13.1488405,46.4887898 C13.1488405,49.5279476 15.619129,52 18.6558547,52 L18.6558547,52 Z" id="Fill-14" fill="#666666"></path>
                                            <path d="M69.2460358,53.3035317 L68.5911113,53.9135432 C67.7963289,54.6528287 66.7918949,55.0336482 65.7788043,55.0659667 C65.7179377,55.0560019 65.6568006,55.0473836 65.5932288,55.0473836 C65.5388546,55.0473836 65.4871857,55.0557325 65.4349757,55.0630042 C64.4267544,55.0153344 63.4323295,54.6223954 62.651073,53.8758383 L62.0618844,53.3129579 C61.6112011,52.883122 60.8956805,52.8979346 60.4633925,53.345815 C60.0313749,53.7947727 60.0462534,54.5068568 60.4963957,54.9372314 L61.0855843,55.5001118 C62.0521458,56.423074 63.2318756,56.9937647 64.4627333,57.2159543 L64.4627333,74.8747779 C64.4627333,75.4961009 64.9688728,76 65.5932288,76 C66.2175848,76 66.7237243,75.4961009 66.7237243,74.8747779 L66.7237243,57.229959 C67.961886,57.0250059 69.1540596,56.4710131 70.1354996,55.5572078 L70.7906946,54.9469269 C71.2467883,54.5222081 71.2703234,53.810124 70.8437162,53.3560492 C70.4184616,52.9035903 69.7026705,52.8782742 69.2460358,53.3035317" id="Fill-16" fill="#666666"></path>
                                        </g>
                                    </g>
                                </g>
                            </g>
                        </g>
                    </g>
                </g>
            </g>
        </g>
    </g>
</svg>