<svg xmlns="http://www.w3.org/2000/svg" width="95" height="77" viewBox="0 0 95 77">
    <defs>
        <filter id="nag2imp1ha">
            <feColorMatrix in="SourceGraphic" values="0 0 0 0 0.000000 0 0 0 0 0.058824 0 0 0 0 0.360784 0 0 0 1.000000 0"/>
        </filter>
    </defs>
    <g fill="none" fill-rule="evenodd">
        <g>
            <g>
                <g>
                    <g>
                        <g>
                            <g fill="#E4F4FD">
                                <g transform="translate(-89 -844) translate(89 676) translate(0 168)">
                                    <circle cx="38" cy="38.5" r="38"/>
                                </g>
                            </g>
                            <g filter="url(#nag2imp1ha)" transform="translate(-89 -844) translate(89 676) translate(0 168)">
                                <g>
                                    <path fill="#000" fill-rule="nonzero" d="M56.849 20.865c-.432-1.315-1.717-2.22-3.527-2.48l-14.753-2.123-6.597-13.237C31.162 1.401 29.897.47 28.5.47c-1.397 0-2.662.932-3.472 2.556l-6.597 13.237-14.753 2.123c-1.81.26-3.096 1.165-3.527 2.48-.431 1.316.072 2.796 1.382 4.06l10.675 10.304-2.52 14.55c-.322 1.86.227 2.976.744 3.584.608.713 1.493 1.106 2.493 1.106.753 0 1.554-.218 2.38-.648L28.5 46.95l13.196 6.87c.826.43 1.626.648 2.38.648 1 0 1.885-.393 2.492-1.106.518-.608 1.067-1.723.744-3.584l-2.52-14.55 10.675-10.304c1.31-1.264 1.814-2.744 1.382-4.06zm-3.713 1.692l-11.303 10.91c-.394.38-.573.928-.48 1.464l2.668 15.407c.078.449.044.703.013.822-.119-.008-.375-.053-.784-.266l-13.973-7.275c-.243-.127-.51-.19-.777-.19s-.534.063-.777.19l-13.972 7.274c-.41.213-.666.26-.785.267-.03-.119-.064-.373.014-.822l2.669-15.406c.092-.537-.087-1.085-.48-1.464L3.863 22.557c-.328-.318-.452-.543-.498-.657.104-.066.338-.176.793-.241L19.78 19.41c.544-.079 1.014-.417 1.257-.905l6.985-14.017c.204-.408.382-.594.478-.673.095.079.273.265.476.673l6.986 14.017c.244.488.714.826 1.258.905l15.62 2.248c.455.065.689.175.794.24-.046.115-.17.34-.499.658z" transform="translate(38 16)"/>
                                </g>
                            </g>
                        </g>
                    </g>
                </g>
            </g>
        </g>
    </g>
</svg>
