<svg xmlns="http://www.w3.org/2000/svg" width="34" height="37" viewBox="0 0 34 37">
    <defs>
        <filter id="jj3qi3p7ua">
            <feColorMatrix in="SourceGraphic" values="0 0 0 0 1.000000 0 0 0 0 1.000000 0 0 0 0 1.000000 0 0 0 1.000000 0"/>
        </filter>
    </defs>
    <g fill="none" fill-rule="evenodd">
        <g>
            <g>
                <g>
                    <g filter="url(#jj3qi3p7ua)" transform="translate(-92 -2026) translate(0 1784) translate(0 .874) translate(92 239.126)">
                        <g>
                            <g fill="#2F2F2F">
                                <path d="M19.678 14.499h-2.295v-1.704c0-.523.531-.644.78-.644h1.482v-2.3l-1.7-.009c-2.317 0-2.846 1.715-2.846 2.814V14.5h-1.682v2.369h1.682v6.396h2.284v-6.396h1.94l.355-2.37z" transform="translate(.006 .337) translate(0 3.007)"/>
                                <path fill-rule="nonzero" d="M32.2 16.106C32.2 7.21 24.992 0 16.1 0 7.208 0 0 7.211 0 16.106 0 25 7.208 32.212 16.1 32.212c8.892 0 16.1-7.211 16.1-16.106zm-30.736 0c0-8.087 6.552-14.642 14.636-14.642S30.736 8.02 30.736 16.106c0 8.086-6.552 14.641-14.636 14.641S1.464 24.192 1.464 16.106z" transform="translate(.006 .337) translate(0 3.007)"/>
                            </g>
                        </g>
                    </g>
                </g>
            </g>
        </g>
    </g>
</svg>
