<?xml version="1.0" encoding="UTF-8"?>
<svg width="34px" height="37px" viewBox="0 0 34 37" version="1.1" xmlns="http://www.w3.org/2000/svg" xmlns:xlink="http://www.w3.org/1999/xlink">
    <title>C1CA36B9-507B-4C89-8802-A79E87096A70</title>
    <defs>
        <filter id="filter-1">
            <feColorMatrix in="SourceGraphic" type="matrix" values="0 0 0 0 1.000000 0 0 0 0 1.000000 0 0 0 0 1.000000 0 0 0 1.000000 0"></feColorMatrix>
        </filter>
    </defs>
    <g id="Page-1" stroke="none" stroke-width="1" fill="none" fill-rule="evenodd">
        <g id="home" transform="translate(-83.000000, -2561.000000)">
            <g id="footer/1" transform="translate(-9.000000, 2319.000000)">
                <g id="redes" transform="translate(0.000000, 0.873710)">
                    <g id="social-media" transform="translate(92.000000, 239.126290)">
                        <g filter="url(#filter-1)">
                            <g transform="translate(0.006250, 0.337190)">
                                <g id="fb" transform="translate(16.500000, 19.506612) scale(-1, -1) rotate(-180.000000) translate(-16.500000, -19.506612) translate(0.000000, 3.006612)" fill="#2F2F2F">
                                    <path d="M19.6777778,14.4986319 L17.3830161,14.4986319 L17.3830161,12.7947321 C17.3830161,12.2720805 17.9144118,12.1508677 18.1624343,12.1508677 C18.4088077,12.1508677 19.644849,12.1508677 19.644849,12.1508677 L19.644849,9.8514418 L17.9458462,9.84242424 C15.6277922,9.84242424 15.0987155,11.5569669 15.0987155,12.656323 L15.0987155,14.4986843 L13.4166667,14.4986843 L13.4166667,16.8677342 L15.0987155,16.8677342 C15.0987155,19.9093788 15.0987155,23.2639118 15.0987155,23.2639118 L17.3830161,23.2639118 C17.3830161,23.2639118 17.3830161,19.8749338 17.3830161,16.8677342 L19.3234968,16.8677342 L19.6777778,14.4986319 Z" id="Path"></path>
                                    <path d="M32.2,16.1057851 C32.2,7.21097054 24.991567,0 16.1,0 C7.20838039,0 0,7.21097054 0,16.1057851 C0,25.0005471 7.20838039,32.2115702 16.1,32.2115702 C24.991567,32.2115702 32.2,25.0005471 32.2,16.1057851 Z M1.4636268,16.1057851 C1.4636268,8.01920726 8.0163268,1.46415271 16.1,1.46415271 C24.1836732,1.46415271 30.7363732,8.01920726 30.7363732,16.1057851 C30.7363732,24.192363 24.1836732,30.7474175 16.1,30.7474175 C8.0163268,30.7474175 1.4636268,24.192363 1.4636268,16.1057851 Z" id="Shape-" fill-rule="nonzero"></path>
                                </g>
                            </g>
                        </g>
                    </g>
                </g>
            </g>
        </g>
    </g>
</svg>