<svg xmlns="http://www.w3.org/2000/svg" width="50" height="52" viewBox="0 0 50 52">
    <defs>
        <filter id="bihvpu1sea">
            <feColorMatrix in="SourceGraphic" values="0 0 0 0 0.200000 0 0 0 0 0.313725 0 0 0 0 0.552941 0 0 0 1.000000 0"/>
        </filter>
    </defs>
    <g fill="none" fill-rule="evenodd">
        <g>
            <g filter="url(#bihvpu1sea)" transform="translate(-790 -914)">
                <g>
                    <path fill="#000" fill-rule="nonzero" d="M47.559 12.795h-4.205c-2.665-4.736-7.095-8.306-12.279-9.899V1.778c0-.98-.8-1.778-1.785-1.778H20.4c-.985 0-1.786.798-1.786 1.778v1.119c-2.042.626-3.972 1.555-5.744 2.767-.348.239-.437.713-.197 1.06.24.35.72.433 1.064.197 1.513-1.036 3.15-1.848 4.877-2.423-.008.529.066 1.053.214 1.538-3.584 1.26-6.705 3.63-8.888 6.759H8.11c.836-1.344 1.83-2.583 2.97-3.696.302-.295.307-.778.01-1.078-.295-.3-.78-.305-1.081-.01-1.452 1.417-2.686 3.025-3.675 4.784H2.13c-.984 0-1.786.798-1.786 1.778v2.815c0 2.163 1.388 4.01 3.323 4.704-.016.332-.025.665-.025.996 0 3.794 1.015 7.48 2.942 10.724-.467.321-.774.857-.774 1.464v2.815c0 2.756 2.252 4.999 5.02 4.999h1.914l-1.904 3.83H9.646c-1.547 0-2.806 1.253-2.806 2.794v.508c0 .98.801 1.778 1.785 1.778H40.46c.984 0 1.786-.798 1.786-1.778v-.508c0-1.541-1.26-2.795-2.806-2.795h-.591l-1.904-3.829h1.914c2.768 0 5.02-2.243 5.02-5v-2.814c0-.607-.307-1.143-.774-1.464 1.927-3.244 2.942-6.93 2.942-10.724 0-.33-.01-.664-.025-.996 1.935-.694 3.322-2.54 3.322-4.704v-2.815c0-.98-.8-1.778-1.785-1.778zm-5.982 0h-1.828c-2.183-3.13-5.304-5.5-8.888-6.76.149-.484.222-1.009.214-1.538 4.343 1.45 8.08 4.407 10.502 8.298zm-11.98 9.666c-.068-.517-.219-1.008-.44-1.46l7.884-2.368c.13.505.339.978.61 1.408l-8.054 2.42zm-4.753 21.75c2.03 0 4.01-.28 5.92-.834l1.792 3.542H17.133l1.793-3.542c1.908.555 3.888.834 5.918.834zm6.117-2.492c-1.962.646-4.01.967-6.116.968-2.655 0-5.215-.515-7.63-1.534.314-.403.57-.854.75-1.341 2.182.896 4.492 1.351 6.88 1.351s4.698-.455 6.88-1.35c.18.486.435.937.75 1.34-.499.21-1.004.398-1.514.566zm-13.8-11.882c-.324-.271-.807-.23-1.078.093l-3.01 3.567H11.94c-2.392-2.94-3.706-6.622-3.706-10.409 0-.24.005-.482.016-.723 1.002-.092 1.92-.479 2.664-1.072l9.237 2.775c.055.264.134.52.23.765l-1.998 2.37c-.272.322-.23.803.094 1.074.321.27.805.23 1.078-.094l1.665-1.973c.335.385.73.717 1.171.98l-5.385 6.385c-.165-.05-.34-.078-.52-.078h-1.414l2.183-2.587c.271-.322.23-.803-.094-1.073zM12.649 18.63L20.533 21c-.221.45-.372.942-.441 1.458l-8.053-2.419c.271-.43.48-.904.61-1.409zm11.435-9.038h1.53v8.783c-.496-.082-1.034-.083-1.53-.002v-8.78zm-.47 10.485c.756-.32 1.72-.317 2.474.005 1.185.488 2.022 1.652 2.022 3.006 0 .55-.138 1.067-.38 1.52l-.006.01c-.55 1.024-1.634 1.722-2.88 1.722-1.248 0-2.335-.702-2.884-1.73v-.002c-.243-.453-.38-.97-.38-1.52 0-1.36.842-2.526 2.034-3.01zm7.81 18.208c-2.08.898-4.29 1.354-6.58 1.354-2.288 0-4.499-.455-6.578-1.354.002-.065.005-.13.005-.195v-2.814c0-.239-.048-.465-.134-.673L23.9 27.77c.604.123 1.274.124 1.878.002l5.756 6.879c-.074.194-.116.404-.116.624v2.814c0 .066.003.13.005.195zm1.78-4.788c-.198 0-.388.034-.566.093l-5.35-6.394c.442-.262.838-.593 1.174-.977l6.09 7.278h-1.348zm3.68-18.924v2.515l-8.671 2.605c-.316-.311-.676-.58-1.068-.794V9.472c1.258-.278 2.34-1.028 3.048-2.053 3.066 1.042 5.77 2.97 7.765 5.524-.631.274-1.075.901-1.075 1.63zM20.143 1.778c0-.14.115-.254.256-.254h8.89c.14 0 .255.114.255.254v2.815c0 1.916-1.566 3.475-3.49 3.475h-2.42c-1.925 0-3.49-1.559-3.49-3.475V1.778zm-.648 5.64c.71 1.029 1.795 1.78 3.057 2.057v9.42c-.395.214-.757.483-1.075.796l-8.672-2.606v-2.512c0-.729-.443-1.356-1.075-1.63 1.995-2.554 4.7-4.482 7.765-5.524zm-17.621 9.97v-2.815c0-.14.114-.254.255-.254h8.89c.14 0 .255.114.255.254-.005.194.01 2.87-.006 3.014-.104 1.824-1.626 3.276-3.484 3.276h-2.42c-1.925 0-3.49-1.559-3.49-3.475zm3.31 4.995c.065.008 1.426.003 1.533.004-.01.234-.015.468-.015.701 0 3.734 1.17 7.374 3.319 10.41H8.183c-1.97-3.12-3.01-6.71-3.01-10.41 0-.234.005-.47.013-.705zM7.34 38.09v-2.814c0-.14.115-.254.255-.254h8.89c.141 0 .255.114.255.254v2.814c.002 1.923-1.58 3.479-3.49 3.476h-2.42c-1.924 0-3.49-1.56-3.49-3.476zm7.194 4.834c.523-.138 1.013-.359 1.454-.646.485.223.975.426 1.47.61L15.42 46.92h-2.87l1.985-3.995zm26.181 6.79v.508c0 .14-.114.254-.255.254H8.625c-.14 0-.255-.114-.255-.254v-.508c0-.7.573-1.27 1.276-1.27H39.44c.703 0 1.275.57 1.275 1.27zm-6.445-2.795l-2.04-4.03c.496-.185.986-.388 1.47-.611.442.287.932.508 1.455.646l1.986 3.995H34.27zm8.079-8.829c0 1.917-1.566 3.476-3.49 3.476h-2.42c-1.91.003-3.492-1.553-3.49-3.476v-2.814c0-.14.114-.254.255-.254h8.89c.14 0 .255.114.255.254v2.814zm2.167-15.002c0 3.7-1.04 7.29-3.01 10.41h-1.84c.635-.897 1.19-1.847 1.652-2.841.177-.382.01-.835-.373-1.012-.384-.177-.839-.01-1.016.372-.578 1.244-1.313 2.412-2.183 3.48h-1.201l-7.242-8.654c.099-.248.178-.506.234-.772l9.24-2.776c.745.592 1.661.978 2.662 1.07.01.241.016.483.016.723 0 1.253-.142 2.502-.421 3.713-.095.41.162.82.574.913.401.096.824-.158.918-.572.305-1.322.46-2.686.46-4.054 0-.233-.005-.467-.014-.7.11-.002 1.464.003 1.531-.005.009.235.013.47.013.705zm3.298-5.7c0 1.916-1.565 3.475-3.49 3.475h-2.42c-1.856 0-3.377-1.45-3.484-3.27-.004-.069-.006-.137-.006-.205v-2.815c0-.14.114-.254.255-.254h8.89c.14 0 .255.114.255.254v2.815z" transform="translate(790 914)"/>
                </g>
            </g>
        </g>
    </g>
</svg>
