<svg xmlns="http://www.w3.org/2000/svg" width="54" height="55" viewBox="0 0 54 55">
    <g fill="none" fill-rule="evenodd">
        <g fill="#33508D" fill-rule="nonzero">
            <g>
                <g>
                    <path d="M27 .36c-14.912 0-27 12.088-27 27s12.088 27 27 27 27-12.088 27-27C53.983 12.456 41.904.377 27 .36zm20.91 12.951l-1.872 7.954-9.858 3.286-8.28-6.623V8.169l9.45-3.78c4.279 1.939 7.934 5.027 10.56 8.922zm.15 27.86l-8.925 1.409-4.86-6.42 2.476-9.9 9.748-3.249 5.585 6.701c-.38 4.092-1.763 8.027-4.024 11.459zm-33.155 1.415L5.94 41.171C3.68 37.739 2.297 33.802 1.917 29.71l5.58-6.701 9.749 3.248 2.476 9.906-4.817 6.423zM1.808 27.024c.048-4.015 1.06-7.96 2.953-11.5l1.46 6.21-4.413 5.29zm19.595 8.436l-2.388-9.56L27 19.513l7.987 6.39-2.39 9.557H21.403zm26.376-13.73l1.46-6.21c1.892 3.54 2.905 7.485 2.953 11.5l-4.413-5.29zM34.896 3.434L27 6.59l-7.938-3.143c5.138-1.713 10.692-1.717 15.834-.014zm-18.29.976L26.1 8.172v9.756l-8.28 6.623-9.858-3.286-1.872-7.954c2.617-3.88 6.257-6.961 10.517-8.901zM7.445 43.23l7.316 1.156 4.424 6.93c-4.608-1.513-8.683-4.32-11.74-8.086zm14.32 8.78l-5.37-8.409 4.756-6.341h11.7l4.824 6.372-4.68 8.202c-3.681.906-7.52.968-11.228.18l-.001-.005zm13.73-.927l3.836-6.713 7.23-1.14c-2.905 3.576-6.731 6.292-11.066 7.853z" transform="translate(-457 -914) translate(92 897) translate(365 17)"/>
                </g>
            </g>
        </g>
    </g>
</svg>
