<svg xmlns="http://www.w3.org/2000/svg" xmlns:xlink="http://www.w3.org/1999/xlink" width="28" height="29" viewBox="0 0 28 29">
    <defs>
        <path id="0npoe169za" d="M0 0.061L28 0.061 28 28.061 0 28.061z"/>
    </defs>
    <g fill="none" fill-rule="evenodd">
        <g>
            <g transform="translate(-1188 -564) translate(1188 564)">
                <mask id="rfyh5edxob" fill="#fff">
                    <use xlink:href="#0npoe169za"/>
                </mask>
                <path fill="#33508D" stroke="#34548B" stroke-width=".5" d="M27.412 27.472H.588v-6.268h.57v1.999c0 .163.132.294.294.294h25.106c.163 0 .295-.131.295-.294v-2h.559v6.269zm-19.4-14.596v.543h-.84c-.162 0-.294.132-.294.294 0 .163.132.295.294.295h2.276c.162 0 .294-.132.294-.295 0-.162-.132-.294-.294-.294H8.6v-.543h10.807v.543h-.84c-.163 0-.294.132-.294.294 0 .163.131.295.294.295h2.275c.162 0 .294-.132.294-.295 0-.162-.132-.294-.294-.294h-.847v-.543h6.268v1.694H24.38c-.345-.303-.783-.469-1.247-.469-.467 0-.91.17-1.257.479H6.138c-.349-.316-.796-.489-1.27-.489-.469 0-.912.17-1.259.48H1.746v-1.695h6.266zM1.746 15.16h1.98c.078 0 .153-.03.208-.085l.013-.013c.508-.509 1.336-.509 1.844 0l.02.02c.055.055.13.086.208.086h15.975c.078 0 .153-.031.209-.087l.008-.008c.509-.51 1.336-.51 1.845 0 .055.055.13.086.208.086h2v7.75H1.746V15.16zm2.29-11.717V1.465c2.218.152 3.976 2.007 3.976 4.264v1.978c-2.218-.151-3.976-2.006-3.976-4.264h0zM7.956.791c.193-.19.505-.19.696.002l1.16 1.161c-.675.55-1.201 1.276-1.506 2.109C8 3.226 7.471 2.497 6.791 1.947L7.957.791zm4.621 2.652c0 2.258-1.758 4.113-3.976 4.264V5.73c0-2.257 1.758-4.112 3.976-4.264v1.978zm2.854 0V1.465c2.218.152 3.977 2.007 3.977 4.264v1.978c-2.219-.151-3.977-2.006-3.977-4.264h0zM19.352.791c.193-.19.505-.19.696.002l1.16 1.161c-.675.55-1.202 1.276-1.506 2.109-.306-.837-.836-1.566-1.516-2.116L19.352.791zm4.62 2.652c0 2.258-1.758 4.113-3.976 4.264V5.73c0-2.257 1.758-4.112 3.976-4.264v1.978zm3.734 17.172h-.853v-8.033c0-.163-.132-.295-.295-.295h-6.562v-.758c.012-.009.025-.018.036-.03l.158-.158c.48-.48 1.117-.743 1.794-.743.163 0 .294-.132.294-.295 0-.162-.131-.294-.294-.294-.734 0-1.43.252-1.988.714V8.296c2.543-.152 4.565-2.27 4.565-4.853V1.161c0-.078-.032-.153-.087-.208-.055-.055-.13-.086-.209-.086h0c-.944 0-1.825.272-2.572.74l-1.23-1.23c-.419-.42-1.103-.422-1.525-.004L17.7 1.6c-.744-.465-1.622-.734-2.562-.734h-.001c-.163 0-.294.131-.294.294v2.282c0 2.583 2.022 4.7 4.565 4.853v2.415c-.557-.455-1.246-.702-1.974-.702h-.015c-.162 0-.294.132-.294.294 0 .163.132.295.294.295h.015c.677 0 1.314.264 1.794.743l.158.159.022.018v.77H8.6v-.759c.012-.009.024-.018.035-.03l.159-.158c.48-.48 1.116-.743 1.794-.743.162 0 .294-.132.294-.295 0-.162-.132-.294-.294-.294-.735 0-1.43.252-1.988.714V8.296c2.542-.152 4.564-2.27 4.564-4.853V1.161c0-.078-.031-.153-.086-.208-.056-.055-.131-.086-.21-.086h0c-.943 0-1.825.272-2.571.74L9.068.377c-.42-.42-1.104-.422-1.525-.004L6.304 1.6C5.56 1.136 4.683.867 3.743.867h-.001c-.163 0-.295.131-.295.294v2.282c0 2.583 2.022 4.7 4.565 4.853v2.415c-.556-.455-1.246-.702-1.974-.702h-.014c-.163 0-.294.132-.294.294 0 .163.131.295.294.295h.014c.678 0 1.315.264 1.794.743l.159.159c.006.007.014.012.021.018v.77h-6.56c-.162 0-.294.13-.294.294v2.124c-.03.046-.048.1-.048.16 0 .059.018.113.048.16v5.589H.294c-.162 0-.294.131-.294.294v6.857c0 .163.132.295.294.295h27.412c.162 0 .294-.132.294-.295V20.91c0-.163-.132-.294-.294-.294h0z" mask="url(#rfyh5edxob)"/>
            </g>
        </g>
    </g>
</svg>
