<svg xmlns="http://www.w3.org/2000/svg" width="57" height="47" viewBox="0 0 57 47">
    <defs>
        <filter id="6h0mveb45a">
            <feColorMatrix in="SourceGraphic" values="0 0 0 0 0.200000 0 0 0 0 0.313725 0 0 0 0 0.552941 0 0 0 1.000000 0"/>
        </filter>
    </defs>
    <g fill="none" fill-rule="evenodd">
        <g>
            <g>
                <g>
                    <g>
                        <g filter="url(#6h0mveb45a)" transform="translate(-102 -923) translate(92 897) translate(0 6)">
                            <g fill="#000" fill-rule="nonzero">
                                <path d="M38.392 32.579c-.39-.381-1.014-.375-1.395.014l-.028.029c-.38.388-.374 1.012.014 1.394.192.188.441.281.69.281.256 0 .512-.099.705-.296l.028-.028c.38-.39.374-1.013-.014-1.394zM50.614 21.224H47.76V18.37c0-.593-.48-1.074-1.074-1.074-.592 0-1.073.48-1.073 1.074v2.853H42.76c-.593 0-1.074.48-1.074 1.073s.481 1.074 1.074 1.074h2.853v2.853c0 .593.48 1.073 1.074 1.073.592 0 1.073-.48 1.073-1.073V23.37h2.853c.593 0 1.074-.48 1.074-1.074 0-.593-.481-1.073-1.074-1.073z" transform="translate(11 20.34)"/>
                                <path d="M49.639 13.283C48.617 5.855 42.305.297 34.813.297c-3.782 0-7.32 1.387-10.079 3.93-2.759-2.543-6.297-3.93-10.078-3.93C6.402.297-.313 7.06-.313 15.374c0 1.642.488 3.483 1.457 5.515H.78c-.604 0-1.094.482-1.094 1.076 0 .595.49 1.076 1.094 1.076h1.527c2.043 3.403 5.274 7.272 9.679 11.58 5.97 5.84 12.023 10.41 12.083 10.455.196.147.43.221.664.221.235 0 .469-.074.665-.221.046-.035 4.676-3.527 9.806-8.286.44-.408.46-1.089.046-1.521-.415-.433-1.107-.453-1.546-.045-3.913 3.63-7.526 6.507-8.97 7.631-1.717-1.336-6.497-5.151-11.222-9.774-3.782-3.702-6.677-7.075-8.635-10.04h9.792c.488 0 .917-.318 1.052-.779l1.91-6.553 5.293 16.68c.142.45.565.756 1.044.756.478 0 .901-.306 1.044-.756l2.93-9.24h4.883c.604 0 1.094-.482 1.094-1.076 0-.594-.49-1.076-1.094-1.076H27.14c-.479 0-.902.306-1.044.755l-2.127 6.705-5.336-16.82c-.144-.453-.572-.761-1.056-.755-.484.006-.906.322-1.04.78l-2.69 9.227H3.584c-1.13-2.1-1.709-3.95-1.709-5.515 0-7.127 5.733-12.925 12.78-12.925 3.543 0 6.837 1.433 9.276 4.033.207.221.498.347.803.347.306 0 .597-.126.804-.347 2.44-2.6 5.733-4.033 9.275-4.033 6.093 0 11.273 4.323 12.505 10.236-.411-.053-.83-.08-1.256-.08-5.307 0-9.625 4.247-9.625 9.469 0 5.221 4.318 9.469 9.625 9.469 5.308 0 9.626-4.248 9.626-9.47 0-3.978-2.508-7.391-6.05-8.79zM46.063 29.39c-4.101 0-7.438-3.283-7.438-7.317 0-4.035 3.337-7.317 7.438-7.317 4.1 0 7.437 3.282 7.437 7.317 0 4.034-3.336 7.317-7.437 7.317z" transform="translate(11 20.34)"/>
                            </g>
                        </g>
                    </g>
                </g>
            </g>
        </g>
    </g>
</svg>
