<svg xmlns="http://www.w3.org/2000/svg" width="57" height="50" viewBox="0 0 57 50">
    <defs>
        <filter id="ooxgaopl1a">
            <feColorMatrix in="SourceGraphic" values="0 0 0 0 0.200000 0 0 0 0 0.313725 0 0 0 0 0.552941 0 0 0 1.000000 0"/>
        </filter>
    </defs>
    <g fill="none" fill-rule="evenodd">
        <g>
            <g filter="url(#ooxgaopl1a)" transform="translate(-950 -914)">
                <g fill="#000" fill-rule="nonzero">
                    <path d="M55.976 20.294L29.43.289c-.512-.385-1.207-.385-1.719 0L1.167 20.294c-.648.489-.79 1.426-.314 2.093.474.667 1.385.812 2.033.324L28.571 3.354 54.257 22.71c.259.195.56.289.858.289.448 0 .89-.212 1.175-.613.475-.667.334-1.604-.314-2.093z" transform="translate(950 914)"/>
                    <path d="M50.105 23c-.81 0-1.467.639-1.467 1.427v22.718H36.905v-12.4c0-3.936-3.29-7.137-7.334-7.137-4.043 0-7.333 3.201-7.333 7.136v12.401H10.505V24.427c0-.788-.657-1.427-1.467-1.427s-1.467.64-1.467 1.427v24.146c0 .788.657 1.427 1.467 1.427h14.666c.772 0 1.403-.58 1.461-1.316.004-.033.006-.07.006-.111V34.744c0-2.36 1.974-4.282 4.4-4.282 2.427 0 4.4 1.921 4.4 4.282v13.829c0 .04.003.077.007.11.057.736.689 1.317 1.46 1.317h14.667c.81 0 1.466-.639 1.466-1.427V24.427c0-.788-.656-1.427-1.466-1.427z" transform="translate(950 914)"/>
                </g>
            </g>
        </g>
    </g>
</svg>
