<?xml version="1.0" encoding="UTF-8"?>
<svg width="83px" height="77px" viewBox="0 0 83 77" version="1.1" xmlns="http://www.w3.org/2000/svg" xmlns:xlink="http://www.w3.org/1999/xlink">
    <title>F69238BD-5A4D-4E2E-ACD7-EB130EC17728</title>
    <g id="Page-1" stroke="none" stroke-width="1" fill="none" fill-rule="evenodd">
        <g id="home" transform="translate(-681.000000, -1741.000000)">
            <g id="section-3" transform="translate(0.000000, 1599.000000)">
                <g id="Group-20" transform="translate(136.000000, 123.000000)">
                    <g id="2" transform="translate(402.000000, 0.000000)">
                        <g id="icon-1" transform="translate(143.000000, 19.000000)">
                            <g id="Group-6" fill="#E4F4FD">
                                <circle id="Oval-Copy" cx="38" cy="38.5" r="38"></circle>
                            </g>
                            <g id="credit-card" transform="translate(23.000000, 9.000000)" fill-rule="nonzero">
                                <rect id="Rectangle" fill="#1A255B" x="42" y="40" width="6" height="2"></rect>
                                <rect id="Rectangle" fill="#1A255B" x="35" y="40" width="6" height="2"></rect>
                                <rect id="Rectangle" fill="#1A255B" x="27" y="40" width="6" height="2"></rect>
                                <path d="M58.1268782,20.4175297 L38.6284033,0.873983327 C38.0747213,0.313797541 37.3202603,-0.000982924117 36.5334037,2.30580105e-06 L36.5245349,2.30580105e-06 C35.7428517,2.30580105e-06 34.9941801,0.315278861 34.4462874,0.873983327 L13.7623541,21.599623 L2.95625536,21.599623 C1.32354016,21.599623 0,22.9260214 0,24.5622626 L0,52.2135663 C0,53.8498075 1.32354016,55.1762059 2.95625536,55.1762059 L17.5562151,55.1762059 L20.4967038,58.1260075 C21.0503858,58.6861933 21.8048468,59.0009738 22.5917034,58.9999885 L22.5995868,58.9999885 C23.3815163,58.9999885 24.1306807,58.6848354 24.6788197,58.1260075 L27.6252209,55.1762059 L50.2563411,55.1762059 C51.8890563,55.1762059 53.2125964,53.8498075 53.2125964,52.2135663 L53.2125964,29.533572 L58.1219511,24.613615 C58.6822847,24.0639219 58.998604,23.3116584 58.9999796,22.5259416 C59.0029152,21.7341762 58.6883204,20.974506 58.1268782,20.4175297 Z M45.5913701,10.6477316 L34.6630795,21.599623 L26.294906,21.599623 L41.4072834,6.45460893 L45.5913701,10.6477316 Z M35.8416399,2.26642397 C36.2164685,1.88165115 36.831616,1.87424455 37.2156828,2.25000601 C37.2212258,2.25543752 37.2267688,2.26086903 37.2320654,2.26642397 L40.0139017,5.0582181 L23.5071572,21.599623 L16.5491175,21.599623 L35.8416399,2.26642397 Z M23.2834672,56.7335669 C23.1032588,56.9221883 22.8541943,57.0290902 22.5936743,57.0298308 C22.3295821,57.0292136 22.0768223,56.9225586 21.8920563,56.7335669 L20.3439639,55.1762059 L24.8384575,55.1762059 L23.2834672,56.7335669 Z M51.2417595,52.2135663 C51.2417595,52.7589389 50.8005384,53.2011128 50.2563411,53.2011128 L2.95625536,53.2011128 C2.41205802,53.2011128 1.9708369,52.7589389 1.9708369,52.2135663 L1.9708369,38.3879144 L51.2417595,38.3879144 L51.2417595,52.2135663 Z M51.2417595,36.4128213 L1.9708369,36.4128213 L1.9708369,30.487542 L51.2417595,30.487542 L51.2417595,36.4128213 Z M51.2417595,28.5124489 L1.9708369,28.5124489 L1.9708369,24.5622626 C1.9708369,24.01689 2.41205802,23.5747161 2.95625536,23.5747161 L50.2563411,23.5747161 C50.8005384,23.5747161 51.2417595,24.01689 51.2417595,24.5622626 L51.2417595,28.5124489 Z M56.7334965,23.2122865 L56.7334965,23.2122865 L53.2125964,26.7407903 L53.2125964,24.5622626 C53.2125964,22.9260214 51.8890563,21.599623 50.2563411,21.599623 L37.4459012,21.599623 L46.9808101,12.0441225 L56.7295549,21.8139206 C56.9188784,21.9998262 57.0254268,22.2543663 57.0251808,22.5200163 C57.0249341,22.7807286 56.9197406,23.030331 56.7334965,23.2122865 Z" id="Shape" stroke="#000F5C" fill="#000F5C"></path>
                            </g>
                        </g>
                    </g>
                </g>
            </g>
        </g>
    </g>
</svg>