<?xml version="1.0" encoding="UTF-8"?>
<svg width="83px" height="77px" viewBox="0 0 83 77" version="1.1" xmlns="http://www.w3.org/2000/svg" xmlns:xlink="http://www.w3.org/1999/xlink">
    <title>1DD03E73-6F43-4B69-97C0-00587C7250B7</title>
    <g id="Page-1" stroke="none" stroke-width="1" fill="none" fill-rule="evenodd">
        <g id="home" transform="translate(-1081.000000, -1741.000000)">
            <g id="section-3" transform="translate(0.000000, 1599.000000)">
                <g id="Group-20" transform="translate(136.000000, 123.000000)">
                    <g id="3" transform="translate(804.000000, 0.000000)">
                        <g id="icon-1" transform="translate(141.000000, 19.000000)">
                            <g id="Group-6" fill="#E4F4FD">
                                <circle id="Oval-Copy" cx="38" cy="38.5" r="38"></circle>
                            </g>
                            <g id="customer-service-(1)" transform="translate(21.000000, 8.000000)" fill="#000F5C" fill-rule="nonzero" stroke="#000F5C">
                                <path d="M59.9319046,58.2421881 L59.0529983,58.2421881 L59.0529983,45.1535205 C59.0529983,41.724381 57.0267092,38.6104758 53.880928,37.2160622 L49.2489749,35.2307894 C50.3760842,34.8751255 51.3943264,34.240907 52.2228421,33.3611807 C53.4728811,32.0340327 54.1897171,30.233213 54.1897171,28.4204401 C54.1897171,26.7547376 53.6077639,25.1825506 52.506553,23.8734494 C51.1291311,22.237864 50.3705764,20.1591929 50.3705764,18.0200529 L50.3705764,13.8083356 C50.3705764,10.1195087 48.9339749,6.65216607 46.3256155,4.04509662 C43.7172561,1.43650373 40.2495608,1.98316113e-05 36.5612014,1.98316113e-05 C28.9472952,1.98316113e-05 22.7529983,6.19431466 22.7529983,13.8082184 L22.7529983,17.8828264 C22.7534671,20.0962632 21.8835842,22.2090359 20.4700686,23.9121213 C18.6910452,26.05548 18.3214358,28.9534087 19.5056155,31.4749313 C20.3845217,33.3466494 21.9698342,34.6913756 23.8676858,35.2605551 L19.2680764,37.2607106 C16.0410842,38.6186789 13.9558499,41.7582482 13.9558499,45.2591064 L13.9558499,55.6055874 C13.9558499,56.0909779 14.3492483,56.4844933 14.8347561,56.4844933 C15.3202639,56.4844933 15.7136624,56.0909779 15.7136624,55.6055874 L15.7136624,45.2591064 C15.7136624,42.4674667 17.3764358,39.9637566 19.9594827,38.8768429 L25.7248733,36.3697344 L25.7248733,41.6601623 L23.0760842,41.6601623 C22.3295999,41.6601623 21.6151077,41.9784435 21.1157717,42.5334433 C20.616553,43.0884431 20.3753811,43.8324663 20.4541311,44.5747317 L21.9029202,58.2421881 L1.68971706,58.2421881 C1.20420925,58.2421881 0.810810811,58.6357036 0.810810811,59.121094 C0.810810811,59.6064845 1.20420925,60 1.68971706,60 L59.9319046,60 C60.4174124,60 60.8108108,59.6064845 60.8108108,59.121094 C60.8108108,58.6357036 60.4174124,58.2421881 59.9319046,58.2421881 L59.9319046,58.2421881 Z M51.1617092,25.0052459 C51.9926858,25.9931362 52.4319046,27.1740343 52.4319046,28.4203229 C52.4319046,29.7898928 51.8893264,31.1513767 50.9432717,32.1559076 C49.941553,33.2193839 48.5654202,33.8050868 47.0683499,33.8050868 L45.9229592,33.8050868 L44.4183889,33.1602042 C43.1041311,32.5965325 42.2050686,31.3882126 42.0213186,29.9973146 C44.7331546,28.5371588 46.5808499,25.6714567 46.5808499,22.3816531 L46.5808499,15.7742724 C46.8380764,15.7917334 47.0950686,15.8012255 47.3513577,15.8012255 C47.774053,15.8012255 48.1951077,15.7772021 48.6128811,15.7298584 L48.6128811,18.0199358 C48.6127639,20.5727474 49.5181546,23.053606 51.1617092,25.0052459 L51.1617092,25.0052459 Z M36.7748342,38.8803585 C33.6305764,38.9360226 30.5099905,38.5375852 27.4826858,37.6979371 L27.4826858,35.6053206 L27.7368655,35.4948128 C27.7388577,35.4939925 27.7408499,35.493055 27.7429592,35.4922347 L29.310928,34.810438 C31.0563186,34.0516492 32.2897171,32.4975091 32.6636624,30.6813378 C33.4290139,30.9038768 34.2367874,31.0255174 35.0730374,31.0255174 L37.9369827,31.0255174 C38.7763967,31.0255174 39.5872171,30.9029393 40.3551467,30.6787597 C40.7413967,32.4866107 41.9794827,34.0268055 43.7256936,34.7758677 L45.3991311,35.493055 C45.4001858,35.4935237 45.4012405,35.4939925 45.4022952,35.494344 L45.5262796,35.54743 L45.5262796,37.5252027 C42.6817874,38.3727025 39.7410842,38.8285617 36.7748342,38.8803585 L36.7748342,38.8803585 Z M45.5260452,39.3552021 L45.5260452,41.6602795 L27.4826858,41.6602795 L27.4826858,39.5180927 C30.3319827,40.2651628 33.2574514,40.6432095 36.2027249,40.6432095 C36.4035842,40.6432095 36.6045608,40.6414517 36.8055374,40.6379361 C39.7574905,40.5863736 42.685303,40.1550066 45.5260452,39.3552021 L45.5260452,39.3552021 Z M48.6127639,13.9575152 C46.1917874,14.2845854 43.4628421,13.63607 41.5826858,12.1793127 C41.1991311,11.8821253 40.6470608,11.951969 40.3496389,12.3357579 C40.0523342,12.7194297 40.1224124,13.2714998 40.5060842,13.5688044 C41.7352639,14.5210697 43.217803,15.1918507 44.8230374,15.5300538 L44.8230374,20.314935 C44.4006936,21.2775128 43.9305374,22.0780203 42.8705764,22.9524732 C42.4243264,23.3206762 41.9358889,23.6264183 41.4127639,23.8689963 C40.9856155,23.0354419 40.1180764,22.4633327 39.1189358,22.4633327 L37.0592483,22.4633327 C35.6385842,22.4633327 34.4828811,23.6191526 34.4828811,25.0396991 C34.4828811,26.4602455 35.6385842,27.6160654 37.0592483,27.6160654 L39.1189358,27.6160654 C40.3144827,27.6160654 41.3222952,26.7973938 41.6116311,25.6913785 C42.7873733,25.2433709 44.7044436,23.6451683 44.7049124,23.6445823 C44.1097171,26.8399328 41.3023733,29.2672367 37.9370999,29.2672367 L35.0729202,29.2672367 C31.2760452,29.2672367 28.1869827,26.1782924 28.1869827,22.3813015 L28.1869827,15.5874756 C31.1720999,15.1195461 33.9922171,14.1093902 36.5785452,12.579625 C40.5165139,10.2502899 43.0424905,7.20646276 44.5668655,4.80165887 C47.1751077,7.12466591 48.6588186,10.4550164 48.6127639,13.9575152 L48.6127639,13.9575152 Z M39.9372561,25.04216 C39.9359671,25.4925114 39.5694046,25.8584878 39.1188186,25.8584878 L37.0591311,25.8584878 C36.6077249,25.8584878 36.2405764,25.4912223 36.2405764,25.0399334 C36.2405764,24.5886445 36.6078421,24.221379 37.0591311,24.221379 L39.1188186,24.221379 C39.5692874,24.221379 39.9357327,24.5871211 39.9372561,25.0372381 L39.9372561,25.04216 Z M24.5106936,13.8082184 C24.5106936,7.16357215 29.916553,1.75783175 36.5612014,1.75783175 C38.9442092,1.75783175 41.2213967,2.44572215 43.1672952,3.72634672 C41.7644436,5.97505692 39.4032327,8.86677471 35.6835842,11.0670865 C33.1318264,12.576461 30.332803,13.5400935 27.3639749,13.9312652 L27.3091311,13.9312652 C27.3087796,13.9312652 27.308428,13.9312652 27.3079592,13.9312652 C27.3074905,13.9312652 27.3072561,13.9312652 27.3067874,13.9312652 L24.5106936,13.9312652 L24.5106936,13.8082184 L24.5106936,13.8082184 Z M21.096553,30.7277441 C20.2053421,28.8295416 20.4835452,26.648097 21.8215921,25.0360662 C23.5005374,23.0132935 24.5126858,20.5139193 24.5108108,17.8828264 L24.5108108,15.6890771 L26.4291702,15.6890771 L26.4291702,22.3816531 C26.4291702,25.6733317 28.2792092,28.5404401 30.9935061,29.9997755 C30.8237014,31.4012204 29.9273342,32.6254778 28.6099124,33.1982901 L27.2144436,33.8050868 L25.9404983,33.8050868 C23.8440139,33.8050868 21.9879983,32.6259465 21.096553,30.7277441 L21.096553,30.7277441 Z M51.6926858,44.3895755 L50.2242092,58.2421881 L23.6705764,58.2421881 L22.2020999,44.3895755 C22.1754983,44.1384427 22.2537796,43.8968022 22.4226467,43.7091851 C22.5915139,43.5214508 22.8236624,43.4180914 23.0760842,43.4180914 L50.8187014,43.4180914 C51.0711233,43.4180914 51.3032717,43.5214508 51.4721389,43.7091851 C51.6410061,43.8968022 51.7192874,44.1384427 51.6926858,44.3895755 Z M57.2951858,58.2421881 L51.9918655,58.2421881 L53.4406546,44.574966 C53.5194046,43.8325835 53.2781155,43.0885603 52.7790139,42.5335605 C52.279678,41.9785606 51.565303,41.6602795 50.8187014,41.6602795 L47.2838577,41.6602795 L47.2838577,36.3009453 L53.1785061,38.8273898 C55.6792874,39.9359832 57.2951858,42.4190683 57.2951858,45.1535205 L57.2951858,58.2421881 Z M36.9473342,47.4902385 C35.1057327,47.4902385 33.6074905,48.9884802 33.6074905,50.8300812 C33.6074905,52.6716821 35.1057327,54.1699238 36.9473342,54.1699238 C38.7889358,54.1699238 40.287178,52.6716821 40.287178,50.8300812 C40.287178,48.9884802 38.7889358,47.4902385 36.9473342,47.4902385 Z M36.9473342,52.4121119 C36.0749905,52.4121119 35.365303,51.7024246 35.365303,50.8300812 C35.365303,49.9577377 36.0749905,49.2480504 36.9473342,49.2480504 C37.819678,49.2480504 38.5293655,49.9577377 38.5293655,50.8300812 C38.5293655,51.7024246 37.8197952,52.4121119 36.9473342,52.4121119 Z" id="Shape"></path>
                            </g>
                        </g>
                    </g>
                </g>
            </g>
        </g>
    </g>
</svg>