<svg xmlns="http://www.w3.org/2000/svg" width="98" height="77" viewBox="0 0 98 77">
    <g fill="none" fill-rule="evenodd">
        <g>
            <g>
                <g>
                    <g fill="#E4F4FD" transform="translate(-690 -1947) translate(-56 1927) translate(746 20)">
                        <circle cx="38" cy="38.5" r="38"/>
                    </g>
                    <g fill-rule="nonzero" transform="translate(-690 -1947) translate(-56 1927) translate(746 20) translate(32.316 8)">
                        <path fill="#324F8C" d="M41.897 62.223c-.61-2.303-2.704-4.004-5.187-4.004-2.96 0-5.368 2.418-5.368 5.39 0 2.973 2.408 5.391 5.368 5.391 2.508 0 4.618-1.736 5.205-4.073 6.736-.448 12.37-5.937 13.865-12.548 2.799-.649 5.269-2.57 6.505-5.41l1.613-3.705c2.074-4.767-.099-10.34-4.844-12.422l-2.885-1.267v-1.14c0-5.673-2.006-11.555-5.3-15.714l2.036-1.636c.604-.485.675-1.38.157-1.956-1.1-1.221-2.315-2.351-3.61-3.358-.585-.456-1.428-.348-1.882.24-.454.589-.347 1.435.239 1.89.795.619 1.556 1.288 2.274 2l-4.228 3.397c-3.616-3.37-8.247-5.212-13.17-5.212-4.924 0-9.556 1.842-13.171 5.213l-4.229-3.397c4.644-4.597 10.907-7.207 17.4-7.207 1.598 0 3.198.156 4.754.462.728.143 1.433-.333 1.576-1.063.142-.73-.332-1.438-1.06-1.582C36.23.172 34.457 0 32.686 0c-7.723 0-15.15 3.327-20.378 9.129-.52.576-.447 1.472.156 1.957L14.5 12.72c-3.293 4.16-5.3 10.04-5.3 15.715v1.14l-2.884 1.266C1.569 32.925-.604 38.498 1.47 43.265l1.613 3.704c2.078 4.774 7.61 6.954 12.37 4.865l3.69-1.62c.68-.298.989-1.093.692-1.775l-7.952-18.264v-1.74c0-5.087 1.784-10.34 4.711-14.03l2.174 1.746c.542.436 1.328.385 1.81-.122 3.215-3.384 7.515-5.248 12.106-5.248s8.891 1.864 12.107 5.249c.48.505 1.266.558 1.81.122l2.173-1.747c2.927 3.69 4.711 8.943 4.711 14.03v1.74L45.534 48.44c-.297.682.012 1.477.692 1.775l3.689 1.62c.992.435 2.018.681 3.041.76-1.517 5.235-6.044 9.215-11.059 9.629zm-5.187 4.082c-1.48 0-2.684-1.21-2.684-2.696 0-1.486 1.204-2.695 2.684-2.695 1.48 0 2.684 1.21 2.684 2.695 0 1.487-1.204 2.696-2.684 2.696zm-19.872-18.02l-2.46 1.08c-3.397 1.49-7.35-.063-8.835-3.475L3.93 42.185C2.448 38.78 4 34.8 7.39 33.312l2.46-1.08 6.988 16.052zm34.152 1.08l-2.46-1.08 6.99-16.053 2.459 1.08c3.39 1.487 4.941 5.468 3.46 8.873l-1.613 3.705c-1.482 3.404-5.446 4.962-8.836 3.474z"/>
                        <circle cx="44.184" cy="4.5" r="1.5" fill="#000"/>
                    </g>
                </g>
            </g>
        </g>
    </g>
</svg>
