<?xml version="1.0" encoding="UTF-8"?>
<svg width="79px" height="77px" viewBox="0 0 79 77" version="1.1" xmlns="http://www.w3.org/2000/svg" xmlns:xlink="http://www.w3.org/1999/xlink">
    <title>DE9E3EB4-69C9-41F8-ACFC-26B7A95784CB</title>
    <g id="Page-1" stroke="none" stroke-width="1" fill="none" fill-rule="evenodd">
        <g id="home" transform="translate(-279.000000, -1741.000000)">
            <g id="section-3" transform="translate(0.000000, 1599.000000)">
                <g id="Group-20" transform="translate(136.000000, 123.000000)">
                    <g id="1">
                        <g id="icon-1" transform="translate(143.000000, 19.000000)">
                            <g id="Group-6" fill="#E4F4FD">
                                <circle id="Oval-Copy" cx="38" cy="38.5" r="38"></circle>
                            </g>
                            <g id="Group-11" transform="translate(22.000000, 11.000000)" fill="#000F5C">
                                <path d="M28.5,3.35293165 C14.6339692,3.35293165 3.35293165,14.6330789 3.35293165,28.5 C3.35293165,42.3669211 14.6339692,53.6470683 28.5,53.6470683 C42.3660308,53.6470683 53.6470683,42.3669211 53.6470683,28.5 C53.6470683,14.6330789 42.3660308,3.35293165 28.5,3.35293165 M28.5,57 C12.784701,57 0,44.215299 0,28.5 C0,12.784701 12.784701,0 28.5,0 C44.215299,0 57,12.784701 57,28.5 C57,44.215299 44.215299,57 28.5,57" id="Fill-1"></path>
                                <path d="M11.6509776,19 C11.342757,19 11.0313456,18.9125881 10.7538354,18.727898 C9.98822933,18.2215289 9.76966708,17.1757667 10.2657396,16.3924031 C13.213618,11.7427772 17.7128895,8.42585592 22.9358095,7.0536039 C23.8256132,6.82104921 24.7202826,7.36696562 24.9477788,8.26913429 C25.1744773,9.17301531 24.642031,10.0933676 23.7586885,10.3260038 C19.3408593,11.4871464 15.5338079,14.2927246 13.0394063,18.2297645 C12.7231292,18.727898 12.1922781,19 11.6509776,19" id="Fill-3"></path>
                                <path d="M8.58749963,27 C8.50853095,27 8.42887359,26.9933647 8.34913972,26.9817326 C7.48316247,26.8409176 6.88722443,25.9776784 7.01799717,25.0497249 C7.20455302,23.7257856 7.50711324,22.41012 7.91733715,21.1425394 C8.20359861,20.2577561 9.10293859,19.7871441 9.93333401,20.0936768 C10.7605921,20.4002913 11.1986693,21.3678925 10.9123314,22.2527578 C10.5656191,23.3248029 10.3101952,24.4366596 10.1523344,25.5567899 C10.0339579,26.3968466 9.35828595,27 8.58749963,27" id="Fill-5"></path>
                                <path d="M39.2856611,45 C38.3389798,45 37.5712394,44.254498 37.5712394,43.3333423 L37.5712394,38.3332886 C37.5712394,34.9218423 32.4566942,33.3333959 29.0003724,33.3333959 C25.543223,33.3333959 20.4286778,34.9218423 20.4286778,38.3332886 L20.4286778,43.3333423 C20.4286778,44.254498 19.6611029,45 18.7143389,45 C17.7676577,45 17,44.254498 17,43.3333423 L17,38.3332886 C17,32.9198897 23.1826446,30 29.0003724,30 C34.8173554,30 41,32.9198897 41,38.3332886 L41,43.3333423 C41,44.254498 40.2323423,45 39.2856611,45" id="Fill-7"></path>
                                <path d="M28.5,18.4545303 C25.496746,18.4545303 23.4,20.483752 23.4,23.3884061 L23.4,25.6115939 C23.4,28.5161646 25.496746,30.5453863 28.5,30.5453863 C31.503254,30.5453863 33.6000821,28.5161646 33.6000821,25.6115939 L33.6000821,23.3884061 C33.6000821,20.483752 31.503254,18.4545303 28.5,18.4545303 M28.5,34 C23.6540192,34 20,30.3936158 20,25.6115939 L20,23.3884061 C20,18.6063008 23.6540192,15 28.5,15 C33.3459808,15 37,18.6063008 37,23.3884061 L37,25.6115939 C37,30.3936158 33.3459808,34 28.5,34" id="Fill-9"></path>
                            </g>
                        </g>
                    </g>
                </g>
            </g>
        </g>
    </g>
</svg>