<?xml version="1.0" encoding="UTF-8"?>
<svg width="35px" height="38px" viewBox="0 0 35 38" version="1.1" xmlns="http://www.w3.org/2000/svg" xmlns:xlink="http://www.w3.org/1999/xlink">
    <title>F4F8C807-4F2C-4515-8987-156034686A2C</title>
    <defs>
        <filter id="filter-1">
            <feColorMatrix in="SourceGraphic" type="matrix" values="0 0 0 0 1.000000 0 0 0 0 1.000000 0 0 0 0 1.000000 0 0 0 1.000000 0"></feColorMatrix>
        </filter>
    </defs>
    <g id="Page-1" stroke="none" stroke-width="1" fill="none" fill-rule="evenodd">
        <g id="home" transform="translate(-235.000000, -2558.000000)">
            <g id="footer/1" transform="translate(-9.000000, 2319.000000)">
                <g id="redes" transform="translate(0.000000, 0.873710)">
                    <g id="social-media" transform="translate(92.000000, 239.126290)">
                        <g filter="url(#filter-1)">
                            <g transform="translate(0.006250, 0.337190)">
                                <g id="linkedin" transform="translate(152.993750, 0.662810)" fill-rule="nonzero">
                                    <path d="M11.8939961,9 C10.6776349,9 9.88235294,9.86426382 9.88235294,11.0002191 C9.88235294,12.1110868 10.6539435,13 11.8473221,13 L11.870406,13 C13.1105599,13 13.8823529,12.1110868 13.8823529,11.0002191 C13.8591678,9.86426382 13.1105599,9 11.8939961,9 Z" id="Path" fill="#000000"></path>
                                    <polygon id="Path" fill="#000000" points="9.88235294 14 13.8823529 14 13.8823529 24 9.88235294 24"></polygon>
                                    <path d="M21.7336901,13 C19.7896648,13 18.4860896,14.8109223 18.4860896,14.8109223 L18.4860896,13.2522516 L14.8823529,13.2522516 L14.8823529,24 L18.4858844,24 L18.4858844,17.9980397 C18.4858844,17.6767241 18.5093805,17.355917 18.6045964,17.1261443 C18.8651063,16.4845302 19.4579483,15.8198269 20.4535083,15.8198269 C21.757494,15.8198269 22.2790267,16.8054389 22.2790267,18.2502913 L22.2790267,24 L25.8823529,24 L25.8823529,17.8374327 C25.8823529,14.5361918 24.1044425,13 21.7336901,13 Z" id="Path" fill="#000000"></path>
                                    <g id="instagram--copy" transform="translate(16.500000, 17.042975) scale(1, -1) rotate(-270.000000) translate(-16.500000, -17.042975) translate(0.000000, 0.542975)" fill="#2F2F2F">
                                        <path d="M32.2,16.1057851 C32.2,7.21097054 24.991567,2.82618373e-12 16.1,2.82618373e-12 C7.20838039,2.82618373e-12 1.8189894e-12,7.21097054 1.8189894e-12,16.1057851 C1.8189894e-12,25.0005471 7.20838039,32.2115702 16.1,32.2115702 C24.991567,32.2115702 32.2,25.0005471 32.2,16.1057851 Z M1.4636268,16.1057851 C1.4636268,8.01920726 8.0163268,1.46415271 16.1,1.46415271 C24.1836732,1.46415271 30.7363732,8.01920726 30.7363732,16.1057851 C30.7363732,24.192363 24.1836732,30.7474175 16.1,30.7474175 C8.0163268,30.7474175 1.4636268,24.192363 1.4636268,16.1057851 Z" id="Shape-Copy"></path>
                                    </g>
                                </g>
                            </g>
                        </g>
                    </g>
                </g>
            </g>
        </g>
    </g>
</svg>