<svg xmlns="http://www.w3.org/2000/svg" width="31" height="30" viewBox="0 0 31 30">
    <defs>
        <filter id="3t4ecwhe7a">
            <feColorMatrix in="SourceGraphic" values="0 0 0 0 0.200000 0 0 0 0 0.313725 0 0 0 0 0.552941 0 0 0 1.000000 0"/>
        </filter>
        <filter id="yjn8dh4xfb">
            <feColorMatrix in="SourceGraphic" values="0 0 0 0 1.000000 0 0 0 0 1.000000 0 0 0 0 1.000000 0 0 0 1.000000 0"/>
        </filter>
    </defs>
    <g fill="none" fill-rule="evenodd">
        <g>
            <g>
                <g filter="url(#3t4ecwhe7a)" transform="translate(-175 -1810) translate(-3 1348)">
                    <g>
                        <g filter="url(#yjn8dh4xfb)" transform="translate(87 461)">
                            <g>
                                <g fill-rule="nonzero">
                                    <path fill="#2F2F2F" d="M28.893 14.316C28.893 6.41 22.425 0 14.446 0 6.468 0 0 6.41 0 14.316c0 7.907 6.468 14.317 14.446 14.317 7.979 0 14.447-6.41 14.447-14.317zm-27.58 0c0-7.188 5.88-13.015 13.133-13.015 7.254 0 13.133 5.827 13.133 13.015 0 7.188-5.88 13.015-13.133 13.015-7.253 0-13.133-5.827-13.133-13.015z" transform="translate(.225) matrix(0 -1 -1 0 120.99 30.544)"/>
                                    <g fill="#000">
                                        <path d="M12.827 6.537L8.89 4.528c-.227-.115-.494-.111-.716.012-.222.122-.355.34-.355.58v3.983c0 .24.132.456.352.578.115.065.243.097.371.097.117 0 .235-.027.343-.081l3.937-1.975c.234-.117.38-.343.38-.591.002-.248-.142-.475-.375-.594zM8.864 8.602V5.625l2.942 1.501-2.942 1.476z" transform="translate(.225) matrix(0 -1 -1 0 120.99 30.544) rotate(-90 15.909 8.18)"/>
                                        <path d="M18.454 3.147v-.008c-.016-.142-.167-1.402-.791-2.043-.722-.754-1.54-.846-1.934-.89l-.09-.01-.031-.003C13.236.023 9.653 0 9.617 0H9.61c-.036 0-3.62.023-6.013.193l-.032.003-.084.01c-.389.044-1.199.136-1.923.917C.965 1.757.793 2.99.775 3.129l-.002.018C.768 3.206.64 4.61.64 6.019v1.317c0 1.409.127 2.813.132 2.872v.009c.016.139.167 1.376.789 2.018.679.728 1.537.825 1.999.877.073.008.136.015.178.022l.042.006c1.37.128 5.665.19 5.847.193h.011c.035 0 3.618-.023 5.99-.192l.032-.003.1-.012c.388-.04 1.193-.124 1.907-.894.595-.635.767-1.868.784-2.006l.002-.018c.006-.06.133-1.463.133-2.872V6.019c0-1.41-.127-2.813-.133-2.872zm-.92 4.189c0 1.304-.115 2.647-.126 2.77-.045.34-.226 1.12-.516 1.43-.447.482-.906.53-1.241.565l-.112.012c-2.295.163-5.743.188-5.901.189-.178-.003-4.41-.066-5.739-.187-.068-.011-.141-.02-.219-.028-.393-.044-.93-.105-1.345-.551l-.01-.01c-.284-.292-.46-1.021-.505-1.415-.008-.094-.127-1.453-.127-2.775V6.019c0-1.303.115-2.645.127-2.77.053-.4.238-1.134.515-1.43.461-.497.947-.552 1.268-.588l.086-.01c2.328-.164 5.8-.188 5.925-.19.124.001 3.595.026 5.903.19l.092.01c.33.037.83.093 1.288.572l.005.005c.284.29.46 1.033.505 1.435.008.088.128 1.45.128 2.776v1.317z" transform="translate(.225) matrix(0 -1 -1 0 120.99 30.544) rotate(-90 15.909 8.18)"/>
                                    </g>
                                </g>
                            </g>
                        </g>
                    </g>
                </g>
            </g>
        </g>
    </g>
</svg>
