<?xml version="1.0" encoding="UTF-8"?>
<svg width="35px" height="37px" viewBox="0 0 35 37" version="1.1" xmlns="http://www.w3.org/2000/svg" xmlns:xlink="http://www.w3.org/1999/xlink">
    <title>68072959-522F-4B9F-B53C-57E26B4329BF</title>
    <defs>
        <filter id="filter-1">
            <feColorMatrix in="SourceGraphic" type="matrix" values="0 0 0 0 1.000000 0 0 0 0 1.000000 0 0 0 0 1.000000 0 0 0 1.000000 0"></feColorMatrix>
        </filter>
    </defs>
    <g id="Page-1" stroke="none" stroke-width="1" fill="none" fill-rule="evenodd">
        <g id="home" transform="translate(-133.000000, -2559.000000)">
            <g id="footer/1" transform="translate(-9.000000, 2319.000000)">
                <g id="redes" transform="translate(0.000000, 0.873710)">
                    <g id="social-media" transform="translate(92.000000, 239.126290)">
                        <g filter="url(#filter-1)">
                            <g transform="translate(0.006250, 0.337190)">
                                <g id="instagram-" transform="translate(67.493750, 17.705785) scale(1, -1) rotate(-270.000000) translate(-67.493750, -17.705785) translate(50.993750, 1.205785)" fill="#2F2F2F" fill-rule="nonzero">
                                    <path d="M32.2,16.1057851 C32.2,7.21097054 24.991567,0 16.1,0 C7.20838039,0 0,7.21097054 0,16.1057851 C0,25.0005471 7.20838039,32.2115702 16.1,32.2115702 C24.991567,32.2115702 32.2,25.0005471 32.2,16.1057851 Z M1.4636268,16.1057851 C1.4636268,8.01920726 8.0163268,1.46415271 16.1,1.46415271 C24.1836732,1.46415271 30.7363732,8.01920726 30.7363732,16.1057851 C30.7363732,24.192363 24.1836732,30.7474175 16.1,30.7474175 C8.0163268,30.7474175 1.4636268,24.192363 1.4636268,16.1057851 Z" id="Shape-Copy"></path>
                                    <path d="M16.258768,24.1586777 C16.2054564,24.1586777 16.1521447,24.1586777 16.0984645,24.1584319 C14.8364276,24.1615039 13.670327,24.1294328 12.5362871,24.0603755 C11.4965868,23.9970935 10.547541,23.6376761 9.79159627,23.0210756 C9.06218461,22.4261016 8.56407676,21.6216211 8.31115347,20.6302436 C8.09102789,19.7671504 8.07935827,18.9199084 8.06818001,18.1004368 C8.0600727,17.5124668 8.05171973,16.8157501 8.05,16.1072371 C8.05171973,15.395775 8.0600727,14.6990582 8.06818001,14.1110883 C8.07935827,13.2917396 8.09102789,12.4444976 8.31115347,11.5812815 C8.56407676,10.589904 9.06218461,9.78542342 9.79159627,9.19044942 C10.547541,8.57384897 11.4965868,8.21443161 12.53641,8.15114957 C13.6704499,8.08221516 14.836796,8.05002119 16.1015355,8.05309313 C17.363941,8.05038982 18.529673,8.08221516 19.6637128,8.15114957 C20.7034131,8.21443161 21.652459,8.57384897 22.4084037,9.19044942 C23.1379382,9.78542342 23.6359232,10.589904 23.8888465,11.5812815 C24.1089721,12.4443747 24.1206417,13.2917396 24.13182,14.1110883 C24.1399273,14.6990582 24.1484031,15.395775 24.15,16.104288 L24.15,16.1072371 C24.1484031,16.8157501 24.1399273,17.5124668 24.13182,18.1004368 C24.1206417,18.9197855 24.109095,19.7670275 23.8888465,20.6302436 C23.6359232,21.6216211 23.1379382,22.4261016 22.4084037,23.0210756 C21.652459,23.6376761 20.7034131,23.9970935 19.6637128,24.0603755 C18.5777026,24.1264837 17.4620885,24.1586777 16.258768,24.1586777 Z M16.0984645,22.900164 C17.3399876,22.903113 18.4799236,22.8717792 19.5873076,22.8044422 C20.3734704,22.7566428 21.0550981,22.5014257 21.6135194,22.0459179 C22.1296844,21.6248159 22.4851774,21.04385 22.6700485,20.3191171 C22.8533227,19.600651 22.8638868,18.8292246 22.8740823,18.0832339 C22.8820668,17.499196 22.8904198,16.8073944 22.8921395,16.1057625 C22.8904198,15.4040078 22.8820668,14.712329 22.8740823,14.1282912 C22.8638868,13.3823004 22.8533227,12.610874 22.6700485,11.8922851 C22.4851774,11.1675522 22.1296844,10.5865862 21.6135194,10.1654842 C21.0550981,9.71009938 20.3734704,9.4548823 19.5873076,9.40708287 C18.4799236,9.33962301 17.3399876,9.30853495 16.1014126,9.31123824 C14.8601353,9.30828918 13.7200764,9.33962301 12.6126924,9.40708287 C11.8265296,9.4548823 11.1449019,9.71009938 10.5864806,10.1654842 C10.0703156,10.5865862 9.71482256,11.1675522 9.52995147,11.8922851 C9.34667727,12.610874 9.33611322,13.3821776 9.32591767,14.1282912 C9.31793318,14.7128205 9.30958023,15.4049908 9.30786048,16.1072371 C9.30958023,16.8064114 9.31793318,17.4987045 9.32591767,18.0832339 C9.33611322,18.8292246 9.34667727,19.600651 9.52995147,20.3191171 C9.71482256,21.04385 10.0703156,21.6248159 10.5864806,22.0459179 C11.1449019,22.5013028 11.8265296,22.7565199 12.6126924,22.8043193 C13.7200764,22.8717792 14.8603809,22.9032359 16.0984645,22.900164 Z M16.0684921,20.03785 C13.9011395,20.03785 12.137678,18.2739401 12.137678,16.1057625 C12.137678,13.9375849 13.9011395,12.1736751 16.0684921,12.1736751 C18.2359675,12.1736751 19.9993061,13.9375849 19.9993061,16.1057625 C19.9993061,18.2739401 18.2359675,20.03785 16.0684921,20.03785 Z M16.0684921,13.431943 C14.5946825,13.431943 13.3955385,14.6314755 13.3955385,16.1057625 C13.3955385,17.5800496 14.5946825,18.779582 16.0684921,18.779582 C17.5424245,18.779582 18.7414456,17.5800496 18.7414456,16.1057625 C18.7414456,14.6314755 17.5424245,13.431943 16.0684921,13.431943 L16.0684921,13.431943 Z M20.4395572,10.9154071 C19.9186015,10.9154071 19.4961619,11.3378607 19.4961619,11.8591081 C19.4961619,12.3803554 19.9186015,12.8028091 20.4395572,12.8028091 C20.9606358,12.8028091 21.3829526,12.3803554 21.3829526,11.8591081 C21.3829526,11.3378607 20.9606358,10.9154071 20.4395572,10.9154071 Z" id="Shape"></path>
                                </g>
                            </g>
                        </g>
                    </g>
                </g>
            </g>
        </g>
    </g>
</svg>