<?xml version="1.0" encoding="UTF-8"?>
<svg width="35px" height="35px" viewBox="0 0 35 35" version="1.1" xmlns="http://www.w3.org/2000/svg" xmlns:xlink="http://www.w3.org/1999/xlink">
    <title>8F6DAC7D-95DB-46A1-9DC5-1540E7F6F15A</title>
    <defs>
        <filter id="filter-1">
            <feColorMatrix in="SourceGraphic" type="matrix" values="0 0 0 0 0.101961 0 0 0 0 0.145098 0 0 0 0 0.356863 0 0 0 1.000000 0"></feColorMatrix>
        </filter>
        <filter id="filter-2">
            <feColorMatrix in="SourceGraphic" type="matrix" values="0 0 0 0 1.000000 0 0 0 0 1.000000 0 0 0 0 1.000000 0 0 0 1.000000 0"></feColorMatrix>
        </filter>
    </defs>
    <g id="Page-1" stroke="none" stroke-width="1" fill="none" fill-rule="evenodd">
        <g id="trabaja-con-nosotros" transform="translate(-1273.000000, -613.000000)">
            <g id="section-1" transform="translate(83.000000, 242.000000)">
                <g filter="url(#filter-1)" id="social-media">
                    <g transform="translate(1089.000000, 370.000000)">
                        <g filter="url(#filter-2)">
                            <g transform="translate(0.006250, 0.337190)">
                                <g id="instagram-" transform="translate(118.493750, 17.705785) scale(1, -1) rotate(-270.000000) translate(-118.493750, -17.705785) translate(101.993750, 1.205785)" fill-rule="nonzero">
                                    <path d="M32.2,16.1057851 C32.2,7.21097054 24.991567,0 16.1,0 C7.20838039,0 0,7.21097054 0,16.1057851 C0,25.0005471 7.20838039,32.2115702 16.1,32.2115702 C24.991567,32.2115702 32.2,25.0005471 32.2,16.1057851 Z M1.4636268,16.1057851 C1.4636268,8.01920726 8.0163268,1.46415271 16.1,1.46415271 C24.1836732,1.46415271 30.7363732,8.01920726 30.7363732,16.1057851 C30.7363732,24.192363 24.1836732,30.7474175 16.1,30.7474175 C8.0163268,30.7474175 1.4636268,24.192363 1.4636268,16.1057851 Z" id="Shape-Copy" fill="#2F2F2F"></path>
                                    <g id="youtube" transform="translate(16.042975, 16.500000) rotate(-90.000000) translate(-16.042975, -16.500000) translate(5.542975, 9.000000)" fill="#000000">
                                        <path d="M14.2949913,7.3539607 L9.9071314,5.09413799 C9.65483364,4.96420249 9.35662222,4.96905188 9.10932494,5.10697467 C8.86187614,5.24504008 8.71428571,5.4889366 8.71428571,5.75964751 L8.71428571,10.2404976 C8.71428571,10.5099248 8.86096694,10.7533935 9.10674894,10.8916015 C9.23509502,10.9637721 9.37738184,11 9.51997179,11 C9.65059079,11 9.78151288,10.9696199 9.9019794,10.9085745 L14.2899908,8.68768965 C14.5504712,8.55575732 14.7130631,8.30087829 14.7142857,8.02232278 C14.715336,7.74376727 14.554714,7.48774721 14.2949913,7.3539607 L14.2949913,7.3539607 Z M9.87818917,9.67682562 L9.87818917,6.32788366 L13.1576056,8.01690288 L9.87818917,9.67682562 Z" id="Shape"></path>
                                        <path d="M20.5670395,3.54028165 L20.566124,3.53121601 C20.5491869,3.37181192 20.3805786,1.95394657 19.6844779,1.2327753 C18.8798881,0.384534017 17.9677246,0.281487983 17.5290378,0.232080261 C17.4927222,0.228000716 17.4594583,0.224223377 17.4297039,0.220294916 L17.3947615,0.216668662 C14.7507387,0.0262903614 10.7576966,0.00030218784 10.7177189,0.00015109392 L10.7142094,0 L10.7106999,0.00015109392 C10.6707222,0.00030218784 6.67768014,0.0262903614 4.00985385,0.216668662 L3.97460631,0.220294916 C3.94622516,0.224072293 3.91494489,0.227547424 3.88091804,0.231475885 C3.44726658,0.281034691 2.54486866,0.384231848 1.73799005,1.26314517 C1.07500074,1.97661064 0.883351807,3.36410612 0.863668129,3.52003504 L0.861379319,3.54028165 C0.855428427,3.60661189 0.714285714,5.18569442 0.714285714,6.77097183 L0.714285714,8.25290099 C0.714285714,9.8381784 0.855428427,11.417261 0.861379319,11.4837423 L0.862447436,11.4937145 C0.879384533,11.65055 1.04784028,13.0424272 1.74073663,13.7639007 C2.4972616,14.5837362 3.45382778,14.6922217 3.96835026,14.7505439 C4.04967898,14.7597607 4.1197163,14.7676175 4.16747593,14.7759277 L4.21370972,14.7822737 C5.74033991,14.9261151 10.5268329,14.9969781 10.7297733,14.9998489 L10.7358768,15 L10.7419802,14.9998489 C10.7819579,14.9996978 14.7748474,14.9737097 17.4188702,14.7833313 L17.4538125,14.779705 C17.487229,14.7753233 17.5247654,14.7713949 17.5659638,14.7671643 C17.9971739,14.7218361 18.894689,14.6277046 19.6904288,13.7607276 C20.3534181,13.0471111 20.5452196,11.6596156 20.5647507,11.5038378 L20.5670395,11.4835912 C20.5729904,11.4171099 20.7142857,9.8381784 20.7142857,8.25290099 L20.7142857,6.77097183 C20.7142857,5.18569442 20.5729904,3.60676297 20.5670395,3.54028165 L20.5670395,3.54028165 Z M19.5421145,8.25290099 C19.5421145,9.72017406 19.412721,11.2312643 19.400514,11.3699686 C19.3507707,11.7520851 19.1485933,12.6299408 18.8255672,12.9776079 C18.3275242,13.5201861 17.8159009,13.5739756 17.4423686,13.6131089 C17.3972029,13.6177928 17.3553941,13.6223257 17.3175526,13.6270095 C14.7601991,13.8101354 10.9179127,13.8382389 10.7409121,13.8392965 C10.5423968,13.8364257 5.82594105,13.7649583 4.34584981,13.6288227 C4.27001421,13.6165841 4.18807515,13.6072162 4.10171104,13.5975462 C3.66363454,13.5478363 3.06396873,13.4798441 2.60285162,12.9776079 L2.59201795,12.9661248 C2.27463756,12.6387042 2.07825847,11.817811 2.0283626,11.3745014 C2.01905482,11.2696422 1.88630435,9.74072283 1.88630435,8.25290099 L1.88630435,6.77097183 C1.88630435,5.3053608 2.01539274,3.79593256 2.02790483,3.65435753 C2.0872611,3.20424877 2.29325316,2.37957814 2.60285162,2.04626497 C3.11615337,1.48721746 3.6573785,1.42526894 4.01534694,1.38432248 C4.04952636,1.38039405 4.08141702,1.3767678 4.11086625,1.37299046 C6.70545095,1.18895805 10.5753555,1.16161006 10.7142094,1.16055239 C10.8530634,1.16145897 14.7215946,1.18895805 17.2931387,1.37299046 C17.3247242,1.37691888 17.3592088,1.38084734 17.3962874,1.38507797 C17.7644791,1.42662877 18.3209629,1.48948384 18.8316707,2.02888916 L18.8364009,2.03387525 C19.1537813,2.36129578 19.3501604,3.19654297 19.4000562,3.64876706 C19.4089063,3.74773359 19.5421145,5.27997702 19.5421145,6.77097183 L19.5421145,8.25290099 Z" id="Shape"></path>
                                    </g>
                                </g>
                            </g>
                        </g>
                    </g>
                </g>
            </g>
        </g>
    </g>
</svg>