<svg xmlns="http://www.w3.org/2000/svg" width="35" height="37" viewBox="0 0 35 37">
    <defs>
        <filter id="2shlomh0pa">
            <feColorMatrix in="SourceGraphic" values="0 0 0 0 1.000000 0 0 0 0 1.000000 0 0 0 0 1.000000 0 0 0 1.000000 0"/>
        </filter>
    </defs>
    <g fill="none" fill-rule="evenodd">
        <g>
            <g>
                <g>
                    <g filter="url(#2shlomh0pa)" transform="translate(-184 -2405) translate(-9 2165) translate(0 .874) translate(92 239.126)">
                        <g>
                            <g fill-rule="nonzero">
                                <path fill="#2F2F2F" d="M32.2 16.106C32.2 7.21 24.992 0 16.1 0 7.208 0 0 7.211 0 16.106 0 25 7.208 32.212 16.1 32.212c8.892 0 16.1-7.211 16.1-16.106zm-30.736 0c0-8.087 6.552-14.642 14.636-14.642S30.736 8.02 30.736 16.106c0 8.086-6.552 14.641-14.636 14.641S1.464 24.192 1.464 16.106z" transform="translate(.006 .337) matrix(0 -1 -1 0 134.994 34.206)"/>
                                <g fill="#000">
                                    <path d="M14.295 7.354l-4.388-2.26c-.252-.13-.55-.125-.798.013-.247.138-.395.382-.395.653v4.48c0 .27.147.513.393.652.128.072.27.108.413.108.13 0 .262-.03.382-.091l4.388-2.221c.26-.132.423-.387.424-.666.001-.278-.16-.534-.419-.668zM9.878 9.677v-3.35l3.28 1.69-3.28 1.66z" transform="translate(.006 .337) matrix(0 -1 -1 0 134.994 34.206) rotate(-90 17.771 9.229)"/>
                                    <path d="M20.567 3.54v-.009c-.018-.16-.186-1.577-.883-2.298-.804-.848-1.716-.952-2.155-1l-.1-.013-.034-.003C14.75.027 10.758 0 10.718 0h-.007c-.04 0-4.033.026-6.701.217L3.975.22 3.88.231c-.434.05-1.336.153-2.143 1.032-.663.714-.855 2.101-.874 2.257l-.003.02C.855 3.607.714 5.186.714 6.771v1.482c0 1.585.141 3.164.147 3.23l.001.01c.017.158.186 1.55.879 2.27.756.82 1.713.93 2.227.988.082.009.152.017.2.025l.046.006c1.526.144 6.313.215 6.516.218h.012c.04 0 4.033-.026 6.677-.217l.035-.003c.033-.005.07-.009.112-.013.431-.045 1.329-.14 2.124-1.006.663-.714.855-2.101.875-2.257l.002-.02c.006-.067.147-1.646.147-3.231V6.77c0-1.585-.141-3.164-.147-3.23zm-1.025 4.713c0 1.467-.13 2.978-.141 3.117-.05.382-.252 1.26-.575 1.608-.498.542-1.01.596-1.384.635l-.124.014c-2.558.183-6.4.211-6.577.212-.199-.003-4.915-.074-6.395-.21-.076-.012-.158-.022-.244-.031-.438-.05-1.038-.118-1.5-.62l-.01-.012c-.317-.327-.514-1.148-.564-1.591-.009-.105-.142-1.634-.142-3.122V6.77c0-1.466.13-2.975.142-3.117.06-.45.265-1.274.575-1.608.513-.559 1.054-.62 1.412-.662l.096-.011c2.594-.184 6.464-.211 6.603-.212.14 0 4.008.028 6.58.212l.102.012c.368.042.925.104 1.436.644l.004.005c.318.327.514 1.163.564 1.615.009.099.142 1.631.142 3.122v1.482z" transform="translate(.006 .337) matrix(0 -1 -1 0 134.994 34.206) rotate(-90 17.771 9.229)"/>
                                </g>
                            </g>
                        </g>
                    </g>
                </g>
            </g>
        </g>
    </g>
</svg>
