<svg xmlns="http://www.w3.org/2000/svg" width="17" height="21" viewBox="0 0 17 21">
    <g fill="none" fill-rule="evenodd">
        <g fill="#33508D" fill-rule="nonzero">
            <g>
                <g>
                    <path d="M8.5 21c-.54 0-1.023-.238-1.293-.636l-.008-.013-6.13-9.531C-.395 8.545-.353 5.844 1.18 3.596 2.68 1.396 5.346.053 8.31.002c.126-.003.254-.003.38 0 2.964.051 5.629 1.395 7.13 3.594 1.533 2.248 1.575 4.949.111 7.224l-6.13 9.531-.008.013c-.27.398-.753.636-1.293.636zm0-19.687h-.159c-2.419.043-4.596 1.142-5.823 2.941-1.261 1.848-1.296 4.067-.094 5.937L8.5 19.637l6.076-9.446c1.202-1.87 1.167-4.089-.094-5.937-1.227-1.799-3.404-2.898-5.823-2.94L8.5 1.313z" transform="translate(-1175 -534) translate(83 242) translate(1092 292)"/>
                    <path d="M8.5 11C6.57 11 5 9.654 5 8s1.57-3 3.5-3S12 6.346 12 8s-1.57 3-3.5 3z" transform="translate(-1175 -534) translate(83 242) translate(1092 292)"/>
                </g>
            </g>
        </g>
    </g>
</svg>
