<svg xmlns="http://www.w3.org/2000/svg" width="20" height="21" viewBox="0 0 20 21">
    <g fill="none" fill-rule="evenodd">
        <g fill-rule="nonzero">
            <g>
                <g>
                    <path fill="#33508D" stroke="#33508D" stroke-width=".5" d="M17.298 10.62l-3.626-4.483c.514-.213.865-.638.865-1.126 0-.535-.421-.993-1.015-1.18L14.62.8c.048-.13.001-.27-.12-.367-.731-.576-1.92-.576-2.65 0-.176.138-.408.214-.655.214-.247 0-.48-.076-.656-.214l-.002-.002C9.81-.143 8.622-.144 7.891.428L7.877.44c-.36.282-.946.282-1.306-.002L6.568.434c-.731-.576-1.92-.576-2.65 0-.123.097-.169.237-.121.368l1.1 3.027c-.595.188-1.017.646-1.017 1.182 0 .489.351.913.865 1.126L1.12 10.62c-1.403 1.735-1.492 3.847-.238 5.65 1.254 1.804 3.56 2.88 6.168 2.88h4.318c2.609 0 4.915-1.076 6.169-2.88 1.254-1.803 1.165-3.915-.238-5.65zM5.897.962L5.9.966c.728.574 1.915.576 2.646.004L8.56.959c.36-.283.947-.282 1.307.003l.003.001c.73.577 1.92.577 2.65 0 .297-.234.748-.275 1.1-.123l-1.052 2.9H5.852L4.797.84c.352-.152.802-.111 1.1.123zM16.704 15.91c-1.085 1.56-3.08 2.491-5.337 2.491H7.05c-2.257 0-4.252-.931-5.337-2.491s-1.008-3.388.206-4.888l3.834-4.74h1.32c.263 0 .475-.167.475-.373 0-.207-.212-.374-.474-.374H5.493c-.367 0-.664-.235-.664-.524 0-.289.297-.524.664-.524h7.431c.366 0 .664.235.664.524 0 .289-.298.524-.664.524h-1.581c-.262 0-.474.167-.474.374 0 .206.212.374.474.374h1.321l3.834 4.739c1.214 1.5 1.29 3.327.206 4.888z" transform="translate(-982 -533) translate(83 242) translate(900 292)"/>
                    <path fill="#33508D" stroke="#33508D" stroke-width=".5" d="M9.915 12.535l-.342-.11v-1.809c.303.08.506.209.515.215.197.13.477.096.626-.079.15-.176.11-.426-.087-.559-.026-.018-.443-.293-1.054-.397v-.397c0-.22-.201-.399-.449-.399-.247 0-.448.179-.448.399v.394c-.076.013-.153.03-.23.05-.631.169-1.103.65-1.231 1.253-.117.552.081 1.084.518 1.389.237.165.533.316.943.477v2.313c-.353-.02-.589-.091-.982-.32-.207-.12-.485-.07-.62.115-.136.185-.078.432.129.552.574.335.962.43 1.473.452v.412c0 .22.2.4.448.4s.449-.18.449-.4v-.454c.96-.187 1.52-.9 1.647-1.567.164-.871-.348-1.63-1.305-1.93zm-1.629-.678c-.172-.12-.245-.355-.19-.613.05-.237.23-.523.58-.628v1.46c-.147-.07-.28-.142-.39-.219zm2.05 2.476c-.065.342-.324.704-.763.864v-1.924l.043.014c.803.253.754.865.72 1.046h0z" transform="translate(-982 -533) translate(83 242) translate(900 292)"/>
                    <path fill="#2E3190" d="M9.208 7.885c.187 0 .37-.06.501-.165.132-.105.208-.25.208-.398 0-.148-.076-.294-.208-.398-.132-.105-.314-.165-.5-.165-.187 0-.37.06-.501.165-.132.104-.208.25-.208.398 0 .148.076.293.208.398.131.105.314.165.5.165z" transform="translate(-982 -533) translate(83 242) translate(900 292)"/>
                </g>
            </g>
        </g>
    </g>
</svg>
