<svg xmlns="http://www.w3.org/2000/svg" xmlns:xlink="http://www.w3.org/1999/xlink" width="76" height="77" viewBox="0 0 76 77">
    <defs>
        <path id="htpftj755a" d="M0.577 0L38.577 0 38.577 64 0.577 64z"/>
    </defs>
    <g fill="none" fill-rule="evenodd">
        <g>
            <g>
                <g>
                    <g>
                        <g>
                            <g fill="#E4F4FD">
                                <g transform="translate(-89 -983) translate(89 676) translate(0 168) translate(0 139)">
                                    <circle cx="38" cy="38.5" r="38"/>
                                </g>
                            </g>
                            <g transform="translate(-89 -983) translate(89 676) translate(0 168) translate(0 139) translate(34 12)">
                                <mask id="699w1bkb4b" fill="#fff">
                                    <use xlink:href="#htpftj755a"/>
                                </mask>
                                <path fill="#000F5C" stroke="#01185B" stroke-width=".5" d="M34.795 50.149c0 .901-.585 1.668-1.396 1.948V41.723h-1.351v20.823c-1.192-.243-2.157-1.175-2.407-2.403L27.495 49.6l-3.34 12.97c-.848-.125-1.62-.56-2.17-1.235-.66-.81-.915-1.86-.7-2.88l3.48-16.513-1.322-.276-2.201 10.444c-.26-.075-.493-.223-.67-.433-.263-.311-.373-.719-.302-1.118l1.369-7.795c.372-2.117 1.852-3.795 3.785-4.489-.826.832-1.06 2.017-.61 3.099.452 1.087 1.467 1.762 2.648 1.762.18 0 .353-.072.48-.2l4.549-4.566.913.875c.897.874 1.39 2.045 1.39 3.295v7.609zM17.654 61.608l-.004-.154c1.532-1.62 2.313-3.736 2.198-5.962l-.147-2.775c.351.35.787.593 1.263.711l-1.002 4.751c-.299 1.419.056 2.878.973 4.004.128.157.265.303.409.441h-2.645c-.573 0-1.031-.446-1.045-1.016h0zm-6.015-22.15c-.435-.02-.802.305-.84.735l-1.51 17.5c-.225 2.6-2.217 4.614-4.753 4.92V26.531c1.089.598 2.339.939 3.667.939h7.2c.573 0 1.114-.133 1.593-.374l1.502 28.466c.097 1.865-.561 3.638-1.852 4.992-1.135 1.19-2.618 1.91-4.234 2.067V40.262c0-.432-.34-.785-.773-.804h0zM1.93 19.873c0-4.458 3.64-8.085 8.116-8.085h1.385c2.994 2.893 6.798 4.662 10.895 5.104-1.93.989-3.558 2.531-4.643 4.469-.389-.305-.877-.478-1.375-.478H9.076c-1.067 0-1.935-.864-1.935-1.927v-.673H5.79v.673c0 1.805 1.474 3.273 3.286 3.273h7.231c.23 0 .454.093.615.255.744.744.725 1.689.46 2.324-.266.636-.925 1.315-1.98 1.315H8.204c-3.46 0-6.275-2.803-6.275-6.25h0zM7.14 5.894c0-2.508 2.048-4.548 4.566-4.548s4.566 2.04 4.566 4.548-2.048 4.548-4.566 4.548-4.566-2.04-4.566-4.548h0zm15.71 5.221c0-2.507 2.05-4.548 4.567-4.548 2.518 0 4.566 2.04 4.566 4.548 0 2.49-2.019 4.516-4.511 4.546l-.055-.002h-.083c-2.479-.044-4.483-2.063-4.483-4.544h0zm-4.3 19.804l1.903-2.678-1.48 10.7-.423-8.022zm6.09 1.924c0-2.043 1.669-3.705 3.72-3.705 2.05 0 3.72 1.662 3.72 3.705s-1.67 3.705-3.72 3.705c-2.051 0-3.72-1.662-3.72-3.705h0zm12.585-6.069c0 3.18-1.239 6.175-3.487 8.432l-1.27 1.275-.008-.007-.47.487-4.79 4.808c-.595-.096-.974-.515-1.138-.91-.188-.45-.2-1.119.328-1.644l1.292-1.287h.41v-.041c.09.005.178.007.268.007 2.796 0 5.07-2.266 5.07-5.051 0-.057-.002-.113-.004-.17h.005v-7.632H32.08v4.374c-.926-.997-2.25-1.623-3.72-1.623-2.795 0-5.07 2.266-5.07 5.05 0 1.655.802 3.125 2.038 4.047-2.555.767-4.54 2.906-5.02 5.643l-.88 5.008-.087-1.655.037.005 2.619-18.944c.062-.449-.19-.88-.614-1.046-.424-.167-.903-.025-1.167.345l-1.78 2.505-.147-2.796c.131-.194.246-.404.34-.629.388-.929.36-1.922-.041-2.783 1.626-3.37 5.06-5.533 8.83-5.533l.082-.002c5.37.045 9.726 4.408 9.726 9.767h0zm-3.783 10.64l1.255-1.26c2.501-2.511 3.879-5.842 3.879-9.38 0-5.044-3.392-9.31-8.022-10.665 1.668-1.043 2.78-2.891 2.78-4.994 0-3.25-2.654-5.894-5.917-5.894S21.5 7.865 21.5 11.115c0 1.817.83 3.445 2.131 4.527-3.854-.159-7.48-1.576-10.405-4.052 2.529-.67 4.397-2.97 4.397-5.696C17.624 2.644 14.97 0 11.707 0S5.79 2.644 5.79 5.894c0 1.937.942 3.657 2.394 4.733-4.333.863-7.607 4.68-7.607 9.246 0 2.276 1.011 4.32 2.608 5.713V64h.675c3.558 0 6.47-2.662 6.775-6.192l.426-4.933V64h.676c1.732 0 3.37-.533 4.74-1.52.353.88 1.21 1.49 2.222 1.49h6.236v-.016h.259l2.147-8.337.976 4.794c.42 2.063 2.243 3.544 4.35 3.544h.067l.665-.01V53.49c1.565-.313 2.747-1.692 2.747-3.341v-7.61c0-1.614-.638-3.126-1.801-4.26l-.902-.865z" mask="url(#699w1bkb4b)"/>
                            </g>
                        </g>
                    </g>
                </g>
            </g>
        </g>
    </g>
</svg>
