<svg xmlns="http://www.w3.org/2000/svg" width="50" height="49" viewBox="0 0 50 49">
    <g fill="none" fill-rule="evenodd">
        <g fill="#33508D" fill-rule="nonzero">
            <g>
                <path d="M40.556 32.166c-.362-.242-.855-.217-1.192.06-.328.269-.45.728-.301 1.125.143.38.514.642.921.649.406.006.787-.244.942-.619.18-.436.022-.952-.37-1.215z" transform="translate(-1119 -917) translate(1119 917)"/>
                <path d="M40.316 36.38c-.506-.153-1.039.138-1.19.649-1.74 5.913-7.218 10.042-13.317 10.042-7.663 0-13.897-6.312-13.897-14.071 0-7.759 6.234-14.07 13.897-14.07 6.042 0 11.355 3.906 13.22 9.72l.069.224c.155.509.69.794 1.195.638.505-.157.788-.697.633-1.206l-.078-.25c-1.023-3.188-2.978-5.932-5.655-7.933C32.46 18.08 29.215 17 25.809 17 17.092 17 10 24.178 10 33s7.092 16 15.809 16c3.473 0 6.77-1.119 9.532-3.235 2.671-2.046 4.667-4.954 5.62-8.187.15-.51-.139-1.047-.645-1.199z" transform="translate(-1119 -917) translate(1119 917)"/>
                <path d="M24.197 40h2.606c1.269 0 2.3-1.028 2.3-2.292v-1.61H30.7c1.268 0 2.3-1.029 2.3-2.292v-2.612c0-1.263-1.032-2.291-2.3-2.291h-1.597v-1.611c0-1.264-1.031-2.292-2.3-2.292h-2.606c-1.269 0-2.3 1.028-2.3 2.292v1.61H20.3c-1.268 0-2.3 1.029-2.3 2.292v2.612c0 1.263 1.032 2.291 2.3 2.291h1.597v1.612c0 1.263 1.031 2.291 2.3 2.291zM20.3 34.155c-.186 0-.337-.156-.337-.35v-2.61c0-.193.15-.35.337-.35h2.578c.542 0 .981-.435.981-.971v-2.582c0-.193.151-.35.338-.35h2.606c.186 0 .338.157.338.35v2.582c0 .536.44.97.981.97H30.7c.186 0 .337.158.337.35v2.612c0 .192-.15.35-.337.35h-2.578c-.542 0-.981.434-.981.97v2.583c0 .192-.151.349-.338.349h-2.606c-.187 0-.338-.157-.338-.35v-2.582c0-.536-.44-.97-.981-.97H20.3zM45.733 13.073c-1.227-.222-2.521.066-3.644.812-1.498.995-2.573 2.689-2.949 4.647-.679 3.543 1.172 6.86 4.127 7.395.27.049.543.073.817.073.97 0 1.95-.303 2.827-.885 1.498-.995 2.573-2.689 2.949-4.647.679-3.543-1.172-6.86-4.127-7.395zm2.16 7.042c-.275 1.435-1.066 2.708-2.114 3.404-.482.32-1.246.668-2.145.505-1.872-.338-3.005-2.643-2.527-5.139.275-1.435 1.066-2.708 2.114-3.404.398-.264.986-.546 1.685-.546.148 0 .302.012.46.04 1.872.34 3.005 2.645 2.527 5.14zM10.86 18.532c-.376-1.958-1.45-3.652-2.95-4.647-1.122-.746-2.416-1.034-3.643-.812-2.955.534-4.806 3.852-4.127 7.395.376 1.958 1.45 3.652 2.95 4.647.875.582 1.855.885 2.826.885.274 0 .547-.024.817-.073 2.955-.534 4.806-3.852 4.127-7.395zm-4.494 5.492c-.9.163-1.663-.185-2.145-.505-1.048-.696-1.839-1.969-2.114-3.404-.478-2.495.655-4.8 2.527-5.14.158-.028.312-.04.46-.04.699 0 1.287.282 1.685.546 1.048.696 1.839 1.969 2.114 3.404.478 2.495-.655 4.8-2.527 5.14zM33.5 16c1.786 0 3.448-.866 4.68-2.437C39.354 12.066 40 10.09 40 8c0-2.09-.646-4.066-1.82-5.563C36.948.866 35.286 0 33.5 0c-1.786 0-3.448.866-4.68 2.437C27.646 3.934 27 5.91 27 8c0 2.09.646 4.066 1.82 5.563C30.052 15.134 31.714 16 33.5 16zm0-14.024c2.48 0 4.496 2.703 4.496 6.024 0 3.322-2.017 6.024-4.496 6.024-2.48 0-4.497-2.703-4.497-6.024 0-3.322 2.018-6.024 4.497-6.024zM16.5 16c1.786 0 3.448-.866 4.68-2.437C22.354 12.066 23 10.09 23 8c0-2.09-.646-4.066-1.82-5.563C19.948.866 18.286 0 16.5 0c-1.786 0-3.448.866-4.68 2.437C10.646 3.934 10 5.91 10 8c0 2.09.646 4.066 1.82 5.563C13.052 15.134 14.714 16 16.5 16zm0-14.024c2.48 0 4.496 2.703 4.496 6.024 0 3.322-2.017 6.024-4.496 6.024-2.48 0-4.496-2.703-4.496-6.024 0-3.322 2.017-6.024 4.496-6.024z" transform="translate(-1119 -917) translate(1119 917)"/>
            </g>
        </g>
    </g>
</svg>
