<?xml version="1.0" encoding="UTF-8"?>
<svg fill="" width="24px" height="27px" viewBox="0 0 24 27" version="1.1" xmlns="http://www.w3.org/2000/svg" xmlns:xlink="http://www.w3.org/1999/xlink">
    <title>C2257769-E568-4C3C-848C-5ECF10159A79</title>
    <defs>
        <filter id="filter-1">
            <feColorMatrix in="SourceGraphic" type="matrix" values="0 0 0 0 1.000000 0 0 0 0 1.000000 0 0 0 0 1.000000 0 0 0 1.000000 0"></feColorMatrix>
        </filter>
    </defs>
    <g id="Page-1" stroke="none" stroke-width="1" fill="#000" fill-rule="evenodd">
        <g id="home" transform="translate(-1115.000000, -38.000000)">
            <g id="subheader">
                <g id="button-3" transform="translate(1089.000000, 23.000000)">
                    <g filter="url(#filter-1)" id="icon">
                        <g transform="translate(26.000000, 15.000000)">
                            <g id="info" fill="#000">
                                <path d="M4.02882604,2.93695652 C3.44623099,2.93695652 3.07685372,3.46069696 3.12189973,3.97290126 C4.01180866,14.3288878 11.1611107,22.5679939 20.1472889,23.5935561 C20.5917429,23.6454687 21.0462071,23.2197854 21.0462071,22.5483825 L21.0462071,18.4426728 C21.0462071,17.946619 20.7709259,17.5059388 20.3615077,17.3490474 L16.8979702,16.0177776 C16.5386031,15.8804976 16.1421983,15.9877837 15.8739243,16.296952 L15.3193578,16.9360538 C14.656681,17.6997458 13.5996013,17.8462547 12.7997844,17.2152282 C10.90585,15.7224526 9.80372434,14.4603997 8.62752301,12.4208114 C8.0959801,11.4979208 8.23512222,10.3004702 8.88678781,9.55062152 L9.4533665,8.89767639 C9.7216405,8.58850803 9.81473559,8.13167717 9.6946129,7.71753 L8.54043406,3.72602801 C8.40429501,3.25420018 8.02190445,2.93695652 7.59146481,2.93695652 L4.02882604,2.93695652 Z M0.891792803,4.00366615 C0.713824117,1.93619059 2.18973684,0.354347826 3.85384634,0.354347826 L7.49402194,0.354347826 C8.81446777,0.354347826 9.98660636,1.32797087 10.4039122,2.77190334 L11.5842333,6.85027588 C11.9514216,8.12093646 11.6650352,9.522435 10.8426971,10.4689475 L10.2729927,11.1254947 C11.3060294,12.9124348 12.2347395,13.9850704 13.9510123,15.3405988 L14.5104885,14.6958388 C15.3318038,13.7481476 16.5479232,13.4181059 17.6505108,13.8412665 L21.1894283,15.2015098 C22.4423688,15.6824277 23.2872086,17.0332413 23.2872086,18.5549693 L23.2872086,22.7500352 C23.2872086,24.6678133 21.9145996,26.3687068 20.1205934,26.1636094 C9.96921861,25.0049273 1.8972136,15.702466 0.891792803,4.00366615 Z M15.4437032,2.77554348 C15.4437032,2.15184348 15.8829395,1.64565217 16.4241413,1.64565217 C20.2145154,1.64565217 23.2872086,5.18673152 23.2872086,9.5548913 C23.2872086,10.1785913 22.8479723,10.6847826 22.3067704,10.6847826 C21.7655686,10.6847826 21.3263323,10.1785913 21.3263323,9.5548913 C21.3263323,6.43526141 19.1311312,3.90543478 16.4241413,3.90543478 C15.8829395,3.90543478 15.4437032,3.39924348 15.4437032,2.77554348 Z M15.4437032,6.81086957 C15.4437032,6.09806957 15.9456875,5.51956522 16.5642039,5.51956522 C18.4208737,5.51956522 19.9257063,7.25378696 19.9257063,9.39347826 C19.9257063,10.1062783 19.4237219,10.6847826 18.8052055,10.6847826 C18.1866891,10.6847826 17.6847047,10.1062783 17.6847047,9.39347826 C17.6847047,8.68067826 17.1827204,8.10217391 16.5642039,8.10217391 C15.9456875,8.10217391 15.4437032,7.52366957 15.4437032,6.81086957 L15.4437032,6.81086957 Z" id="Fill-955"></path>
                            </g>
                        </g>
                    </g>
                </g>
            </g>
        </g>
    </g>
</svg>