<svg xmlns="http://www.w3.org/2000/svg" width="16" height="21" viewBox="0 0 16 21">
    <g fill="none" fill-rule="evenodd">
        <g stroke="#324F8C">
            <g>
                <g>
                    <g transform="translate(-1094 -626) translate(84 509) translate(1011 52) translate(0 66)">
                        <path fill="#BFD440" fill-rule="nonzero" stroke-width=".8" d="M11.873 1.9C10.59.659 8.83-.027 7.003 0 4.516.009 2.223 1.292 1 3.36-.259 5.483-.333 8.062.801 10.247c1.374 2.668 3.044 5.189 4.982 7.517l.91 1.094c.075.09.19.143.31.143.122 0 .237-.053.312-.144l.887-1.074c1.934-2.341 3.612-4.867 5.006-7.536 1.426-2.775.894-6.104-1.335-8.346zm.622 8.009c-1.369 2.622-3.016 5.103-4.916 7.403l-.576.697-.596-.717C4.504 15.005 2.863 12.53 1.513 9.91.495 7.95.56 5.637 1.69 3.734 2.778 1.896 4.818.76 7.03.76c1.6-.023 3.141.578 4.268 1.664 1.999 2.01 2.477 4.997 1.197 7.486z"/>
                        <circle cx="7.5" cy="6.5" r="1.75" stroke-width="1.5"/>
                    </g>
                </g>
            </g>
        </g>
    </g>
</svg>
