<?xml version="1.0" encoding="UTF-8"?>
<svg width="47px" height="49px" viewBox="0 0 47 49" version="1.1" xmlns="http://www.w3.org/2000/svg" xmlns:xlink="http://www.w3.org/1999/xlink">
    <title>7883829B-AAEC-4460-9DDB-3B24357C2BAD</title>
    <defs>
        <polygon id="path-1" points="0 0 30 0 30 30 0 30"></polygon>
    </defs>
    <g id="Page-1" stroke="none" stroke-width="1" fill="none" fill-rule="evenodd">
        <g id="nuestros-servicios" transform="translate(-1285.000000, -594.000000)">
            <g id="servicios" transform="translate(83.000000, 387.000000)">
                <g id="Group">
                    <g id="servicio-exequial" transform="translate(963.000000, 0.486066)">
                        <g id="Group-11" transform="translate(239.000000, 207.486066)">
                            <circle id="Oval" fill="#33508D" cx="23.5" cy="23.5" r="23.5"></circle>
                            <g id="Group-3" transform="translate(9.000000, 8.513934)">
                                <mask id="mask-2" fill="white">
                                    <use xlink:href="#path-1"></use>
                                </mask>
                                <g id="Clip-2"></g>
                                <path d="M28.8696388,29.3690448 L0.130447834,29.3690448 L0.130447834,22.6531549 L0.740547468,22.6531549 L0.740547468,24.7954215 C0.740547468,24.9696036 0.881686043,25.1108557 1.05572809,25.1108557 L27.9552686,25.1108557 C28.1294838,25.1108557 28.2705358,24.9696036 28.2705358,24.7954215 L28.2705358,22.6531549 L28.8696388,22.6531549 L28.8696388,29.3690448 Z M8.08442915,13.7307851 L8.08442915,14.3125187 L7.18469238,14.3125187 C7.01056375,14.3125187 6.86942517,14.4537708 6.86942517,14.6280396 C6.86942517,14.8022217 7.01056375,14.9434738 7.18469238,14.9434738 L9.62240669,14.9434738 C9.79653532,14.9434738 9.93758731,14.8022217 9.93758731,14.6280396 C9.93758731,14.4537708 9.79653532,14.3125187 9.62240669,14.3125187 L8.71487699,14.3125187 L8.71487699,13.7307851 L20.2938684,13.7307851 L20.2938684,14.3125187 L19.3939585,14.3125187 C19.2198298,14.3125187 19.0787778,14.4537708 19.0787778,14.6280396 C19.0787778,14.8022217 19.2198298,14.9434738 19.3939585,14.9434738 L21.8318459,14.9434738 C22.005888,14.9434738 22.1470266,14.8022217 22.1470266,14.6280396 C22.1470266,14.4537708 22.005888,14.3125187 21.8318459,14.3125187 L20.9243162,14.3125187 L20.9243162,13.7307851 L27.6401746,13.7307851 L27.6401746,15.5458319 L25.6212868,15.5458319 C25.2515557,15.2211253 24.7823349,15.0436502 24.2858388,15.0436502 C23.7845804,15.0436502 23.3112033,15.2245049 22.9388746,15.5560575 L6.07610515,15.5560575 C5.70282393,15.2177456 5.22390524,15.0326447 4.71667225,15.0326447 C4.2135089,15.0326447 3.73822691,15.2147126 3.36693721,15.5471318 L1.3709953,15.5471318 L1.3709953,13.7307851 L8.08442915,13.7307851 Z M1.3709953,16.178087 L3.49292287,16.178087 C3.57604743,16.178087 3.65588164,16.1452437 3.71484812,16.086663 L3.72844245,16.0731444 C4.27342785,15.5277205 5.16000323,15.5277205 5.7044691,16.0726245 L5.72568318,16.0940289 C5.78482284,16.1534762 5.86526317,16.1870127 5.94908043,16.1870127 L23.0646005,16.1870127 C23.1487641,16.1870127 23.2293776,16.1532162 23.2886039,16.0934223 L23.2974358,16.0843233 C23.842681,15.5390726 24.7291698,15.5390726 25.2741552,16.0843233 C25.3332083,16.1435105 25.4133888,16.1767871 25.4970329,16.1767871 L27.6401746,16.1767871 L27.6401746,24.4799006 L1.3709953,24.4799006 L1.3709953,16.178087 Z M3.8240357,3.6243236 L3.8240357,1.50519469 C6.20044564,1.66776465 8.08442915,3.65500045 8.08442915,6.07370524 L8.08442915,8.19283416 C5.70784603,8.03026419 3.8240357,6.04328837 3.8240357,3.6243236 L3.8240357,3.6243236 Z M8.02528949,0.78290224 C8.23110937,0.578823211 8.56525278,0.579776446 8.77020677,0.784635395 L10.0136116,2.02912752 C9.28982186,2.61762038 8.72596026,3.39563377 8.39969636,4.28777543 C8.07196047,3.39173417 7.50437558,2.61086107 6.77599663,2.02141498 L8.02528949,0.78290224 Z M12.975357,3.6243236 C12.975357,6.04328837 11.0914601,8.03026419 8.71487699,8.19283416 L8.71487699,6.07370524 C8.71487699,3.65500045 10.5989471,1.66776465 12.975357,1.50519469 L12.975357,3.6243236 Z M16.033475,3.6243236 L16.033475,1.50519469 C18.4099715,1.66776465 20.2938684,3.65500045 20.2938684,6.07370524 L20.2938684,8.19283416 C17.9172853,8.03026419 16.033475,6.04328837 16.033475,3.6243236 L16.033475,3.6243236 Z M20.2346422,0.78290224 C20.4406352,0.578823211 20.7748652,0.579776446 20.979646,0.784635395 L22.2230509,2.02912752 C21.4992611,2.61762038 20.9353129,3.39572042 20.6091356,4.28777543 C20.2813131,3.39173417 19.7137283,2.61086107 18.9853493,2.02141498 L20.2346422,0.78290224 Z M25.1846231,3.6243236 C25.1846231,6.04328837 23.3008128,8.03026419 20.9243162,8.19283416 L20.9243162,6.07370524 C20.9243162,3.65500045 22.8082132,1.66776465 25.1846231,1.50519469 L25.1846231,3.6243236 Z M29.1848194,22.0222864 L28.2705358,22.0222864 L28.2705358,13.4152642 C28.2705358,13.2410821 28.1294838,13.0998299 27.9552686,13.0998299 L20.9243162,13.0998299 L20.9243162,12.28776 C20.9375642,12.278141 20.9507256,12.2683487 20.9626748,12.2563899 L21.1325606,12.0863674 C21.6459413,11.5726602 22.3285152,11.2896359 23.0545563,11.2896359 C23.2286849,11.2896359 23.3697369,11.1483838 23.3697369,10.9742017 C23.3697369,10.8000196 23.2286849,10.6587674 23.0545563,10.6587674 C22.2678169,10.6587674 21.5227265,10.9286197 20.9243162,11.4243021 L20.9243162,8.82413595 C23.6485505,8.66026612 25.8150709,6.39121928 25.8150709,3.6243236 L25.8150709,1.17892821 C25.8150709,1.09521681 25.781215,1.01505838 25.7219888,0.955871133 C25.6629357,0.896683882 25.582149,0.863493959 25.4985049,0.863493959 L25.4984183,0.863493959 C24.4869829,0.86384059 23.5426533,1.15527064 22.7429258,1.6571924 L21.4253149,0.338521236 C20.9760093,-0.111232549 20.2427814,-0.113139019 19.7909648,0.334621637 L18.4640024,1.65008646 C17.6666128,1.1524976 16.7263528,0.86384059 15.7195932,0.863493959 L15.7182077,0.863493959 C15.5440791,0.863493959 15.4030271,1.00474611 15.4030271,1.17892821 L15.4030271,3.6243236 C15.4030271,6.39121928 17.5695475,8.66026612 20.2938684,8.82413595 L20.2938684,11.4115634 C19.6979692,10.9239402 18.9589399,10.6587674 18.1789545,10.6587674 L18.1636284,10.6587674 C17.9894998,10.6587674 17.8484478,10.8000196 17.8484478,10.9742017 C17.8484478,11.1483838 17.9894998,11.2896359 18.1636284,11.2896359 L18.1789545,11.2896359 C18.904909,11.2896359 19.5874828,11.5726602 20.1009502,12.0863674 L20.2707494,12.2563899 C20.2779362,12.2635825 20.2861621,12.2689553 20.2938684,12.2752813 L20.2938684,13.0998299 L8.71487699,13.0998299 L8.71487699,12.28776 C8.72812496,12.278141 8.74128635,12.2683487 8.7533221,12.2563899 L8.92312133,12.0863674 C9.43650207,11.5726602 10.1190759,11.2896359 10.845117,11.2896359 C11.0192456,11.2896359 11.1603842,11.1483838 11.1603842,10.9742017 C11.1603842,10.8000196 11.0192456,10.6587674 10.845117,10.6587674 C10.0583777,10.6587674 9.31337382,10.9286197 8.71487699,11.4243021 L8.71487699,8.82413595 C11.4391978,8.66026612 13.6058049,6.39121928 13.6058049,3.6243236 L13.6058049,1.17892821 C13.6058049,1.09521681 13.5717757,1.01505838 13.5127227,0.955871133 C13.453583,0.896683882 13.3727097,0.863493959 13.2891522,0.863493959 L13.2890657,0.863493959 C12.2775437,0.86384059 11.333214,1.15527064 10.5334865,1.6571924 L9.21596222,0.338521236 C8.76657007,-0.111232549 8.03334218,-0.113139019 7.58161215,0.334621637 L6.25464978,1.65008646 C5.45734671,1.1524976 4.51700013,0.86384059 3.51024048,0.863493959 L3.50876849,0.863493959 C3.33472644,0.863493959 3.19358786,1.00474611 3.19358786,1.17892821 L3.19358786,3.6243236 C3.19358786,6.39121928 5.36010829,8.66026612 8.08442915,8.82413595 L8.08442915,11.4114768 C7.48870314,10.9239402 6.74958726,10.6587674 5.96960181,10.6587674 L5.95427572,10.6587674 C5.78014708,10.6587674 5.63900851,10.8000196 5.63900851,10.9742017 C5.63900851,11.1483838 5.78014708,11.2896359 5.95427572,11.2896359 L5.96960181,11.2896359 C6.69572948,11.2896359 7.37813016,11.5726602 7.89159749,12.0863674 L8.06139672,12.2563899 C8.06858353,12.2635825 8.07672281,12.2689553 8.08442915,12.2752813 L8.08442915,13.0998299 L1.05572809,13.0998299 C0.881686043,13.0998299 0.740547468,13.2410821 0.740547468,13.4152642 L0.740547468,15.691417 C0.708596465,15.7408119 0.689547087,15.7993925 0.689547087,15.8626527 C0.689547087,15.9259129 0.708596465,15.9844935 0.740547468,16.0338018 L0.740547468,22.0222864 L-0.184819377,22.0222864 C-0.358948013,22.0222864 -0.5,22.1634519 -0.5,22.3377207 L-0.5,29.6845657 C-0.5,29.8587478 -0.358948013,30 -0.184819377,30 L29.1848194,30 C29.358948,30 29.5,29.8587478 29.5,29.6845657 L29.5,22.3377207 C29.5,22.1634519 29.358948,22.0222864 29.1848194,22.0222864 L29.1848194,22.0222864 Z" id="Fill-1" fill="#FFFFFF" mask="url(#mask-2)"></path>
                            </g>
                        </g>
                    </g>
                </g>
            </g>
        </g>
    </g>
</svg>