<svg xmlns="http://www.w3.org/2000/svg" width="26" height="19" viewBox="0 0 26 19">
    <g fill="none" fill-rule="evenodd">
        <g fill="#33508D" fill-rule="nonzero" stroke="#34548B" stroke-width=".5">
            <g>
                <g>
                    <path d="M23.242 3.936h-3.748l-.407-1.58C18.729.988 17.21.005 15.446 0H9.118C7.354.004 5.835.987 5.477 2.357L5.07 3.936H1.322c-.597 0-1.08.384-1.082.857V16.04c0 .473.485.857 1.082.858h21.92c.597 0 1.08-.385 1.082-.858V4.793c-.001-.473-.485-.857-1.082-.857zM6.122 2.46C6.417 1.334 7.666.525 9.118.521h6.328c1.451.004 2.701.813 2.995 1.94l.38 1.475h-.864l-.345-1.34c-.213-.815-1.117-1.4-2.166-1.403H9.118c-1.05.003-1.954.588-2.166 1.402l-.346 1.341h-.864l.38-1.475zm11.163 1.475H7.278L7.597 2.7c.15-.572.784-.983 1.52-.985h6.329c.737.002 1.371.413 1.52.985l.32 1.236zM.9 4.793c0-.185.19-.335.423-.335h21.92c.233 0 .423.15.423.335v2.88c-.002 1.338-1.37 2.422-3.057 2.424H3.956C2.268 10.095.901 9.01.899 7.673v-2.88zM16.95 10.62h1.74v1.522c0 .103-.105.186-.235.186h-1.27c-.13 0-.235-.084-.235-.186v-1.522zm-11.077 0h1.74v1.522c0 .103-.105.186-.235.186h-1.27c-.13 0-.235-.084-.235-.186v-1.522zm17.792 5.42c0 .185-.19.335-.423.335H1.322c-.234 0-.423-.15-.423-.335V9.343c.692.798 1.835 1.275 3.057 1.276h1.258v1.522c0 .39.4.708.894.708h1.27c.493 0 .893-.317.894-.708v-1.522h8.02v1.522c0 .39.4.708.893.708h1.27c.494 0 .894-.317.894-.708v-1.522h1.259c1.221 0 2.365-.478 3.057-1.276v6.696z" transform="translate(-706 -534) translate(83 242) translate(624 293)"/>
                </g>
            </g>
        </g>
    </g>
</svg>
