<?xml version="1.0" encoding="UTF-8"?>
<svg width="59px" height="31px" viewBox="0 0 59 31" version="1.1" xmlns="http://www.w3.org/2000/svg" xmlns:xlink="http://www.w3.org/1999/xlink">
    <title>car</title>
    <g id="Page-1" stroke="none" stroke-width="1" fill="none" fill-rule="evenodd">
        <g id="club-de-beneficios" transform="translate(-1280.000000, -926.000000)" fill="#33508D" fill-rule="nonzero">
            <g id="car" transform="translate(1280.000000, 926.000000)">
                <path d="M58.446875,12.2683262 L58.446875,24.3951556 C58.446875,24.9345708 58.01405,25.3719146 57.4802083,25.3719146 L55.184375,25.3719146 C54.6505333,25.3719146 54.2177083,24.9345708 54.2177083,24.3951556 C54.2177083,23.8557404 54.6505333,23.4183966 55.184375,23.4183966 L56.5135417,23.4183966 L56.5135417,12.2683262 C56.5135417,10.7092968 55.7695708,9.23268133 54.5234167,8.318557 C50.8230167,5.60414372 43.7135458,1.52409925 34.8876375,1.98854815 L35.5170583,6.88565153 C35.5858125,7.42054918 35.2123167,7.91063802 34.6829458,7.98011 C34.1533333,8.04958198 33.66855,7.67206463 33.5997958,7.13728907 L32.960225,2.1613124 C27.2591875,2.88325941 21.9245167,5.40854772 17.4766417,9.51130184 L41.9000792,9.51130184 C43.3679625,9.51130184 44.7388167,8.84942552 45.6608958,7.69526266 C45.9962083,7.27550047 46.6048458,7.20993552 47.0202708,7.5487488 C47.4356958,7.88756208 47.5005833,8.50255397 47.1652708,8.92231616 C45.8744083,10.5381197 43.9553333,11.4648199 41.9002,11.4648199 L15.2581417,11.4648199 L4.50409583,14.4832494 C3.25359167,14.8342721 2.38020833,15.9952723 2.38020833,17.3066934 L2.38020833,23.1621194 L3.83020833,23.1621194 C4.36405,23.1621194 4.796875,23.5994633 4.796875,24.1388784 C4.796875,24.6782936 4.36405,25.1156375 3.83020833,25.1156375 L1.41354167,25.1156375 C0.8797,25.1156375 0.446875,24.6782936 0.446875,24.1388784 L0.446875,17.3066934 C0.446875,15.121073 1.90243333,13.1859913 3.98656667,12.6010348 L14.5964583,9.62301865 C25.1264792,-1.48932439 41.4737792,-3.66822954 55.6591292,6.73767254 C57.4046875,8.0182036 58.446875,10.0856361 58.446875,12.2683262 L58.446875,12.2683262 Z M20.384375,24.1626869 C20.384375,27.9327325 17.3488,31 13.6177083,31 C9.88661667,31 6.85104167,27.9327325 6.85104167,24.1626869 C6.85104167,20.3926414 9.88661667,17.3253739 13.6177083,17.3253739 C17.3488,17.3253739 20.384375,20.3926414 20.384375,24.1626869 Z M18.4510417,24.1626869 C18.4510417,21.4697624 16.2828083,19.2788919 13.6177083,19.2788919 C10.9526083,19.2788919 8.784375,21.4697624 8.784375,24.1626869 C8.784375,26.8556115 10.9526083,29.046482 13.6177083,29.046482 C16.2828083,29.046482 18.4510417,26.8557336 18.4510417,24.1626869 Z M52.0427083,24.1626869 C52.0427083,27.9327325 49.0071333,31 45.2760417,31 C41.54495,31 38.509375,27.9327325 38.509375,24.1626869 C38.509375,20.3926414 41.54495,17.3253739 45.2760417,17.3253739 C49.0071333,17.3253739 52.0427083,20.3926414 52.0427083,24.1626869 Z M50.109375,24.1626869 C50.109375,21.4697624 47.9411417,19.2788919 45.2760417,19.2788919 C42.6109417,19.2788919 40.4427083,21.4697624 40.4427083,24.1626869 C40.4427083,26.8556115 42.6109417,29.046482 45.2760417,29.046482 C47.9411417,29.046482 50.109375,26.8557336 50.109375,24.1626869 Z M35.8510417,23.4301177 L23.4052083,23.4301177 C22.8713667,23.4301177 22.4385417,23.8674615 22.4385417,24.4068767 C22.4385417,24.9462919 22.8713667,25.3836357 23.4052083,25.3836357 L35.8510417,25.3836357 C36.3848833,25.3836357 36.8177083,24.9462919 36.8177083,24.4068767 C36.8177083,23.8674615 36.3848833,23.4301177 35.8510417,23.4301177 Z" id="Shape"></path>
            </g>
        </g>
    </g>
</svg>