<?xml version="1.0" encoding="UTF-8"?>
<svg width="43px" height="43px" viewBox="0 0 43 43" version="1.1" xmlns="http://www.w3.org/2000/svg" xmlns:xlink="http://www.w3.org/1999/xlink">
    <title>Shape</title>
    <g id="Page-1" stroke="none" stroke-width="1" fill="none" fill-rule="evenodd">
        <g id="club-de-beneficios" transform="translate(-628.000000, -920.000000)" fill="#33508D" fill-rule="nonzero">
            <g id="Group-10" transform="translate(92.000000, 897.000000)">
                <g id="cutlery" transform="translate(536.000000, 23.000000)">
                    <path d="M41.3736597,34.9515095 C38.3968649,32.4626277 29.641586,25.121287 25.6267553,21.5405222 C27.800164,19.5483249 30.8431378,16.5855183 33.802884,13.702497 C37.1911139,10.4017366 40.3920607,7.28465033 41.8425395,6.05990378 C42.5782349,5.43967795 43,4.52802576 43,3.55876018 C43,2.34619139 42.3692,1.2710213 41.3123518,0.683129515 C40.2607945,0.0987650825 39.0229618,0.12757178 38.0002109,0.762746859 C34.6985679,2.81070988 21.5000585,12.289625 21.5000585,14.3332209 C21.5000585,14.9360619 21.4754514,15.6451434 21.2607056,16.4498832 C20.2738156,14.7574268 19.7084387,13.2068202 19.7084387,12.5415787 C19.7084387,11.2669453 15.3771582,7.11491758 6.83444156,0.199378562 C6.48011521,-0.0884364582 5.96227301,-0.0622332816 5.63767682,0.262366967 L0.262733446,5.63737756 C-0.0618627433,5.96105398 -0.0889894106,6.47806281 0.199745829,6.83415726 C7.11528235,15.3769807 11.2671742,19.7083154 12.5417916,19.7083154 C13.3023461,19.7083154 15.2143982,20.44402 17.1799478,21.7115147 C13.2079486,25.2422248 5.11227611,32.037078 1.62847296,34.9497459 C0.593628398,35.8149546 0.000453006443,37.0878243 0.000453006443,38.442075 C0.000453006443,40.9554803 2.04494709,43 4.558321,43 C5.91171495,43 7.18540856,42.4059773 8.05060648,41.370196 C11.044198,37.7913628 18.0451457,29.4499342 21.5006464,25.5816063 C25.0662495,29.5753232 32.4535213,38.3855534 34.95245,41.3736394 C35.8168081,42.407741 37.0896619,43 38.442132,43 C40.9555059,43 43,40.9554803 43,38.442075 C43,37.089588 42.4077484,35.8167183 41.3736597,34.9515095 Z M23.2918463,14.4907759 C24.2340571,13.0192827 33.4835788,5.67323896 38.9451091,2.28505064 C39.4070183,2.00076297 39.9669363,1.98497388 40.441107,2.24826541 C40.9214086,2.51600813 41.2082962,3.00588995 41.2082962,3.55876018 C41.2082962,3.99883917 41.0184935,4.41086733 40.6869267,4.6907878 C39.1874855,5.95668678 35.964619,9.09560898 32.5527898,12.4191292 C29.5454249,15.3490979 26.4554204,18.3567522 24.2973806,20.3277014 C24.1626711,20.2002129 24.0240144,20.0695329 23.9252498,19.9707671 C23.3938862,19.4393969 22.916776,18.8599036 22.4740991,18.27092 C23.2091226,16.7287959 23.2895787,15.4156976 23.2918463,14.4907759 Z M6.67630064,40.2206156 C6.15224367,40.848736 5.37976352,41.2082738 4.558321,41.2082738 C3.03259294,41.2082738 1.7920728,39.9677382 1.7920728,38.441991 C1.7920728,37.6196144 2.15160612,36.8480484 2.77803898,36.3249087 C6.35783525,33.3307759 14.7964124,26.2475197 18.6722504,22.7815617 C19.1208063,23.1395878 19.5609637,23.5149147 19.9710551,23.9250112 C20.058062,24.0120192 20.1762268,24.1379121 20.2856573,24.2529709 C16.8515724,28.0866132 9.71129601,36.5929034 6.67630064,40.2206156 Z M38.442132,41.2083578 C37.6206895,41.2083578 36.849973,40.8496598 36.3267559,40.224143 C32.5256631,35.6784797 23.4466279,24.8672338 21.2376941,22.6582724 C18.5379608,19.9585054 14.4516601,17.9376694 12.7203405,17.9376694 C12.7116062,17.9376694 12.7019481,17.9385092 12.6932138,17.9385092 C11.6381292,17.5282447 6.57904776,11.8260304 2.10079611,6.33285354 L2.68784071,5.7458016 L11.0127042,14.0707692 C11.1876418,14.245709 11.4169167,14.3332209 11.6461077,14.3332209 C11.8752986,14.3332209 12.1044896,14.245709 12.2795111,14.0707692 C12.6294703,13.7208056 12.6294703,13.1539099 12.2795111,12.8040303 L3.95464768,4.47906278 L4.47954449,3.9541594 L12.804408,12.279127 C12.9793456,12.4540668 13.2086205,12.5415787 13.4378114,12.5415787 C13.6670024,12.5415787 13.8961933,12.4540668 14.0712149,12.279127 C14.4211741,11.9291634 14.4211741,11.3622677 14.0712149,11.0123881 L5.74635146,2.68742057 L6.33339605,2.10036864 C11.8264202,6.57867629 17.5277234,11.6317741 17.9169869,12.5415787 C17.9169869,14.408471 19.9448523,18.5237135 22.6585268,21.237506 C24.8674606,23.4464673 35.6785713,32.5255321 40.2241777,36.3258326 C40.8496867,36.8498961 41.2083802,37.6206222 41.2083802,38.442075 C41.2083802,39.9678222 39.9678601,41.2083578 38.442132,41.2083578 Z" id="Shape"></path>
                </g>
            </g>
        </g>
    </g>
</svg>