<?xml version="1.0" encoding="UTF-8"?>
<svg width="50px" height="52px" viewBox="0 0 50 52" version="1.1" xmlns="http://www.w3.org/2000/svg" xmlns:xlink="http://www.w3.org/1999/xlink">
    <title>ferris-wheel</title>
    <defs>
        <filter id="filter-1">
            <feColorMatrix in="SourceGraphic" type="matrix" values="0 0 0 0 0.200000 0 0 0 0 0.313725 0 0 0 0 0.552941 0 0 0 1.000000 0"></feColorMatrix>
        </filter>
    </defs>
    <g id="Page-1" stroke="none" stroke-width="1" fill="#33508d" fill-rule="evenodd">
        <g id="club-de-beneficios" transform="translate(-790.000000, -914.000000)">
            <g filter="url(#filter-1)" id="ferris-wheel">
                <g transform="translate(790.000000, 914.000000)">
                    <path d="M47.5589586,12.7948475 L43.3537462,12.7948475 C40.689343,8.05886399 36.2591464,4.48876418 31.0751257,2.89631778 L31.0751257,1.77819117 C31.0751257,0.797747364 30.27406,0 29.2895379,0 L20.3995551,0 C19.4150329,0 18.6139672,0.797747364 18.6139672,1.77819117 L18.6139672,2.89662261 C16.5723771,3.52285073 14.6424117,4.4517778 12.8701902,5.66430096 C12.5218475,5.90268018 12.4334865,6.37710159 12.6727552,6.72400128 C12.9135545,7.07344125 13.3927043,7.15716865 13.7368636,6.92061842 C15.2499197,5.88540633 16.8868446,5.07323021 18.6139672,4.49760433 C18.6059066,5.02669241 18.6796769,5.55110639 18.8279317,6.03579049 C15.2444099,7.29505467 12.1231003,9.66563753 9.93968343,12.7949492 L8.11124146,12.7949492 C8.94669252,11.4514495 9.94162207,10.2116946 11.0813373,9.09854696 C11.3830506,8.80387528 11.3877442,8.32132501 11.0918468,8.0208615 C10.7958473,7.720398 10.3113918,7.7157239 10.0096785,8.01039558 C8.55835266,9.42807119 7.32384824,11.0359625 6.33483663,12.7949492 L2.1300323,12.7949492 C1.14551017,12.7949492 0.344444444,13.5926965 0.344444444,14.5731403 L0.344444444,17.3879661 C0.344444444,19.5513643 1.73169316,21.3976348 3.6666582,22.0924503 C3.65114909,22.4241084 3.6423742,22.7570874 3.6423742,23.0884406 C3.6423742,26.8817796 4.65679217,30.5676143 6.58369656,33.8120511 C6.11668881,34.1331416 5.80966973,34.6691392 5.80966973,35.2757564 L5.80966973,38.0905822 C5.80966973,40.8472866 8.06175517,43.0900429 10.8299265,43.0900429 L12.7437706,43.0900429 L10.8401299,46.9194538 L9.64582669,46.9194538 C8.09869133,46.9194538 6.83990291,48.1730278 6.83990291,49.7137542 L6.83990291,50.2218088 C6.83990291,51.2022526 7.64096864,52 8.62549077,52 L40.4599715,52 C41.4444936,52 42.2455593,51.2022526 42.2455593,50.2218088 L42.2455593,49.7137542 C42.2455593,48.1730278 40.9867709,46.9194538 39.4396355,46.9194538 L38.848759,46.9194538 L36.9451183,43.0900429 L38.8589624,43.0900429 C41.6271337,43.0900429 43.8792192,40.8472866 43.8792192,38.0905822 L43.8792192,35.2757564 C43.8792192,34.6691392 43.5722001,34.1331416 43.1051923,33.8120511 C45.0320967,30.5676143 46.0466167,26.8818812 46.0466167,23.0884406 C46.0466167,22.757189 46.0378418,22.4241084 46.0223327,22.0924503 C47.9571957,21.3976348 49.3444444,19.5513643 49.3444444,17.3879661 L49.3444444,14.5730387 C49.3444444,13.5925949 48.5434807,12.7948475 47.5589586,12.7948475 Z M41.5765251,12.7948475 L39.7494095,12.7948475 C37.5659927,9.66553592 34.4446831,7.29495306 30.8611613,6.03568888 C31.0095181,5.55090316 31.0832884,5.02618435 31.0751257,4.49689305 C35.4176754,5.94769382 39.1545537,8.90426688 41.5765251,12.7948475 L41.5765251,12.7948475 Z M29.5973732,22.4609931 C29.5289087,21.9440984 29.3782051,21.4528095 29.1569962,21.0013522 L37.0409278,18.6328016 C37.1713268,19.137503 37.3799855,19.6109083 37.6517009,20.0412306 L29.5973732,22.4609931 Z M24.8444444,44.2114211 C26.8749129,44.2114211 28.8548748,43.9315846 30.7634131,43.3767889 L32.5559393,46.9192506 L17.1330517,46.9192506 L18.9255778,43.3767889 C20.8341161,43.9315846 22.814078,44.2114211 24.8444444,44.2114211 Z M30.9609501,41.7187019 C28.9993543,42.3645409 26.951132,42.6863427 24.8445465,42.6872573 C22.1896324,42.687562 19.6302218,42.171785 17.2145765,41.1529323 C17.5291461,40.7501466 17.78423,40.2990957 17.9642173,39.8118713 C20.1467158,40.7080796 22.4568584,41.1630933 24.8445465,41.1630933 C27.2330508,41.1630933 29.5430914,40.7083845 31.7250797,39.8122777 C31.905067,40.2992989 32.1600489,40.7502482 32.4745165,41.1529323 C31.9761844,41.3631653 31.4714242,41.5514503 30.9609501,41.7187019 L30.9609501,41.7187019 Z M17.1608048,29.8365237 C16.8370522,29.5658322 16.3544333,29.6074926 16.0826158,29.9299041 L13.0733391,33.4974636 L11.940052,33.4974636 C9.54767037,30.5573516 8.23398788,26.8751749 8.23398788,23.088339 C8.23398788,22.8477243 8.23949769,22.6060935 8.24990512,22.365174 C9.25207906,22.2731145 10.169259,21.886485 10.9143083,21.2932804 L20.1508992,24.0681731 C20.2063035,24.3318535 20.2845632,24.5872017 20.3818012,24.8329985 L18.3827591,27.2029717 C18.1109416,27.5252816 18.1528774,28.0059012 18.476528,28.2766944 C18.798444,28.5462681 19.2817771,28.5067415 19.5547169,28.1833139 L21.2195991,26.2096233 C21.5546774,26.594932 21.9498535,26.9268948 22.3913528,27.1897623 L17.0055097,33.5748912 C16.8408275,33.524797 16.666248,33.4974636 16.4853424,33.4974636 L15.0722792,33.4974636 L17.2545737,30.9102463 C17.5263912,30.5879364 17.4843533,30.1073168 17.1608048,29.8365237 L17.1608048,29.8365237 Z M12.6485733,18.6303629 L20.533117,20.9991168 C20.3117042,21.4504725 20.1605924,21.9416597 20.0919238,22.4584529 L12.0386165,20.0390968 C12.3101278,19.6086729 12.5184804,19.1350644 12.6485733,18.6303629 Z M24.0835799,9.59247767 L25.6140838,9.59247767 L25.6140838,18.374913 C25.1179965,18.292913 24.5799734,18.2923034 24.0835799,18.3733889 L24.0835799,9.59247767 Z M23.6140214,20.0773025 C24.3700903,19.7572281 25.3334915,19.7595651 26.0879278,20.082383 C27.27315,20.5704203 28.1095194,21.7337637 28.1095194,23.088339 C28.1095194,23.6373428 27.971672,24.154644 27.7294443,24.6087432 C27.7277097,24.6120964 27.7259751,24.6153479 27.7243426,24.6187011 C27.1737693,25.6420247 26.0895604,26.3399902 24.8445465,26.3399902 C23.5956553,26.3399902 22.5086915,25.6376554 21.9597507,24.6091497 C21.9596487,24.6089465 21.9594446,24.6086416 21.9593426,24.6084384 C21.7172169,24.1545424 21.5794715,23.6373428 21.5794715,23.0885422 C21.5793695,21.7288864 22.4219629,20.5621898 23.6140214,20.0773025 L23.6140214,20.0773025 Z M31.4230603,38.2846591 C29.3441258,39.1831029 27.1338742,39.6389295 24.8445465,39.6389295 C22.555933,39.6389295 20.3452732,39.1835093 18.2660327,38.2851671 C18.2684815,38.220441 18.2710323,38.1557148 18.2710323,38.090379 L18.2710323,35.2755532 C18.2710323,35.0374788 18.2229745,34.8105816 18.1373683,34.6028889 L23.9004297,27.7705703 C24.5038563,27.8938244 25.1736048,27.8945357 25.7775416,27.7726026 L31.5338688,34.6515605 C31.4603025,34.8461454 31.4181627,35.0558704 31.4181627,35.2756548 L31.4181627,38.0904806 C31.4180606,38.1556132 31.4205094,38.2201362 31.4230603,38.2846591 Z M33.2036485,33.4974636 C33.0059074,33.4974636 32.8161249,33.5309952 32.6381783,33.590336 L27.2872307,27.1957574 C27.7295463,26.933906 28.1257427,26.6030608 28.4616373,26.2185651 L34.5526346,33.4974636 L33.2036485,33.4974636 Z M36.883388,14.5730387 L36.883388,17.0881123 L28.2128794,19.6929083 C27.8965753,19.3816741 27.537315,19.1137261 27.1446897,18.8990222 L27.1446897,9.47247516 C28.4031721,9.19385801 29.4851363,8.44427422 30.1934535,7.41871517 C33.2585426,8.46083681 35.9634531,10.3888025 37.9583119,12.9425898 C37.3265198,13.2168377 36.883388,13.8440819 36.883388,14.5730387 L36.883388,14.5730387 Z M20.1444711,1.77819117 C20.1444711,1.63806971 20.2588508,1.52416386 20.3995551,1.52416386 L29.2895379,1.52416386 C29.4302422,1.52416386 29.5446219,1.63806971 29.5446219,1.77819117 L29.5446219,4.59301698 C29.5446219,6.5092974 27.9791205,8.06831381 26.0548689,8.06831381 L23.634224,8.06831381 C21.7099725,8.06831381 20.1444711,6.5092974 20.1444711,4.59301698 L20.1444711,1.77819117 Z M19.4957415,7.41881678 C20.2055892,8.44661128 21.2909205,9.19741439 22.5531781,9.47450738 L22.5531781,18.8941449 C22.1579,19.1091536 21.796497,19.3783209 21.4783562,19.6909777 L12.805705,17.0854704 L12.805705,14.5730387 C12.805705,13.8440819 12.3625731,13.2169393 11.7308831,12.9426914 C13.7256399,10.3888025 16.4305504,8.46083681 19.4957415,7.41881678 L19.4957415,7.41881678 Z M1.87494832,17.3878645 L1.87494832,14.5730387 C1.87494832,14.4329172 1.98932798,14.3190114 2.1300323,14.3190114 L11.0200151,14.3190114 C11.1607194,14.3190114 11.2750991,14.4329172 11.2750991,14.5730387 C11.2703035,14.7669124 11.2846902,17.4437505 11.2689771,17.5867171 C11.1651069,19.4108364 9.64256161,20.8631614 7.78534617,20.8631614 L5.36470124,20.8631614 C3.44044973,20.8631614 1.87494832,19.3041449 1.87494832,17.3878645 Z M5.18593838,22.3828543 C5.25001548,22.3911864 6.6114497,22.3860043 6.71756463,22.3873252 C6.70858568,22.6210303 6.703484,22.8551419 6.703484,23.0882374 C6.703484,26.8218292 7.87258489,30.4623453 10.0219225,33.497362 L8.18327718,33.497362 C6.21270242,30.3781099 5.17298012,26.7883992 5.17298012,23.0882374 C5.17298012,22.8537194 5.17757163,22.6180836 5.18593838,22.3828543 L5.18593838,22.3828543 Z M7.34027564,38.0904806 L7.34027564,35.2756548 C7.34027564,35.1355333 7.4546553,35.0216275 7.59535962,35.0216275 L7.76453132,35.0216275 C7.76504149,35.0216275 7.76565369,35.0217291 7.76616386,35.0217291 C7.76667402,35.0217291 7.76708216,35.0216275 7.76759233,35.0216275 L11.578649,35.0216275 C11.5792612,35.0216275 11.5798734,35.0217291 11.5804856,35.0217291 C11.5813019,35.0217291 11.5820161,35.0216275 11.5828324,35.0216275 L16.4853424,35.0216275 C16.6260467,35.0216275 16.740427,35.1355333 16.740427,35.2756548 L16.740427,38.0904806 C16.7415488,40.0128577 15.1601301,41.5686225 13.2506735,41.5657813 L10.8300286,41.5657813 C8.90577704,41.5657813 7.34027564,40.0068626 7.34027564,38.0904806 Z M14.5343581,42.9236042 C15.0572803,42.7857182 15.5465313,42.5653241 15.9883368,42.2778668 C16.4727923,42.5009028 16.9631657,42.7042262 17.4587429,42.8888533 L15.4192955,46.9192506 L12.5480702,46.9192506 L14.5343581,42.9236042 Z M40.7150554,49.7136526 L40.7150554,50.2217072 C40.7150554,50.3618287 40.6006758,50.4757345 40.4599715,50.4757345 L8.62549077,50.4757345 C8.48478644,50.4757345 8.37040679,50.3618287 8.37040679,50.2217072 L8.37040679,49.7136526 C8.37040679,49.0132485 8.94250914,48.4435161 9.64582669,48.4435161 L39.4396355,48.4435161 C40.1429531,48.4435161 40.7150554,49.0132485 40.7150554,49.7136526 Z M34.2696955,46.9193522 L32.230248,42.8889549 C32.7258252,42.7043278 33.2161986,42.5010044 33.7006541,42.2779684 C34.1423575,42.5653241 34.6317107,42.7858198 35.1546328,42.9237058 L37.1410228,46.9193522 L34.2696955,46.9193522 Z M42.3487153,38.0904806 C42.3487153,40.006761 40.7832139,41.5657813 38.8589624,41.5657813 L36.4383174,41.5657813 C34.5288608,41.5686225 32.9473401,40.0127561 32.9485638,38.0904806 L32.9485638,35.2756548 C32.9488706,35.1360414 33.0630462,35.0215259 33.2036485,35.0216274 L38.1061585,35.0216274 L42.0936313,35.0216274 C42.2343356,35.0216274 42.3487153,35.1355333 42.3487153,35.2756548 L42.3487153,38.0904806 Z M44.5161128,23.088339 C44.5161128,26.7886024 43.4762885,30.3784147 41.5056117,33.4974636 L39.6651298,33.4974636 C40.3009011,32.6014585 40.8557598,31.651498 41.3178699,30.6566254 C41.4953063,30.2745683 41.3282773,29.8216885 40.9447331,29.6449871 C40.5610867,29.4681841 40.106323,29.6347244 39.9288866,30.0165782 C39.3509683,31.2606008 38.6164285,32.4291264 37.7464901,33.4974636 L36.5449425,33.4974636 L29.3031083,24.8432612 C29.4019789,24.5951274 29.481259,24.3373405 29.5374795,24.0710182 L38.7771314,21.2951094 C39.5217726,21.8872979 40.4381363,22.2732161 41.4392899,22.3650724 C41.4496973,22.6059919 41.4552071,22.8476227 41.4552071,23.0882374 C41.4552071,24.3413033 41.3134825,25.5904064 41.0339104,26.8008973 C40.9392232,27.210999 41.1963479,27.6200846 41.6082575,27.7143795 C42.0093516,27.8095889 42.4324849,27.5556632 42.5255395,27.1424116 C42.830824,25.8200471 42.985711,24.456022 42.985711,23.0882374 C42.985711,22.8550403 42.9806093,22.6209287 42.9716304,22.3873252 C43.0822348,22.3860043 44.4357104,22.3911864 44.5032566,22.3828543 C44.5115213,22.6180836 44.5161128,22.8537194 44.5161128,23.088339 L44.5161128,23.088339 Z M47.8140426,17.3878645 C47.8140426,19.3041449 46.2485412,20.8631614 44.3242897,20.8631614 L41.9036448,20.8631614 C40.0482659,20.8631614 38.5270471,19.4136815 38.420422,17.5921025 C38.4157284,17.524328 38.4140959,17.4564519 38.4138918,17.3878645 L38.4138918,14.5730387 C38.4138918,14.4329172 38.5282715,14.3190114 38.6689758,14.3190114 L42.8999007,14.3190114 C42.9004109,14.3190114 42.9009211,14.319113 42.9014312,14.319113 C42.9019414,14.319113 42.9025536,14.3190114 42.9030638,14.3190114 L47.5589586,14.3190114 C47.6996629,14.3190114 47.8140426,14.4329172 47.8140426,14.5730387 L47.8140426,17.3878645 Z" id="Shape" fill="#33508d" fill-rule="nonzero"></path>
                </g>
            </g>
        </g>
    </g>
</svg>