<?xml version="1.0" encoding="UTF-8"?>
<svg width="54px" height="55px" viewBox="0 0 54 55" version="1.1" xmlns="http://www.w3.org/2000/svg" xmlns:xlink="http://www.w3.org/1999/xlink">
    <title>Shape</title>
    <g id="Page-1" stroke="none" stroke-width="1" fill="none" fill-rule="evenodd">
        <g id="club-de-beneficios" transform="translate(-457.000000, -914.000000)" fill="#33508D" fill-rule="nonzero">
            <g id="Group-10" transform="translate(92.000000, 897.000000)">
                <g id="football" transform="translate(365.000000, 17.000000)">
                    <path d="M27,0.36 C12.0884766,0.36 0,12.4484766 0,27.36 C0,42.2715234 12.0884766,54.36 27,54.36 C41.9115234,54.36 54,42.2715234 54,27.36 C53.9833007,12.4555078 41.9044922,0.376699275 27,0.36 Z M47.9096191,13.3111231 L46.0384278,21.2652246 L36.1801757,24.5510156 L27.9,17.9280176 L27.9,8.16908198 L37.35,4.38934568 C41.6285156,6.32777344 45.2838868,9.41625 47.9096191,13.3111231 Z M48.0599121,41.1706934 L39.1346191,42.5800195 L34.274707,36.1600488 L36.7505859,26.2600488 L46.4994141,23.0111719 L52.0839844,29.7123926 C51.703418,33.8041406 50.3213379,37.7394434 48.0599121,41.1706934 L48.0599121,41.1706934 Z M14.9049316,42.5861719 L5.94008786,41.1706934 C3.67866214,37.7385644 2.29702151,33.8023828 1.91689448,29.7097559 L7.49707031,23.0085351 L17.2458984,26.2574121 L19.7217774,36.1626856 L14.9049316,42.5861719 Z M1.8079101,27.0242578 C1.85581058,23.0094141 2.86875,19.0644434 4.7610351,15.5233301 L6.22089844,21.7332422 L1.8079101,27.0242578 Z M21.4026856,35.46 L19.0151368,25.9001368 L27,19.5126856 L34.9866212,25.9027734 L32.5973144,35.46 L21.4026856,35.46 Z M47.7791016,21.7297266 L49.2389649,15.5198144 C51.13125,19.0609278 52.1441894,23.005459 52.1920899,27.0207422 L47.7791016,21.7297266 Z M34.8956543,3.4335351 L27,6.59144531 L19.0621582,3.44803714 C24.2002441,1.73548823 29.7544922,1.73065433 34.8956543,3.4335351 Z M16.6069336,4.41 L26.1,8.17215818 L26.1,17.9280176 L17.8198243,24.5510156 L7.96157224,21.2652246 L6.09038089,13.3111231 C8.70732427,9.4303125 12.346875,6.34974615 16.6069336,4.41 Z M7.44389651,43.2304101 L14.7599121,44.3861719 L19.1843262,51.3163476 C14.5762207,49.8028712 10.5007325,46.996084 7.44389651,43.2304101 Z M21.7647949,52.0093653 L16.3942382,43.6013087 L21.15,37.26 L32.85,37.26 L37.6738769,43.6320703 L32.9941406,51.833584 C29.3128418,52.7401757 25.4742187,52.8016993 21.7656738,52.0137597 L21.7647949,52.0093653 Z M35.4941894,51.0829981 L39.3301757,44.3699121 L46.5596191,43.2295313 C43.6552734,46.8062403 39.828955,49.5216212 35.4941894,51.0829981 L35.4941894,51.0829981 Z" id="Shape"></path>
                </g>
            </g>
        </g>
    </g>
</svg>