<?xml version="1.0" encoding="UTF-8"?>
<svg width="57px" height="47px" viewBox="0 0 57 47" version="1.1" xmlns="http://www.w3.org/2000/svg" xmlns:xlink="http://www.w3.org/1999/xlink">
    <title>heartbeat</title>
    <defs>
        <filter id="filter-1">
            <feColorMatrix in="SourceGraphic" type="matrix" values="0 0 0 0 0.200000 0 0 0 0 0.313725 0 0 0 0 0.552941 0 0 0 1.000000 0"></feColorMatrix>
        </filter>
    </defs>
    <g id="Page-1" stroke="none" stroke-width="1" fill="#33508d" fill-rule="evenodd">
        <g id="club-de-beneficios" transform="translate(-102.000000, -923.000000)">
            <g id="Group-10" transform="translate(92.000000, 897.000000)">
                <g id="linea">
                    <g id="Group-12" transform="translate(0.000000, 6.000000)">
                        <g filter="url(#filter-1)" id="heartbeat">
                            <g transform="translate(11.000000, 20.339623)">
                                <path d="M38.3915331,32.5787779 C38.0025672,32.1978001 37.3783486,32.2042072 36.9971719,32.5929721 L36.9691703,32.6215578 C36.5880923,33.0104212 36.5945011,33.6344755 36.9834669,34.0155519 C37.175337,34.2035272 37.4244921,34.2971698 37.6734499,34.2971698 C37.9291124,34.2971698 38.1846762,34.1983029 38.3778281,34.0013576 L38.4058297,33.9727719 C38.7869077,33.5839085 38.7804989,32.9598542 38.3915331,32.5787779 Z" id="Path" fill="#000000" fill-rule="nonzero"></path>
                                <path d="M50.6139396,21.2236095 L47.7610604,21.2236095 L47.7610604,18.3707302 C47.7610604,17.7778028 47.2804274,17.2971698 46.6875,17.2971698 C46.0945726,17.2971698 45.6139396,17.7778028 45.6139396,18.3707302 L45.6139396,21.2236095 L42.7610604,21.2236095 C42.168133,21.2236095 41.6875,21.7042424 41.6875,22.2971698 C41.6875,22.8900972 42.168133,23.3707302 42.7610604,23.3707302 L45.6139396,23.3707302 L45.6139396,26.2236095 C45.6139396,26.8165368 46.0945726,27.2971698 46.6875,27.2971698 C47.2804274,27.2971698 47.7610604,26.8165368 47.7610604,26.2236095 L47.7610604,23.3707302 L50.6139396,23.3707302 C51.206867,23.3707302 51.6875,22.8900972 51.6875,22.2971698 C51.6875,21.7042424 51.206867,21.2236095 50.6139396,21.2236095 Z" id="Path" fill="#000000" fill-rule="nonzero"></path>
                                <path d="M49.6385038,13.2825764 C48.6169393,5.8546888 42.3051145,0.297169811 34.8132405,0.297169811 C31.0313737,0.297169811 27.4936324,1.68407467 24.7344239,4.2262135 C21.975106,1.68407467 18.4373647,0.297169811 14.6556074,0.297169811 C6.40215374,0.297169811 -0.3125,7.06038893 -0.3125,15.3735326 C-0.3125,17.0159964 0.174547826,18.8569891 1.14350284,20.8891937 L0.781252136,20.8891937 C0.177172831,20.8891937 -0.3125,21.3709358 -0.3125,21.9652313 C-0.3125,22.5595269 0.177172831,23.0412689 0.781252136,23.0412689 L2.30834887,23.0412689 C4.35114973,26.4436998 7.58165604,30.3128082 11.9866334,34.6219084 C17.9563326,40.461672 24.0095944,45.0304201 24.0700789,45.0759365 C24.2660793,45.2234612 24.5002516,45.2971698 24.7344239,45.2971698 C24.9685963,45.2971698 25.2026592,45.2234612 25.398769,45.0759365 C25.4449253,45.0411805 30.0745593,41.5485776 35.2051319,36.7896937 C35.6447109,36.3819831 35.6650546,35.7009589 35.250632,35.268607 C34.8363187,34.8362551 34.1440829,34.8161332 33.7045039,35.2238438 C29.791715,38.853211 26.1793799,41.7308584 24.7345333,42.8551025 C23.0175612,41.5186638 18.2376456,37.7037877 13.513402,33.0805921 C9.73120712,29.3791304 6.83582646,26.0059677 4.87833826,23.0412689 L14.6702636,23.0412689 C15.1581865,23.0412689 15.5870467,22.7232998 15.7215782,22.2620025 L17.6325819,15.7087183 L22.9245923,32.389238 C23.0672175,32.8385913 23.4901715,33.144724 23.968688,33.144724 C24.4472046,33.144724 24.8701586,32.8385913 25.0126745,32.389238 L27.9433833,23.1489803 L32.8263303,23.1489803 C33.4304097,23.1489803 33.9200825,22.6672383 33.9200825,22.0729427 C33.9200825,21.4786471 33.4304097,20.9969051 32.8263303,20.9969051 L27.1389286,20.9969051 C26.6604121,20.9969051 26.2373487,21.3029302 26.0948328,21.7523911 L23.9683599,28.4566434 L18.6323808,11.6375301 C18.488443,11.183765 18.0599109,10.8755878 17.5755974,10.8821517 C17.0924871,10.8876395 16.6701894,11.2044249 16.536861,11.6614181 L13.8459027,20.8893013 L3.58388261,20.8893013 C2.45327103,18.7893064 1.87500427,16.9384141 1.87500427,15.3735326 C1.87500427,8.2470432 7.6083436,2.44924501 14.6556074,2.44924501 C18.1976143,2.44924501 21.4915582,3.88166626 23.9305161,6.48244914 C24.1376728,6.70325205 24.4290483,6.82882564 24.7344239,6.82882564 C25.0397995,6.82882564 25.3312845,6.70325205 25.5383317,6.48244914 C27.9772896,3.88166626 31.2712336,2.44924501 34.8132405,2.44924501 C40.9062055,2.44924501 46.086325,6.77211846 47.3175618,12.6850527 C46.9066391,12.6322192 46.4878414,12.6045651 46.0624812,12.6045651 C40.7552677,12.6045651 36.4374624,16.8524387 36.4374624,22.0736959 C36.4374624,27.2949532 40.7552677,31.5428268 46.0624812,31.5428268 C51.3696947,31.5428268 55.6875,27.2949532 55.6875,22.0736959 C55.6875,18.0949393 53.1801826,14.6819632 49.6385038,13.2825764 Z M46.0625906,29.3907516 C41.9615669,29.3907516 38.625076,26.1082989 38.625076,22.0736959 C38.625076,18.039093 41.9615669,14.7566403 46.0625906,14.7566403 C50.1636142,14.7566403 53.5001051,18.039093 53.5001051,22.0736959 C53.5001051,26.1082989 50.1636142,29.3907516 46.0625906,29.3907516 Z" id="Shape" fill="#33508d" fill-rule="nonzero"></path>
                            </g>
                        </g>
                    </g>
                </g>
            </g>
        </g>
    </g>
</svg>