<?xml version="1.0" encoding="UTF-8"?>
<svg width="57px" height="50px" viewBox="0 0 57 50" version="1.1" xmlns="http://www.w3.org/2000/svg" xmlns:xlink="http://www.w3.org/1999/xlink">
    <title>home</title>
    <defs>
        <filter id="filter-1">
            <feColorMatrix in="SourceGraphic" type="matrix" values="0 0 0 0 0.200000 0 0 0 0 0.313725 0 0 0 0 0.552941 0 0 0 1.000000 0"></feColorMatrix>
        </filter>
    </defs>
    <g id="Page-1" stroke="none" stroke-width="1" fill="#33508d" fill-rule="evenodd">
        <g id="club-de-beneficios" transform="translate(-950.000000, -914.000000)">
            <g filter="url(#filter-1)" id="home">
                <g transform="translate(950.000000, 914.000000)">
                    <path d="M55.9758432,20.293901 L29.431017,0.289267161 C28.9191429,-0.0964223871 28.2237379,-0.0964223871 27.7120826,0.289267161 L1.1670376,20.293901 C0.518663789,20.7825987 0.377789048,21.7196915 0.852585051,22.3870492 C1.32738105,23.054407 2.23792626,23.1991813 2.88619069,22.7107087 L28.5714404,3.35373161 L54.2566901,22.7105962 C54.5156896,22.9059176 54.8166891,23 55.1150635,23 C55.5630627,23 56.0051557,22.7877116 56.2901864,22.3869367 C56.7650918,21.7196915 56.624217,20.7825987 55.9758432,20.293901 Z" id="Path" fill="#000000" fill-rule="nonzero"></path>
                    <path d="M50.1046811,23 C49.2947948,23 48.6380438,23.639005 48.6380438,24.4272471 L48.6380438,47.1452913 L36.9051661,47.1452913 L36.9051661,34.7443455 C36.9051661,30.809036 33.6151271,27.6075737 29.5714286,27.6075737 C25.52773,27.6075737 22.237691,30.8092506 22.237691,34.7443455 L22.237691,47.1453986 L10.5047031,47.1453986 L10.5047031,24.4273544 C10.5047031,23.6391123 9.84795213,23 9.03806584,23 C8.22817954,23 7.57142857,23.6391123 7.57142857,24.4273544 L7.57142857,48.5727529 C7.57142857,49.360995 8.22817954,50 9.03806584,50 L23.7043283,50 C24.4756275,50 25.1068008,49.4201105 25.1652326,48.6839029 C25.1687606,48.6505364 25.1709655,48.6140587 25.1709655,48.5727529 L25.1709655,34.7444528 C25.1709655,32.3831598 27.1449669,30.4621752 29.5714286,30.4621752 C31.9978902,30.4621752 33.9718916,32.3832671 33.9718916,34.7444528 L33.9718916,48.5727529 C33.9718916,48.6138441 33.9740966,48.6496781 33.9776245,48.6826154 C34.0353948,49.4193595 34.6667886,50 35.4385289,50 L50.1047913,50 C50.9147878,50 51.5714286,49.360995 51.5714286,48.5727529 L51.5714286,24.4273544 C51.5714286,23.639005 50.9146776,23 50.1046811,23 Z" id="Path" fill="#33508d" fill-rule="nonzero"></path>
                </g>
            </g>
        </g>
    </g>
</svg>