<?xml version="1.0" encoding="UTF-8"?>
<svg width="50px" height="49px" viewBox="0 0 50 49" version="1.1" xmlns="http://www.w3.org/2000/svg" xmlns:xlink="http://www.w3.org/1999/xlink">
    <title>pet</title>
    <g id="Page-1" stroke="none" stroke-width="1" fill="none" fill-rule="evenodd">
        <g id="club-de-beneficios" transform="translate(-1119.000000, -917.000000)" fill="#33508D" fill-rule="nonzero">
            <g id="pet" transform="translate(1119.000000, 917.000000)">
                <path d="M40.556036,32.1658942 C40.1937794,31.9244944 39.7006495,31.9485242 39.3641467,32.2250677 C39.0363622,32.4946025 38.9136058,32.9543735 39.0629176,33.3510662 C39.2062169,33.7317391 39.5767909,33.9932639 39.9840414,33.9998721 C40.3902899,34.0064803 40.7707845,33.7564698 40.9258083,33.3814039 C41.1062852,32.9447616 40.9477541,32.4291212 40.556036,32.1658942 L40.556036,32.1658942 Z" id="Path"></path>
                <path d="M40.3158557,36.3791351 C39.8097404,36.2274123 39.2773297,36.5184153 39.1269198,37.0290448 C37.3853019,42.9416029 31.9084901,47.0710085 25.8085245,47.0710085 C18.1461324,47.0710085 11.9122992,40.7588399 11.9122992,33.0000482 C11.9122992,25.2412566 18.1461324,18.9291844 25.8085245,18.9291844 C31.8509271,18.9291844 37.1635597,22.8356839 39.0281446,28.649762 C39.0486073,28.7134219 39.078345,28.8094905 39.0978514,28.8735362 C39.2531379,29.3826225 39.7881303,29.668224 40.2929069,29.5118714 C40.7976835,29.3552295 41.0809092,28.8154707 40.9257184,28.3062879 C40.9039171,28.2347188 40.8705458,28.1274615 40.8477883,28.0560852 C39.8252308,24.8675922 37.8697115,22.1242363 35.1928369,20.1228075 C32.4604073,18.079807 29.2153602,17 25.8086202,17 C17.0917335,17 10,24.1775575 10,32.9999518 C10,41.8224425 17.0917335,49 25.8086202,49 C29.2821028,49 32.5783064,47.8814184 35.3407607,45.7652089 C38.0121849,43.7188324 40.0078645,40.8113111 40.9601415,37.5783526 C41.1105513,37.0678195 40.8221622,36.5308579 40.3158557,36.3791351 L40.3158557,36.3791351 Z" id="Path"></path>
                <path d="M24.1967017,40 L26.8032983,40 C28.0715659,40 29.1034501,38.9720773 29.1034501,37.7084655 L29.1034501,36.0972925 L30.6998482,36.0972925 C31.9681159,36.0972925 33,35.0693698 33,33.8057581 L33,31.1941448 C33,29.9305331 31.9681159,28.9026104 30.6998482,28.9026104 L29.1034501,28.9026104 L29.1034501,27.2915345 C29.1034501,26.0279227 28.0715659,25 26.8032983,25 L24.1967017,25 C22.9284341,25 21.8965499,26.0279227 21.8965499,27.2915345 L21.8965499,28.9026104 L20.3001518,28.9026104 C19.0318841,28.9026104 18,29.9305331 18,31.1941448 L18,33.8058552 C18,35.0693698 19.0318841,36.0973896 20.3001518,36.0973896 L21.8965499,36.0973896 L21.8965499,37.7085626 C21.8965499,38.9720773 22.9283359,40 24.1967017,40 L24.1967017,40 Z M20.3001518,34.1551644 C20.1139102,34.1551644 19.9625031,33.9985239 19.9625031,33.8058552 L19.9625031,31.1942419 C19.9625031,31.0016703 20.1139102,30.8449327 20.3001518,30.8449327 L22.8778015,30.8449327 C23.4197467,30.8449327 23.859053,30.4101656 23.859053,29.8738201 L23.859053,27.2916316 C23.859053,27.09906 24.0104601,26.9423224 24.1967017,26.9423224 L26.8032983,26.9423224 C26.9894417,26.9423224 27.140947,27.09906 27.140947,27.2916316 L27.140947,29.8738201 C27.140947,30.4101656 27.5802533,30.8449327 28.1221985,30.8449327 L30.6998482,30.8449327 C30.8859917,30.8449327 31.0374969,31.0016703 31.0374969,31.1942419 L31.0374969,33.8058552 C31.0374969,33.9984268 30.8860898,34.1551644 30.6998482,34.1551644 L28.1221985,34.1551644 C27.5802533,34.1551644 27.140947,34.5899315 27.140947,35.126277 L27.140947,37.7085626 C27.140947,37.9011343 26.9895399,38.0578718 26.8032983,38.0578718 L24.1967017,38.0578718 C24.0104601,38.0578718 23.859053,37.9012314 23.859053,37.7085626 L23.859053,35.126277 C23.859053,34.5899315 23.4197467,34.1551644 22.8778015,34.1551644 L20.3001518,34.1551644 Z" id="Shape"></path>
                <path d="M45.7334701,13.0729921 C44.5060325,12.8509603 43.2119875,13.1393886 42.0894616,13.8847532 C40.5907937,14.8798308 39.5158732,16.573718 39.1404311,18.5321267 C38.461155,22.0754394 40.3121624,25.3928488 43.2665936,25.9271186 C43.5366239,25.9758998 43.8098545,26 44.0837852,26 C45.054894,26 46.0349039,25.6967631 46.910502,25.1153575 C48.40917,24.1202799 49.4840905,22.4263927 49.8595326,20.4678871 C50.5389087,16.9246713 48.6879012,13.6072619 45.7334701,13.0729921 L45.7334701,13.0729921 Z M47.8929121,20.1149012 C47.6176813,21.5504611 46.8273927,22.82303 45.7789752,23.5192263 C45.2967211,23.839401 44.5329355,24.1869668 43.6340348,24.0242661 C41.762325,23.6857984 40.6287979,21.3805014 41.1070515,18.8853062 C41.3822824,17.4498431 42.172571,16.1771774 43.2209885,15.4809812 C43.618533,15.2170403 44.207199,14.934516 44.9055773,14.934516 C45.054294,14.934516 45.2081112,14.9472921 45.3660289,14.9759413 C47.2377387,15.3143122 48.3712657,17.6197061 47.8929121,20.1149012 Z" id="Shape"></path>
                <path d="M10.8595739,18.5320919 C10.4841316,16.5736993 9.40931066,14.8798262 7.91054198,13.8847568 C6.78791564,13.1393017 5.49397001,12.8509725 4.26653187,13.0730024 C1.31209936,13.6072679 -0.538908957,16.924553 0.140467503,20.467933 C0.515909757,22.4263256 1.59083073,24.1202954 3.0894994,25.1153648 C3.96509794,25.6967656 4.94500823,26 5.91621753,26 C6.19014836,26 6.46347912,25.9759 6.7334095,25.9271192 C9.68774199,25.392757 11.5388503,22.0754719 10.8595739,18.5320919 L10.8595739,18.5320919 Z M6.36596815,24.0241857 C5.46666694,24.1867883 4.70318101,23.8393222 4.22102675,23.51915 C3.17260875,22.8230564 2.38231981,21.5504012 2.10708884,20.1148532 C1.628735,17.6196788 2.76226257,15.314304 4.63397322,14.9759359 C4.79189099,14.9473837 4.94560829,14.934511 5.09442504,14.934511 C5.79270363,14.934511 6.38146989,15.2170329 6.77901463,15.4809716 C7.82743263,16.1770653 8.61772157,17.4497204 8.89295255,18.8852684 C9.37120637,21.3803461 8.2376788,23.6857208 6.36596815,24.0241857 Z" id="Shape"></path>
                <path d="M33.5,16 C35.2856592,16 36.9478,15.1343874 38.1802805,13.562747 C39.3537566,12.0661067 40,10.0906126 40,8 C40,5.90938735 39.3537566,3.93389328 38.1802805,2.43725296 C36.9478,0.865513834 35.2856592,0 33.5,0 C31.7143408,0 30.0522,0.865612648 28.8197195,2.43725296 C27.6462434,3.93379447 27,5.90938735 27,8 C27,10.0906126 27.6462434,12.0662055 28.8197195,13.562747 C30.0522,15.1344862 31.7143408,16 33.5,16 Z M33.5,1.97628458 C35.9793866,1.97628458 37.9964553,4.67855731 37.9964553,8 C37.9964553,11.3215415 35.9793866,14.0237154 33.5,14.0237154 C31.0206134,14.0237154 29.0034446,11.3214427 29.0034446,8 C29.0034446,4.6784585 31.0206134,1.97628458 33.5,1.97628458 Z" id="Shape"></path>
                <path d="M16.4999499,16 C18.2855954,16 19.9477233,15.1343874 21.1801943,13.562747 C22.3536614,12.0662055 23,10.0906126 23,8 C23,5.90938735 22.3537616,3.93379447 21.1801943,2.43725296 C19.9477233,0.865513834 18.2855954,0 16.4999499,0 C14.7143044,0 13.0521765,0.865612648 11.8197055,2.43725296 C10.6462384,3.93389328 10,5.90938735 10,8 C10,10.0906126 10.6462384,12.0661067 11.8197055,13.562747 C13.0521765,15.1344862 14.7143044,16 16.4999499,16 Z M16.4999499,1.97628458 C18.9793174,1.97628458 20.9964707,4.67855731 20.9964707,8 C20.9964707,11.3215415 18.9793174,14.0237154 16.4999499,14.0237154 C14.0205824,14.0237154 12.0035293,11.3214427 12.0035293,8 C12.0034291,4.6784585 14.0205824,1.97628458 16.4999499,1.97628458 Z" id="Shape"></path>
            </g>
        </g>
    </g>
</svg>