<svg id="Layer_1" data-name="Layer 1" xmlns="http://www.w3.org/2000/svg" viewBox="0 0 186 179"><defs><style>.cls-1{fill:#33508d;}</style></defs><title>1</title><path class="cls-1" d="M83.88,107.58a15.08,15.08,0,0,1,6.56-12.43V54.44a8.61,8.61,0,0,1,17.21,0V95.15a15.14,15.14,0,1,1-23.77,12.43M93.93,54.44V97.08l-.85.51a11.69,11.69,0,1,0,11.93,0l.9-1.49h0l-.9,1.49-.84-.51V54.44a5.12,5.12,0,0,0-10.24,0"/><path class="cls-1" d="M101.65,100.49V72H96.71v28.46a7.55,7.55,0,1,0,4.94,0"/><polygon class="cls-1" points="79.27 63.46 72.67 63.46 72.67 70.05 65.14 70.05 65.14 63.46 58.54 63.46 58.54 55.93 65.14 55.93 65.14 49.33 72.67 49.33 72.67 55.93 79.27 55.93 79.27 63.46"/><polygon class="cls-1" points="83.88 86.79 79.51 86.79 79.51 91.17 74.51 91.17 74.51 86.79 70.13 86.79 70.13 81.8 74.51 81.8 74.51 77.42 79.51 77.42 79.51 81.8 83.88 81.8 83.88 86.79"/><polygon class="cls-1" points="127.97 72.09 123.59 72.09 123.59 76.47 118.6 76.47 118.6 72.09 114.22 72.09 114.22 67.09 118.6 67.09 118.6 62.72 123.59 62.72 123.59 67.09 127.97 67.09 127.97 72.09"/></svg>