<svg id="Layer_1" data-name="Layer 1" xmlns="http://www.w3.org/2000/svg" viewBox="0 0 186 179"><defs><style>.cls-1{fill:#33508d;}</style></defs><title>2</title><path class="cls-1" d="M93.14,59.39A31.71,31.71,0,1,0,124.85,91.1,31.71,31.71,0,0,0,93.14,59.39M117.7,74.6,115.5,84,103.92,87.8,94.19,80V68.56l11.1-4.43A29.77,29.77,0,0,1,117.7,74.6m.17,32.72L107.39,109l-5.71-7.54,2.91-11.63L116,86l6.56,7.87a29.39,29.39,0,0,1-4.73,13.45M78.93,109,68.4,107.32a29.49,29.49,0,0,1-4.72-13.46L70.23,86l11.45,3.82,2.91,11.63ZM63.55,90.71A29.48,29.48,0,0,1,67,77.2l1.72,7.3Zm23,9.91-2.8-11.23,9.38-7.5,9.38,7.5-2.81,11.23Zm31-16.13,1.72-7.29a29.34,29.34,0,0,1,3.46,13.5ZM102.41,63l-9.27,3.71L83.81,63a29.51,29.51,0,0,1,18.6,0M80.93,64.15l11.15,4.42V80L82.36,87.8,70.78,84l-2.2-9.35A29.9,29.9,0,0,1,80.93,64.15M70.17,109.74l8.59,1.36,5.2,8.14a29.75,29.75,0,0,1-13.79-9.5M87,120.05l-6.31-9.87,5.59-7.45H100l5.66,7.48-5.49,9.64a29.67,29.67,0,0,1-13.19.21ZM103.11,119l4.51-7.88,8.49-1.34a29.69,29.69,0,0,1-13,9.22"/></svg>