<svg id="Layer_1" data-name="Layer 1" xmlns="http://www.w3.org/2000/svg" viewBox="0 0 186 179"><defs><style>.cls-1{fill:#33508d;}</style></defs><title>3</title><path class="cls-1" d="M122.55,85.4V70.49a2,2,0,0,0-2-2h-7.87a2,2,0,0,0-2,2V73.6l-8.44-8.44a2,2,0,0,0-2.78,0L67.93,96.63a2,2,0,1,0,2.78,2.78l4.64-4.62v30.77a2,2,0,0,0,2,2H93.05a2,2,0,0,0,2-2V107.85h11.8v17.71a2,2,0,0,0,2,2h15.73a2,2,0,0,0,2-2V94.82l4.65,4.6a2,2,0,0,0,2.76-2.8Zm0,38.19h-11.8v-17.7a2,2,0,0,0-2-2H93.05a2,2,0,0,0-2,2v17.7H79.28V90.87l21.63-21.54,10.42,10.41a2,2,0,0,0,3.36-1.39v-5.9h3.93V86.22a2,2,0,0,0,.58,1.4l3.35,3.31Z"/></svg>