<svg id="Layer_1" data-name="Layer 1" xmlns="http://www.w3.org/2000/svg" viewBox="0 0 186 179"><defs><style>.cls-1{fill:#33508d;}</style></defs><title>4</title><path class="cls-1" d="M91.81,90.68c4.48,0,7.41-4.69,7.41-9.44s-2.94-9.44-7.41-9.44-7.42,4.69-7.42,9.44,2.94,9.44,7.42,9.44m0-16.18c2.55,0,4.72,3.08,4.72,6.74S94.36,88,91.81,88s-4.73-3.08-4.73-6.74,2.17-6.74,4.73-6.74"/><path class="cls-1" d="M112,90.68c4.49,0,7.42-4.69,7.42-9.44S116.52,71.8,112,71.8s-7.42,4.69-7.42,9.44,2.94,9.44,7.42,9.44m0-16.18c2.56,0,4.72,3.08,4.72,6.74S114.6,88,112,88s-4.72-3.08-4.72-6.74,2.16-6.74,4.72-6.74"/><path class="cls-1" d="M80.1,105.6c3.89-2.24,4.07-7.77,1.7-11.88S74.53,87,70.65,89.25,66.57,97,69,101.13s7.28,6.71,11.15,4.47m-8.1-14c2.59-1.49,5.94.85,7.46,3.49s1.88,6.7-.71,8.2-5.94-.85-7.46-3.48-1.88-6.71.71-8.21"/><path class="cls-1" d="M123.75,105.6c3.88,2.25,8.77-.35,11.14-4.46s2.16-9.66-1.7-11.89-8.78.36-11.14,4.47-2.18,9.65,1.7,11.88m.63-10.53c1.52-2.63,4.87-5,7.46-3.49s2.24,5.57.72,8.21-4.87,5-7.46,3.47-2.24-5.55-.72-8.19"/><path class="cls-1" d="M124.45,126.7A1.35,1.35,0,1,1,123.1,128a1.35,1.35,0,0,1,1.35-1.34"/><path class="cls-1" d="M76.46,123.65A13,13,0,0,0,87.35,135a13.48,13.48,0,0,0,10.55-2.5,6.71,6.71,0,0,1,8,0,13.48,13.48,0,0,0,10.54,2.5,13.71,13.71,0,0,0,4.3-1.49,1.35,1.35,0,0,0-1.3-2.36,11.25,11.25,0,0,1-3.46,1.19,10.82,10.82,0,0,1-8.46-2,9.42,9.42,0,0,0-11.3,0,10.79,10.79,0,0,1-8.45,2,10.35,10.35,0,0,1-8.69-9A10.56,10.56,0,0,1,84.93,112a9.19,9.19,0,0,0,4.34-4.23c2.73-5.65,7.46-9,12.65-9s9.92,3.37,12.65,9a9.21,9.21,0,0,0,4.35,4.23,10.51,10.51,0,0,1,5.89,10.14,1.35,1.35,0,1,0,2.7.1,13.19,13.19,0,0,0-7.43-12.68,6.52,6.52,0,0,1-3.08-3c-2.94-6.1-8.45-10.55-15.08-10.55s-12.13,4.46-15.08,10.55a6.47,6.47,0,0,1-3.08,3,13.36,13.36,0,0,0-7.3,14.06"/></svg>