<svg id="Layer_1" data-name="Layer 1" xmlns="http://www.w3.org/2000/svg" viewBox="0 0 186 179"><defs><style>.cls-1{fill:#33508d;}</style></defs><title>5</title><path class="cls-1" d="M131.51,69.37h-4.94V67.69a1.47,1.47,0,0,0-1-1.46A41.2,41.2,0,0,0,115,64.9c-5.82,0-13.74,1.3-19.6,7.27-5.82-6-13.8-7.27-19.6-7.27a41.14,41.14,0,0,0-10.48,1.33,1.46,1.46,0,0,0-1,1.46v1.67h-4.9A1.45,1.45,0,0,0,58,70.81v46.44a1.45,1.45,0,0,0,1.45,1.45,1.35,1.35,0,0,0,.71-.19c.15-.07,14.69-8,35-2.9h.35a2,2,0,0,0,.35,0c20.36-5.16,34.9,2.78,35,2.9a1.42,1.42,0,0,0,1.46,0,1.44,1.44,0,0,0,.72-1.25V70.83a1.45,1.45,0,0,0-1.45-1.46M60.86,114.94V72.28h3.48v36.47a1.45,1.45,0,0,0,1.44,1.47l.23,0a64.27,64.27,0,0,1,9.09-.73,37.72,37.72,0,0,1,12.42,1.88,53.4,53.4,0,0,0-26.66,3.59m14.24-8.36a65.25,65.25,0,0,0-7.91.51V68.83a40.3,40.3,0,0,1,8.62-1c5.44,0,12.94,1.25,18.15,7.12l0,36.22c-3-2-8.93-4.64-18.9-4.64M96.91,75c5.2-5.82,12.7-7.12,18.14-7.12a40.3,40.3,0,0,1,8.62,1v38.26a64.45,64.45,0,0,0-7.86-.53c-9.92,0-15.84,2.67-18.9,4.64ZM130,114.94a53.36,53.36,0,0,0-26.71-3.59,37.77,37.77,0,0,1,12.48-1.88,63.51,63.51,0,0,1,9.14.72,1.46,1.46,0,0,0,1.66-1.22,1.94,1.94,0,0,0,0-.24V72.28h3.47Z"/></svg>