<svg id="Layer_1" data-name="Layer 1" xmlns="http://www.w3.org/2000/svg" viewBox="0 0 186 179"><defs><style>.cls-1{fill:#33508d;}</style></defs><title>6</title><path class="cls-1" d="M73.36,125.51a5.47,5.47,0,0,1-4.12-9.09,1,1,0,0,1,.2-.29l54.87-54.87a2.59,2.59,0,0,1,3.66,0,2.56,2.56,0,0,1,.71,1.37l0,.13c.6,4.71.09,14.14-10.06,24.28l-13.82,13.83a9.48,9.48,0,0,1-11.58,1.43.59.59,0,0,0-.46,0c-.07,0-.47.21-1.17,1.24-1.5,2.23-11.24,16.4-13.21,18.93l0,0-1.06,1.33-.08.09a5.45,5.45,0,0,1-3.87,1.6m-2.13-8a1.15,1.15,0,0,1-.19.26,3.2,3.2,0,0,0-1,2.31,3.24,3.24,0,0,0,1,2.31,3.29,3.29,0,0,0,4.59,0l1-1.31,0,0c2-2.51,11.65-16.62,13.1-18.77A5,5,0,0,1,92,100.2a2.8,2.8,0,0,1,2.37.22,7.26,7.26,0,0,0,8.86-1.12l13.82-13.82c9.42-9.41,10-18,9.44-22.35a.3.3,0,0,1,0-.1.35.35,0,0,0-.1-.2.38.38,0,0,0-.54,0Zm32.82-17.38h0Z"/><path class="cls-1" d="M75.8,97.59c-2.28,0-4.74-1.08-8.29-4.28-6.28-5.68-12-14.44-13.26-18.74a9.37,9.37,0,0,1-.45-2.91c0-.09,0-.21,0-.29a1.89,1.89,0,0,1,.56-1.09,2,2,0,0,1,1.45-.61h0a2,2,0,0,1,1.45.6L71.06,84a.7.7,0,0,0,.5.2h0a.7.7,0,0,0,.5-.2.71.71,0,0,0,0-1l-5.22-5.22c-2.6-2.6-4.42-4.43-5.86-6.17-3.21-3.85-3.65-5.75-3.71-6.28a2.45,2.45,0,0,1,.7-2,2.4,2.4,0,0,1,2-.7c.53.06,2.42.5,6.28,3.71,1.7,1.42,3.47,3.16,6.17,5.86l5.23,5.23a.72.72,0,0,0,1,0,.73.73,0,0,0,0-1L64.89,62.67a2,2,0,0,1-.6-1.45,2,2,0,0,1,.6-1.44,1.93,1.93,0,0,1,1.17-.58l.28,0a9.2,9.2,0,0,1,2.85.45c4.3,1.23,13,7,18.74,13.26,5.52,6.1,4.73,9,3,13.23l-.17.41a4.27,4.27,0,0,0,.76,4.83,1.1,1.1,0,0,1,0,1.52l-4,4a1.1,1.1,0,0,1-1.52,0,4.28,4.28,0,0,0-4.83-.75l-.4.17a13.26,13.26,0,0,1-5,1.28M56,72.12A9.22,9.22,0,0,0,56.37,74C57.52,78,63.16,86.4,69,91.67c5.37,4.86,7.34,4.06,10.91,2.59l.41-.16a6.45,6.45,0,0,1,6.3.5l2.6-2.6a6.47,6.47,0,0,1-.51-6.3l.17-.41c1.47-3.58,2.27-5.54-2.59-10.92C81,68.54,72.58,62.9,68.58,61.76a9.09,9.09,0,0,0-1.85-.37L80.22,74.88A2.92,2.92,0,0,1,76.09,79l-5.22-5.22c-2.66-2.66-4.39-4.37-6-5.73-3.58-3-5.09-3.21-5.1-3.21a.24.24,0,0,0-.22.06.17.17,0,0,0-.06.16.45.45,0,0,1,0,.12s.26,1.52,3.2,5c1.38,1.66,3.16,3.46,5.72,6l5.23,5.22a2.93,2.93,0,0,1,0,4.13,2.85,2.85,0,0,1-2.05.85h0a2.89,2.89,0,0,1-2.06-.85Zm24.71,23h0Z"/><path class="cls-1" d="M114.4,126.84a7,7,0,0,1-5-2.06L93.34,105.61a1.11,1.11,0,0,1,0-1.35,1.08,1.08,0,0,1,1.28-.4,10.35,10.35,0,0,0,9.27-1.07,1.08,1.08,0,0,1,1.32.07l14.16,11.86a7.06,7.06,0,0,1-4.92,12.12M97.12,106.67,111,123.29a4.86,4.86,0,0,0,6.8-6.94l-13.47-11.29a12.5,12.5,0,0,1-7.24,1.61"/></svg>