<svg id="Layer_1" data-name="Layer 1" xmlns="http://www.w3.org/2000/svg" viewBox="0 0 186 179"><defs><style>.cls-1{fill:#33508d;}</style></defs><title>7</title><path class="cls-1" d="M107.84,134H83.66a1.1,1.1,0,0,1-.8-.34,1.09,1.09,0,0,1-.32-.8l.1-7a1.13,1.13,0,0,1,0-.32L84,121.28c-.48-.18-1-.36-1.43-.56A7.1,7.1,0,0,1,82,122a6.52,6.52,0,0,1-8.76,2.15,6.15,6.15,0,0,1-2.85-3.82,6.46,6.46,0,0,1,.73-5,5.45,5.45,0,0,1,.91-1.19,34.07,34.07,0,0,1-4.28-4.56,6.05,6.05,0,0,1-1.1.8A6.39,6.39,0,0,1,57.9,108a6.47,6.47,0,0,1-.6-5,6.19,6.19,0,0,1,3-3.77,5.5,5.5,0,0,1,1.67-.69,39.34,39.34,0,0,1-1.46-6.31,6,6,0,0,1-1.49.17,6.41,6.41,0,0,1,0-12.82,7.09,7.09,0,0,1,1.89.24,36.13,36.13,0,0,1,1.9-6.35,6.1,6.1,0,0,1-1.65-.75,6.42,6.42,0,0,1-3-4,6.19,6.19,0,0,1,.75-4.83,6.58,6.58,0,0,1,9-2,7.18,7.18,0,0,1,1.4,1.14,31.22,31.22,0,0,1,3.66-3.6,6.43,6.43,0,0,1-1.76-2,7.05,7.05,0,0,1-.69-5.32,6.09,6.09,0,0,1,2.86-3.72A6.68,6.68,0,0,1,82.2,51a6.12,6.12,0,0,1,.9,2.35A33.45,33.45,0,0,1,90,51.5a7.78,7.78,0,0,1-.21-1.83,6.42,6.42,0,1,1,12.82,0,7.52,7.52,0,0,1-.22,1.86,40.19,40.19,0,0,1,7.17,2,5.82,5.82,0,0,1,.84-2,6.5,6.5,0,0,1,8.85-2.16,6.26,6.26,0,0,1,2.86,3.86,6.59,6.59,0,0,1-.76,5A8.53,8.53,0,0,1,120,59.85,39.36,39.36,0,0,1,123.15,63a8.08,8.08,0,0,1,.93-.71,5.94,5.94,0,0,1,4.62-.56,6.42,6.42,0,0,1,3.9,3.08,6.57,6.57,0,0,1,.74,5,5.67,5.67,0,0,1-2.7,3.54,4.51,4.51,0,0,1-.73.36A34.59,34.59,0,0,1,131.84,80a6.65,6.65,0,0,1,1.7-.22,6.4,6.4,0,1,1-1.36,12.67,26.24,26.24,0,0,1-2.42,8.09,5.34,5.34,0,0,1,1.77.76,6,6,0,0,1,2.74,3.75,6.43,6.43,0,0,1-9.42,7.11,5.17,5.17,0,0,1-1.48-1.25,33.23,33.23,0,0,1-4.3,4.24,9.58,9.58,0,0,1,.58.79,6.4,6.4,0,0,1,.66,4.9,6.19,6.19,0,0,1-3,3.82,6,6,0,0,1-9.07-3.32l-.65.22,1.21,4a1.06,1.06,0,0,1,.05.31l.1,7a1.09,1.09,0,0,1-.32.8,1.14,1.14,0,0,1-.81.34m-23-2.25H106.7l-.08-5.71-1.48-4.93a1.13,1.13,0,0,1,.72-1.4l.55-.17c.74-.25,1.51-.5,2.19-.8a1.12,1.12,0,0,1,1,0,1.15,1.15,0,0,1,.57.83,5.43,5.43,0,0,0,.5,1.68,4.1,4.1,0,0,0,5.53,1.37,4,4,0,0,0,1.92-2.46,4.08,4.08,0,0,0-.39-3.12,5.16,5.16,0,0,0-1-1.2,1.13,1.13,0,0,1,0-1.78,30,30,0,0,0,5.88-5.87,1.13,1.13,0,0,1,1-.45,1.09,1.09,0,0,1,.9.66,3.56,3.56,0,0,0,1.45,1.71,4.18,4.18,0,0,0,6.12-4.61,3.74,3.74,0,0,0-1.74-2.37,3.42,3.42,0,0,0-2.27-.57,1.09,1.09,0,0,1-1.06-.51,1.12,1.12,0,0,1,0-1.17,23.92,23.92,0,0,0,3.1-10.1,1.13,1.13,0,0,1,1.57-.94,4.17,4.17,0,0,0,5.95-3.74A4.11,4.11,0,0,0,133.54,82a3.35,3.35,0,0,0-1.88.5,1.13,1.13,0,0,1-1.77-.73,33.28,33.28,0,0,0-2.55-8.35,1.1,1.1,0,0,1,0-1,1.09,1.09,0,0,1,.81-.58,3.94,3.94,0,0,0,1.33-.47,3.47,3.47,0,0,0,1.65-2.16,4.35,4.35,0,0,0-.51-3.3,4.25,4.25,0,0,0-2.56-2,3.69,3.69,0,0,0-2.83.31,3.22,3.22,0,0,0-1.07,1,1.12,1.12,0,0,1-.88.62,1.1,1.1,0,0,1-1-.4,38.63,38.63,0,0,0-4.94-4.83,1.14,1.14,0,0,1-.4-1,1.16,1.16,0,0,1,.66-.88,4.19,4.19,0,0,0,1.76-1.63,4.24,4.24,0,0,0,.48-3.23A4,4,0,0,0,118,51.35a4.25,4.25,0,0,0-5.78,1.47,4.1,4.1,0,0,0-.64,2.34,1.13,1.13,0,0,1-1.57,1,37.69,37.69,0,0,0-9.38-2.67,1.12,1.12,0,0,1-.83-1.62,5,5,0,0,0,.48-2.24,4.17,4.17,0,1,0-8.3,0,4.89,4.89,0,0,0,.49,2.24,1.14,1.14,0,0,1-.88,1.63,31.29,31.29,0,0,0-9.12,2.55A1.12,1.12,0,0,1,80.92,55a4.4,4.4,0,0,0-.64-2.75,4.48,4.48,0,0,0-5.92-1.86,3.82,3.82,0,0,0-1.78,2.35,4.76,4.76,0,0,0,2.71,5.6,1.13,1.13,0,0,1,.66.9,1.14,1.14,0,0,1-.44,1A28.21,28.21,0,0,0,70,65.59,1.09,1.09,0,0,1,69,66a1.16,1.16,0,0,1-.9-.62,4,4,0,0,0-1.52-1.58,4.3,4.3,0,0,0-5.86,1.27,3.94,3.94,0,0,0-.47,3.08,4.17,4.17,0,0,0,2,2.65,4,4,0,0,0,2.07.67,1.12,1.12,0,0,1,1,.51,1.1,1.1,0,0,1,.08,1.07,34.93,34.93,0,0,0-2.55,8.56,1.13,1.13,0,0,1-1.72.78A3.82,3.82,0,0,0,59,81.89a4.16,4.16,0,0,0,0,8.31,3.69,3.69,0,0,0,1.88-.46,1.1,1.1,0,0,1,1.07,0,1.14,1.14,0,0,1,.61.89,36.42,36.42,0,0,0,2,8.57,1.13,1.13,0,0,1-1.06,1.51,3.74,3.74,0,0,0-2,.54,4,4,0,0,0-1.94,2.44,4.27,4.27,0,0,0,.39,3.26,4,4,0,0,0,2.49,1.92,4.28,4.28,0,0,0,3.19-.42,4.23,4.23,0,0,0,1.34-1.26,1.15,1.15,0,0,1,.92-.51,1.18,1.18,0,0,1,.94.48,31.59,31.59,0,0,0,5.79,6.18,1.1,1.1,0,0,1,.4,1,1.12,1.12,0,0,1-.56.89,3.48,3.48,0,0,0-1.3,1.31,4.2,4.2,0,0,0-.5,3.25,3.93,3.93,0,0,0,1.81,2.43,4.23,4.23,0,0,0,5.69-1.36,3.66,3.66,0,0,0,.54-1.63,1.14,1.14,0,0,1,.5-.94,1.11,1.11,0,0,1,1.06-.1c1.18.49,2.4,1,3.58,1.39a1.13,1.13,0,0,1,.72,1.4L84.89,126Zm3-16.24a1.19,1.19,0,0,1-.37-.06,29.81,29.81,0,0,1-11.18-6.65,1.13,1.13,0,0,1-.34-.81,1.06,1.06,0,0,1,.33-.8L89.78,93.68a1.12,1.12,0,0,1,1.53-.06,8.52,8.52,0,0,0,2.53,1.43,1.14,1.14,0,0,1,.66,1.38l-5.59,18.28a1.1,1.1,0,0,1-.57.68,1.13,1.13,0,0,1-.51.12M78.69,108a27.49,27.49,0,0,0,8.41,5L92,96.73A11.71,11.71,0,0,1,90.67,96Zm26.11,7.46a1.13,1.13,0,0,1-.54-.13,1.2,1.2,0,0,1-.55-.68L98.33,96.32a1.13,1.13,0,0,1,.72-1.39,6.89,6.89,0,0,0,2.81-1.66,1.13,1.13,0,0,1,1.6,0L117,106.78a1.16,1.16,0,0,1,.33.81,1.1,1.1,0,0,1-.34.8,29.77,29.77,0,0,1-11.83,7,1.26,1.26,0,0,1-.33,0m-4-18.74,4.76,16.17a27.56,27.56,0,0,0,9-5.29L102.61,95.61a9.86,9.86,0,0,1-1.82,1.06m-26.06,10h0a1.06,1.06,0,0,1-.81-.4A28.77,28.77,0,0,1,67,88.94a1.07,1.07,0,0,1,.31-.83,1.12,1.12,0,0,1,.81-.35h19.2a1.13,1.13,0,0,1,1.11.91,9.34,9.34,0,0,0,1,2.61,1.13,1.13,0,0,1-.18,1.35L75.52,106.34a1.07,1.07,0,0,1-.79.33M69.33,90a26.52,26.52,0,0,0,5.49,13.85L87.06,91.62A10.2,10.2,0,0,1,86.45,90Zm49.08,16.36a1.14,1.14,0,0,1-.8-.33L103.9,92.32a1.11,1.11,0,0,1-.2-1.33,7.75,7.75,0,0,0,.88-3.3,1.13,1.13,0,0,1,1.13-1h19.1a1.13,1.13,0,0,1,1.12,1.15A29.17,29.17,0,0,1,119.27,106a1.11,1.11,0,0,1-.81.41ZM106.06,91.3l12.25,12.25a27.07,27.07,0,0,0,5.33-14.65H106.72a9.84,9.84,0,0,1-.66,2.4M87.32,86.66H68.12a1.14,1.14,0,0,1-.82-.35,1.16,1.16,0,0,1-.3-.85A29.71,29.71,0,0,1,74.07,68a1.15,1.15,0,0,1,.81-.4,1.14,1.14,0,0,1,.84.34L89.34,81.59A1.12,1.12,0,0,1,89.48,83a7.43,7.43,0,0,0-1,2.72,1.12,1.12,0,0,1-1.11.93m-18-2.25H86.42a9.38,9.38,0,0,1,.71-1.84L75,70.45a27.5,27.5,0,0,0-5.66,14m55.36,1.24H105.3a1.13,1.13,0,0,1-1.09-.84,7.48,7.48,0,0,0-1.42-2.64,1.14,1.14,0,0,1,.07-1.47L116,66.78a1.12,1.12,0,0,1,.81-.35,1.23,1.23,0,0,1,.82.34,29.2,29.2,0,0,1,8.24,17.65,1.13,1.13,0,0,1-1.12,1.23m-18.6-2.26h17.33a27.05,27.05,0,0,0-6.66-14.19L105.14,81.56a9.84,9.84,0,0,1,1,1.83M90.78,81.08a1.17,1.17,0,0,1-.8-.33L76.37,67.24a1.12,1.12,0,0,1-.33-.83,1.1,1.1,0,0,1,.37-.81,29.81,29.81,0,0,1,18.16-7.81,1.13,1.13,0,0,1,1.19,1.13v19.2a1.12,1.12,0,0,1-.89,1.1,9.25,9.25,0,0,0-3.43,1.64,1.09,1.09,0,0,1-.66.22m-12-14.59,12.09,12a11.82,11.82,0,0,1,2.6-1.24V60.14a27.62,27.62,0,0,0-14.69,6.35m22.32,14a1.1,1.1,0,0,1-.58-.16,7.93,7.93,0,0,0-2.86-1.07,1.13,1.13,0,0,1-.94-1.11V58.92a1.14,1.14,0,0,1,.35-.82,1.27,1.27,0,0,1,.83-.31,28.54,28.54,0,0,1,17.13,6.67,1.13,1.13,0,0,1,.4.79,1.09,1.09,0,0,1-.31.84l-13.2,14a1.14,1.14,0,0,1-.82.35M99,77.21a10,10,0,0,1,1.9.72l11.76-12.5A26.17,26.17,0,0,0,99,60.13Z"/></svg>