<svg id="Layer_1" data-name="Layer 1" xmlns="http://www.w3.org/2000/svg" viewBox="0 0 186 179"><defs><style>.cls-1{fill:#33508d;}</style></defs><title>8</title><path class="cls-1" d="M106.16,131.92h-4a4.33,4.33,0,0,1-4.33-4.32v-1.27H64.55v1.27a4.33,4.33,0,0,1-4.33,4.32h-4a4.33,4.33,0,0,1-4.32-4.32v-15a14.26,14.26,0,0,1,1.73-7.21,4.35,4.35,0,0,1-3.78-4.25V98.85A4.23,4.23,0,0,1,54,94.64h1.19a6.6,6.6,0,0,1,3,.92A59.6,59.6,0,0,1,62.36,87a11.78,11.78,0,0,1,8.09-4.72,61.51,61.51,0,0,1,10.76-.78,62.37,62.37,0,0,1,10.76.7,11.74,11.74,0,0,1,8,4.69,59.49,59.49,0,0,1,4.15,8.56,6.54,6.54,0,0,1,3-.92h1.23a4.24,4.24,0,0,1,4.2,4.2V101a4.34,4.34,0,0,1-3.82,4.28,14.37,14.37,0,0,1,1.72,7.24V127.6a4.33,4.33,0,0,1-4.32,4.32m-42.74-7.84H98.93a1.13,1.13,0,0,1,1.13,1.13v2.39a2.07,2.07,0,0,0,2.07,2.07h4a2.07,2.07,0,0,0,2.07-2.07V112.51a12,12,0,0,0-2-7c-.13-.19-.27-.4-.42-.59a1.16,1.16,0,0,1-.1-1.19,1.13,1.13,0,0,1,1-.62h1.54a2.1,2.1,0,0,0,2.07-2.08V98.77a2,2,0,0,0-2-2h-1.15a4.17,4.17,0,0,0-2.72,1.25,1.12,1.12,0,0,1-1.85-.37,63.66,63.66,0,0,0-4.47-9.47,9.46,9.46,0,0,0-6.5-3.76,60.84,60.84,0,0,0-10.45-.68,62,62,0,0,0-10.46.75,9.52,9.52,0,0,0-6.57,3.8,63.69,63.69,0,0,0-4.45,9.45,1.11,1.11,0,0,1-.83.68,1.08,1.08,0,0,1-1-.32,4.23,4.23,0,0,0-2.79-1.26H54a2,2,0,0,0-2,2v2.21a2.12,2.12,0,0,0,2.09,2.08h1.47a1.13,1.13,0,0,1,1,.62,1.14,1.14,0,0,1-.1,1.18c-.15.19-.29.39-.43.6a12.15,12.15,0,0,0-2,7v15a2.07,2.07,0,0,0,2.07,2.07h4a2.07,2.07,0,0,0,2.07-2.07v-2.39a1.13,1.13,0,0,1,1.13-1.13m-11.37-23h0Zm71.85,16.24h-4a4.32,4.32,0,0,1-4.32-4.32v-1.27h-1.27a1.13,1.13,0,0,1-1.13-1,17.22,17.22,0,0,0-.57-3.22,1.14,1.14,0,0,1,.34-1.14,7.17,7.17,0,0,0,2.39-5.19V98.64a7,7,0,0,0-6.82-6.8H107.2a5.62,5.62,0,0,0-.76,0,1.14,1.14,0,0,1-1.16-.69,41.15,41.15,0,0,0-3-5.85,14.51,14.51,0,0,0-9.77-5.81,63.8,63.8,0,0,0-11.29-.78H78.53a1.12,1.12,0,0,1-1-1.57A34.7,34.7,0,0,1,80,72.31a11.81,11.81,0,0,1,8.12-4.76A59.76,59.76,0,0,1,99,66.92a60.52,60.52,0,0,1,10.74.7,11.72,11.72,0,0,1,8,4.69,58.16,58.16,0,0,1,4.16,8.54,6.38,6.38,0,0,1,3-.91h1.23a4.25,4.25,0,0,1,4.21,4.27v2.24a4.37,4.37,0,0,1-3.83,4.29A14.22,14.22,0,0,1,128.22,98V113a4.33,4.33,0,0,1-4.32,4.32m-8.61-7.85h1.38a1.14,1.14,0,0,1,1.13,1.13V113a2.07,2.07,0,0,0,2.07,2.06h4A2.07,2.07,0,0,0,126,113V97.93a12,12,0,0,0-2-7c-.13-.2-.26-.39-.41-.58a1.14,1.14,0,0,1-.11-1.19,1.13,1.13,0,0,1,1-.62H126a2.12,2.12,0,0,0,2.06-2.09V84.2a2,2,0,0,0-2-2H125a4.19,4.19,0,0,0-2.73,1.26,1.12,1.12,0,0,1-1.85-.37,62.14,62.14,0,0,0-4.46-9.46,9.49,9.49,0,0,0-6.51-3.77A61,61,0,0,0,99,69.17a60.91,60.91,0,0,0-10.5.61,9.52,9.52,0,0,0-6.56,3.8c-.57.92-1.11,1.9-1.61,2.92h.86a65,65,0,0,1,11.64.8,16.78,16.78,0,0,1,11.3,6.78,45,45,0,0,1,3,5.5h1.48a9.29,9.29,0,0,1,9,9v2.58a9.49,9.49,0,0,1-2.64,6.36c.15.64.27,1.28.36,1.94"/></svg>